<?xml version="1.0" encoding="utf-8"?>
<!-- Generator: Adobe Illustrator 24.0.0, SVG Export Plug-In . SVG Version: 6.00 Build 0)  -->
<svg version="1.1" id="Layer_1" xmlns="http://www.w3.org/2000/svg" xmlns:xlink="http://www.w3.org/1999/xlink" x="0px" y="0px"
	 viewBox="0 0 1920 700" style="enable-background:new 0 0 1920 700;" xml:space="preserve">
<style type="text/css">
	.st0{fill:#F16B25;}
	.st1{fill:#F23C3C;}
	.st2{fill:#C83131;}
	.st3{fill:#F4C32D;}
	.st4{fill:#FFFFFF;}
	.st5{fill:#0C3F6E;}
	.st6{fill:#C0C0C0;}
	.st7{fill:#F3F2F1;}
	.st8{fill:#62B0E2;}
	.st9{fill:#FF931D;}
	.st10{fill:#868686;}
	.st11{fill:#75964B;}
	.st12{fill:#081F2F;}
	.st13{fill:#EF3F7F;}
	.st14{opacity:0.6;fill:#E9E6DF;enable-background:new    ;}
	.st15{fill:none;stroke:#071A23;stroke-width:0.61;stroke-miterlimit:10;}
	.st16{fill:#015288;}
</style>
<g id="illustration">
	<g id="top_toolbox">
		<path id="Path_336" class="st0" d="M1282.6,313.6l-21.6-94l278.9,92.6l9.9,94.9L1282.6,313.6z"/>
		<path id="Path_335" class="st1" d="M1549,406.7l10.8-3.4c10.3-2.2,17.2-11.9,15.9-22.4l-9.6-78.5c-1-7.8-6.3-14.3-13.7-16.7
			l-245.8-81.7c-7.1-2.3-14.8-2-21.6,1l-24.6,14.8l278.9,92.4L1549,406.7z"/>
		<path id="Path_338" class="st2" d="M1539.3,312.3l9.7,94.4l10.8-3.4c10.3-2.2,17.2-11.9,15.9-22.4l-9.6-78.5
			c-0.5-3.8-2-7.4-4.4-10.4"/>
		<path class="st2" d="M1293.3,230.5l12,59.1c1.2,5.7-1.5,11.6-6.5,14.5l-16.3,9.5l-21.6-94L1293.3,230.5z"/>
	</g>
	<g id="inside_gold">
		<path id="Path_334" class="st3" d="M1281.5,312.6l-97,44.3l254.4,90.5l109.4-41.6L1281.5,312.6z"/>
	</g>
	<g id="balnk_card">
		<path id="Path_395" class="st4" d="M1322.8,326l60.3-13.9c2.4-0.5,4.7,0.9,5.2,3.3l22.1,96.2c0.5,2.4-0.9,4.7-3.3,5.2c0,0,0,0,0,0
			l-60.3,13.9c-2.4,0.5-4.7-0.9-5.2-3.3l-22.1-96.2C1319,328.9,1320.5,326.6,1322.8,326C1322.8,326.1,1322.8,326.1,1322.8,326"/>
	</g>
	<g id="dark_blue_pawn">
		<path id="Path_339" class="st5" d="M1315.5,332.3c9.4,0.2,17.2-7.2,17.4-16.5c0.2-9.4-7.2-17.2-16.5-17.4
			c-9.4-0.2-17.2,7.2-17.4,16.5c-0.1,4.2,1.4,8.4,4.1,11.6c-23.3,40.2-64.8,31.1-76.1,54.8l46.8,22.2l0.6,0.2l46.8,22.2
			C1332.4,402.1,1299.1,375.7,1315.5,332.3"/>
	</g>
	<g id="outside_toolbox">
		<path id="Path_340" class="st1" d="M1548.7,406v80c0,7.9-5,15-12.5,17.7l-88.9,31.5c-6.5,2.3-13.7,2.3-20.2,0l-227.7-81.8
			c-9.1-3.2-15.2-11.8-15.2-21.4v-75.1l243.9,87.1c6.5,2.3,13.6,2.2,20-0.2L1548.7,406z"/>
		<path id="Path_341" class="st2" d="M1427.2,535.2c6.5,2.3,13.7,2.3,20.2,0l88.9-31.5c7.5-2.7,12.5-9.7,12.5-17.7v-80l-100.5,37.8
			c-6.4,2.4-13.5,2.5-20,0.2L1427.2,535.2z"/>
	</g>
	<g id="middle_card">
		<path id="Path_392" class="st4" d="M1433.7,309.3l-58.8-22.5c-2.3-0.9-3.4-3.4-2.6-5.7c0,0,0,0,0,0l0,0l36-93.8
			c0.9-2.3,3.4-3.4,5.7-2.6c0,0,0,0,0,0l58.8,22.5c2.3,0.9,3.4,3.4,2.6,5.7c0,0,0,0,0,0l0,0l-35.9,93.8
			C1438.6,309,1436.1,310.2,1433.7,309.3C1433.8,309.3,1433.8,309.3,1433.7,309.3L1433.7,309.3"/>
		<path id="Path_393" class="st6" d="M1446.6,258l-47.5-18.4c-1.8-0.7-2.8-2.8-2.1-4.6l15.3-39.5c0.7-1.8,2.8-2.7,4.6-2l0,0
			l47.5,18.4c1.8,0.7,2.7,2.8,2,4.6l0,0l-15.2,39.4C1450.5,257.8,1448.5,258.8,1446.6,258L1446.6,258"/>
		<g id="Line_22">
			<path class="st6" d="M1441.3,269.2c-0.1,0-0.3,0-0.4-0.1l-48.9-18.7c-0.6-0.2-0.9-0.9-0.7-1.5c0.2-0.6,0.9-0.9,1.5-0.7l48.9,18.7
				c0.6,0.2,0.9,0.9,0.7,1.5C1442.3,268.9,1441.8,269.2,1441.3,269.2z"/>
		</g>
		<g id="Line_23">
			<path class="st6" d="M1433.3,274.3c-0.1,0-0.3,0-0.4-0.1l-43.7-16.7c-0.6-0.3-0.9-1-0.6-1.6c0.2-0.6,0.9-0.8,1.5-0.7l43.7,16.7
				c0.6,0.2,0.9,0.9,0.7,1.5C1434.3,274,1433.8,274.3,1433.3,274.3L1433.3,274.3z"/>
		</g>
	</g>
	<g id="top_card">
		<path id="Path_391" class="st4" d="M1331.2,179.5l62.8-5.2c2.4-0.2,4.3-2.4,4.1-4.8l0,0l-8.3-100.1c-0.2-2.5-2.3-4.3-4.8-4.1
			l-62.8,5.2c-2.5,0.2-4.3,2.3-4.1,4.8l8.3,100.1C1326.6,177.9,1328.7,179.7,1331.2,179.5"/>
		<path id="Path_394" class="st7" d="M1382.2,110.3c1.6,17.8-8.5,33.3-22.5,34.5s-26.6-12.2-28.2-30.1s8.5-33.3,22.5-34.5
			S1380.6,92.4,1382.2,110.3"/>
		<g id="Line_24">
			<path class="st7" d="M1333.3,159.2c-0.7,0-1.2-0.6-1.1-1.2c0-0.6,0.5-1.1,1-1.1l52.2-4.2c0.7-0.1,1.2,0.4,1.3,1.1
				c0.1,0.7-0.4,1.2-1.1,1.3L1333.3,159.2L1333.3,159.2z"/>
		</g>
		<g id="Line_25">
			<path class="st7" d="M1333.8,166.8c-0.6,0-1.1-0.5-1.2-1.1c0-0.7,0.4-1.2,1.1-1.3l46.6-3.8c0.7-0.1,1.2,0.4,1.3,1
				c0.1,0.7-0.4,1.2-1,1.3c0,0-0.1,0-0.1,0L1333.8,166.8L1333.8,166.8z"/>
		</g>
	</g>
	<g id="blue_arrow">
		<path id="Path_365" class="st8" d="M1519.3,163.8l-31.9-22.2l7.3,38.2l7.7-8.6l6.8,10.7l6-3.8l-6.8-10.7L1519.3,163.8z"/>
	</g>
	<g id="right_orange_ribbon">
		<path id="Path_396" class="st1" d="M1318,404.3l63,22.1l-43.6,23.7L1318,404.3z"/>
		<path class="st9" d="M1851.2,667.6c-11-60.1-61.1-105.1-122-109.6l-70.5-5.3c-30.3-2.3-59-14.8-81.3-35.5L1439,388.8l94.5,160.5
			c18.1,30.7,47.7,53,82.2,61.9c49.7,20.4,71.6,51.4,80.8,88.9h160.6L1851.2,667.6z"/>
		<path class="st0" d="M1882.4,616.2c-18.3-58.2-73.6-96.8-134.5-93.8l-70.6,3.5c-30.4,1.5-60.3-7.4-85-25.2l-153.2-110.5
			l113.5,147.6c21.7,28.3,53.8,46.7,89.2,51.3c58.6,7.6,105.4,52.6,115.2,110.9h151.8L1882.4,616.2z"/>
	</g>
	<g id="top_yellow_ribbon">
		<path class="st3" d="M1639,130.8c-56.4,25.7-103.4,68.2-134.8,121.6l-61.8,105.3l82-81c43.6-43.1,99.4-71.9,159.8-82.4l47.4-8.3
			c1.5-0.2,2.9-0.5,4.4-0.8c94.2-17.9,162.6-94.6,175.2-185.2h-152.8C1735.5,58.6,1702.4,101.9,1639,130.8z"/>
	</g>
	<g id="bottom_yellow_ribbon">
		<path class="st3" d="M960.7,614l-8.9,33c-5.1,19.2-14.1,37.3-26.3,53h107.6c6.5-17.6,9.7-36.2,9.4-54.9
			c-0.9-50.9,22.1-99.2,62.2-130.5l195-152.4l-264,153.7C998.8,537.4,971.8,572.7,960.7,614z"/>
	</g>
	<g id="stars">
		<path id="Path_372" class="st4" d="M1471.9,355.3l0.9,1.8c1.3,2.4,3.7,4.1,6.4,4.3l2,0.2c0.6,0.1,1.1,0.6,1,1.3
			c0,0.4-0.3,0.7-0.6,0.9l-1.8,1c-2.4,1.3-4.1,3.7-4.3,6.4l-0.2,2c-0.1,0.6-0.6,1.1-1.3,1.1c-0.4,0-0.7-0.3-0.9-0.6l-0.9-1.8
			c-1.3-2.4-3.7-4.1-6.4-4.3l-2-0.2c-0.6-0.1-1.1-0.6-1.1-1.3c0-0.4,0.3-0.8,0.6-0.9l1.8-1c2.4-1.3,4.1-3.7,4.3-6.4l0.2-2
			c0.1-0.6,0.6-1.1,1.3-1c0.4,0,0.7,0.3,0.9,0.6"/>
		<path id="Path_371" class="st4" d="M1443.2,378.8l0.9,3c1.2,4.1,4.4,7.2,8.4,8.4l3,0.9c0.9,0.3,1.5,1.2,1.2,2.2
			c-0.2,0.6-0.6,1.1-1.2,1.2l-3,0.9c-4.1,1.2-7.2,4.4-8.4,8.4l-0.9,3c-0.3,0.9-1.3,1.5-2.2,1.2c-0.6-0.2-1-0.6-1.2-1.2l-0.9-3
			c-1.2-4.1-4.4-7.2-8.4-8.4l-3-0.9c-0.9-0.3-1.5-1.3-1.2-2.2c0.2-0.6,0.6-1,1.2-1.2l3-0.9c4.1-1.2,7.2-4.4,8.4-8.4l0.9-3
			c0.3-0.9,1.3-1.5,2.2-1.2C1442.6,377.8,1443,378.2,1443.2,378.8"/>
	</g>
	<g id="orange_pawn">
		<path id="Path_366" class="st0" d="M1247.8,133.7c0.1-1.3,0.1-2.6-0.2-3.9c-0.3-15.7-24.2-25.2-23.3-54.1c5.8-1.8,9-8,7.2-13.8
			c-1.8-5.8-8-9-13.8-7.2c-5.8,1.8-9,8-7.2,13.8c0.8,2.6,2.6,4.8,4.9,6.2c-5.8,29.5-33.2,32.7-35.1,49.6h0.1
			c-0.2,0.6-0.3,1.2-0.3,1.8c-1.2,10.8,13,21.2,31.7,23.3S1246.6,144.4,1247.8,133.7"/>
	</g>
	<g id="scissors">
		<path id="Path_349" class="st6" d="M1093,212.6l111,24.6c-0.8-4.6-4.1-8.4-8.5-9.9l-93.5-32L1093,212.6z"/>
		<path id="Path_350" class="st10" d="M1105,203.7l7.9,113.4c-4.4-1.5-7.7-5.3-8.6-9.9l-17.8-97.2L1105,203.7z"/>
		<path id="Path_351" class="st1" d="M1058.6,222.9c0,0,17,1.7,31.7-6.8l0.5-0.3c6.1-3.5,11.5-8,15.9-13.5c0.3-0.3,0.6-0.7,0.9-1
			c10.6-13.3,11.3-30.3,11.3-30.3c0-25.5-15.8-32.9-28.9-34.6c-6.9-0.9-13.2,4-14.1,10.9c-0.2,1.4-0.1,2.8,0.2,4.2l8.6,40.8
			l-39.2-14.4c-6.5-2.4-13.8,0.9-16.2,7.4c-0.5,1.3-0.8,2.7-0.8,4.1C1028.3,202.4,1033.4,219.2,1058.6,222.9 M1087.1,146
			c0.7-0.6,1.6-0.9,2.6-0.8c13.6,1.8,20,9.5,20,24.1c-0.1,1.4-1.2,14.1-8.9,23.7c-0.1,0.2-0.3,0.3-0.5,0.5c-1.5,1.2-3.7,0.9-4.8-0.6
			c-0.3-0.4-0.5-0.9-0.6-1.4l-8.9-42.2C1085.6,148.1,1086.1,146.8,1087.1,146 M1037.2,190.5c0-0.9,0.4-1.8,1.1-2.4
			c1-0.8,2.3-1.1,3.5-0.6l40.5,14.9c1.8,0.7,2.7,2.6,2.1,4.4c-0.2,0.5-0.5,0.9-0.8,1.3c-0.2,0.1-0.4,0.3-0.6,0.4
			c-10.6,6.2-23.3,5.5-24.8,5.4C1043.7,211.6,1037,204.2,1037.2,190.5"/>
	</g>
	<g id="pencil">
		<path id="Path_367" class="st11" d="M1120.5,273.8l109.3,41.6l20,14.5l-25,3.1L1114,290.5c-3.4-1.3-5.7-4.6-5.8-8.2
			c0-0.1,0-0.1,0-0.2c0.1-4.9,4.2-8.9,9.1-8.8C1118.4,273.2,1119.4,273.5,1120.5,273.8"/>
		<path id="Path_368" class="st9" d="M1224.7,333l32.5,1.7l-27.4-19.3L1224.7,333z"/>
		<path id="Path_369" class="st12" d="M1244.8,333.9l12.3,0.7l-10.4-7.4L1244.8,333.9z"/>
		<path id="Path_370" class="st13" d="M1122.2,293.9c0,0-3-9.8,7-17.4l-9.4-2.9c-4.8-1.6-10,1-11.6,5.8s1,10,5.8,11.6L1122.2,293.9z
			"/>
	</g>
	<g id="timer">

			<rect x="1767.2" y="266.7" transform="matrix(0.9711 -0.2389 0.2389 0.9711 -27.3819 435.7504)" class="st14" width="33.9" height="128.3"/>
		<path class="st4" d="M1792.1,309.2l0.4-0.1l-10.7-43.4l-25.9,6.4l10.7,43.4l0,0c12.6,6.2,17.8,21.5,11.5,34.1c-0.5,1-1.1,2-1.7,3
			l-0.7,0.2l10.7,43.4l25.9-6.4l-10.7-43.4l-0.3,0.1c-12.5-6.4-17.4-21.8-11-34.3C1790.9,311.1,1791.5,310.2,1792.1,309.2
			L1792.1,309.2z"/>

			<rect x="1749.3" y="250.8" transform="matrix(0.9711 -0.2389 0.2389 0.9711 -10.96 429.5283)" class="st1" width="34.7" height="18.3"/>

			<rect x="1743.9" y="248.4" transform="matrix(0.9711 -0.2389 0.2389 0.9711 -8.5971 428.637)" class="st1" width="40.5" height="2.7"/>
		<polygon class="st8" points="1810.6,390.8 1788.4,396.3 1779.3,359 1802.7,359 		"/>

			<rect x="1784.2" y="392.8" transform="matrix(0.9711 -0.2389 0.2389 0.9711 -43.8604 441.9701)" class="st1" width="34.7" height="18.3"/>

			<rect x="1783.8" y="410.8" transform="matrix(0.9711 -0.2389 0.2389 0.9711 -46.2213 442.8658)" class="st1" width="40.5" height="2.7"/>
	</g>
	<g id="coin">
		<ellipse transform="matrix(0.866 -0.5 0.5 0.866 -59.1729 593.6888)" class="st9" cx="1078.3" cy="407.3" rx="42" ry="25.6"/>
		<ellipse transform="matrix(0.866 -0.5 0.5 0.866 -57.6739 591.867)" class="st3" cx="1075.6" cy="403.6" rx="42" ry="25.6"/>
		<ellipse transform="matrix(0.866 -0.5 0.5 0.866 -58.2134 591.7393)" class="st15" cx="1075.1" cy="404.5" rx="36.8" ry="21"/>
		<polygon class="st15" points="1092,390.1 1064.3,399.6 1077.6,402.9 1054.6,418.4 1094.1,401.9 1080.8,398.1 		"/>
	</g>
	<g id="exacto">
		<path id="Path_363" class="st10" d="M1651.3,334.9l64-8.1l-49.1,28.1l-1.4-10.9l-14.1-0.7L1651.3,334.9z"/>
		<path id="Path_364" class="st16" d="M1514.7,369.7l134.1-9.2c2.6-0.2,4.8-2,5.4-4.5c1.4-5.2,2.6-14.5-3-23.1
			c-1.3-2.1-3.8-3.1-6.2-2.7l-132.3,24.8c-3.6,0.6-6.3,3.8-6.2,7.5c0,0.3,0,0.6,0.1,0.8C1507.2,367.2,1510.7,370.1,1514.7,369.7"/>
	</g>
	<g id="green_meeple">
		<path id="Path_352" class="st11" d="M1667.5,463.6l-22,3.3c-1.4-1-2.7-2.1-4-3.2c-2.6-2.8-4.9-5.8-7.5-8.6c-1.9-2.1-3-1.9-4.2,0.6
			c-1.6,3.4-2.9,6.9-4.5,10.3c-0.9,1.6-1.8,3-2.9,4.5l-22,3.3c-1.5-0.5-2.4-1.9-2.2-3.5c0-0.8,0-1.6,0-2.3c0.5-6,2.8-11.6,4.8-17.2
			c1.3-3.7,2.8-7.4,3.9-11.2c0.9-3.1-0.1-4.1-3.3-3.9c-2.7,0.3-5.4,0.5-8.1,0.6c-5.6-0.2-8.7-5.5-5.9-10.4c1.5-2.6,3.5-4.8,5.9-6.5
			c4.8-3.2,9.9-5.9,14.9-8.7c1.2-0.5,1.9-1.7,1.7-3c-0.2-2.3-0.2-4.5,0.2-6.8c0.9-5.4,4.4-8.6,10-9.4s9.8,1.2,12.2,6.1
			c1,2,1.7,4.1,2.1,6.2c0.3,1.7,1.1,2.2,2.6,2.5c5.3,1.1,10.7,2.1,15.9,3.5c4.2,1.1,7.9,3.2,10.3,7c0.2,1.2,0.3,2.3,0.5,3.5
			c-0.7,4.2-3.6,6-7.4,6.7c-1.9,0.3-3.8,0.7-5.7,1.2c-2.9,0.7-3.4,1.9-1.9,4.5c0.9,1.4,1.8,2.8,2.8,4.2c3.2,4.3,6.7,8.5,9.7,12.9
			c1.9,3.1,3.6,6.3,5,9.6C1669.2,460.8,1668.8,462.6,1667.5,463.6"/>
	</g>
	<g id="top_dice">
		<path id="Path_378" class="st6" d="M1543.6,147.4l33.5-3.6l21.6-28.1l-31.2,4.2L1543.6,147.4z"/>
		<path id="Path_379" class="st4" d="M1577.2,143.7l16.6,32.8l-33,3.4l-17.2-32.5L1577.2,143.7z"/>
		<path id="Path_380" class="st10" d="M1577,143.6l16.8,32.8l21.6-27.8l-16.7-32.9L1577,143.6z"/>
		<path id="Path_381" class="st12" d="M1559.7,138.1c0.6,1-0.3,2.7-2.2,3.8s-3.8,1.3-4.4,0.3s0.4-2.7,2.2-3.8
			S1559.1,137.2,1559.7,138.1"/>
		<path id="Path_382" class="st12" d="M1574.3,129.5c0.6,1-0.4,2.7-2.2,3.8s-3.7,1.3-4.3,0.3s0.3-2.7,2.2-3.8
			S1573.7,128.5,1574.3,129.5"/>
		<path id="Path_383" class="st12" d="M1588.5,121.7c0.6,1-0.4,2.7-2.2,3.8s-3.7,1.2-4.3,0.3s0.4-2.7,2.2-3.8
			S1587.9,120.7,1588.5,121.7"/>
		<path id="Path_384" class="st12" d="M1600.8,145.4c0.2,2.1-1.2,3.9-3.3,4.2c-2.1,0.2-3.9-1.2-4.2-3.3c-0.2-1.9,1-3.7,2.9-4.1
			C1598.5,141.8,1600.5,143.3,1600.8,145.4"/>
		<path id="Path_385" class="st12" d="M1557.5,153.5c0.5,1.5-0.2,3.1-1.7,3.6s-3.1-0.2-3.6-1.7c-0.5-1.3,0-2.7,1.2-3.4
			C1554.9,151.4,1556.8,152,1557.5,153.5"/>
		<path id="Path_386" class="st12" d="M1575.3,151.4c0.5,1.5-0.2,3.1-1.7,3.6s-3.1-0.2-3.6-1.7c-0.5-1.3,0-2.7,1.2-3.4
			C1572.7,149.2,1574.5,149.8,1575.3,151.4"/>
		<path id="Path_387" class="st12" d="M1566.4,169.5c0.5,1.5-0.2,3.1-1.7,3.6s-3.1-0.2-3.6-1.7c-0.5-1.3,0-2.7,1.2-3.4
			C1563.8,167.3,1565.6,167.9,1566.4,169.5"/>
		<path id="Path_388" class="st12" d="M1584.1,167.3c0.5,1.5-0.2,3.1-1.7,3.6s-3.1-0.2-3.6-1.7c-0.5-1.3,0-2.7,1.2-3.4
			C1581.6,165.1,1583.4,165.8,1584.1,167.3"/>
	</g>
	<g id="bottom_dice">
		<path id="Path_348" class="st6" d="M1451.3,587.5l29.5,32.6l46.3,1.3l-28.3-29.8L1451.3,587.5z"/>
		<path id="Path_353" class="st4" d="M1480.9,620.2l-22,42.7l-28.9-32.3l21.2-43.1L1480.9,620.2z"/>
		<path id="Path_354" class="st10" d="M1480.9,620l-21.8,42.9l45.9,1.5l22-43L1480.9,620z"/>
		<path id="Path_355" class="st12" d="M1473.4,597.4c-0.6,1.4-3.1,1.7-5.7,0.6s-4.2-3-3.6-4.4s3.1-1.7,5.7-0.6
			S1474,596,1473.4,597.4"/>
		<path id="Path_357" class="st12" d="M1512.9,615.3c-0.6,1.4-3.1,1.7-5.7,0.6s-4.2-3-3.6-4.4s3.1-1.7,5.7-0.6
			S1513.5,613.9,1512.9,615.3"/>
		<path id="Path_358" class="st12" d="M1497.2,646.5c-2,1.8-5.1,1.7-6.9-0.3c-1.8-2-1.7-5.1,0.3-6.9c1.9-1.7,4.7-1.7,6.6,0
			C1499.2,641.3,1499.2,644.5,1497.2,646.5"/>
		<path id="Path_359" class="st12" d="M1455.5,606.9c-0.9,2.2-3.2,3.4-5,2.7s-2.6-3.2-1.6-5.4s3.2-3.4,5-2.7
			S1456.4,604.7,1455.5,606.9"/>
		<path id="Path_360" class="st12" d="M1472.4,624c-0.9,2.2-3.2,3.4-5,2.7s-2.6-3.2-1.6-5.4s3.2-3.4,5-2.7S1473.4,621.8,1472.4,624"
			/>
		<path id="Path_360-2" class="st12" d="M1457.6,626.2c-0.9,2.2-3.2,3.4-5,2.7s-2.6-3.2-1.6-5.4s3.2-3.4,5-2.7
			S1458.5,623.9,1457.6,626.2"/>
		<path id="Path_361" class="st12" d="M1443.3,628.5c-0.9,2.2-3.2,3.4-5,2.7s-2.6-3.2-1.6-5.4s3.2-3.4,5-2.7
			S1444.2,626.3,1443.3,628.5"/>
		<path id="Path_362" class="st12" d="M1461.3,645.6c-0.9,2.2-3.2,3.4-5,2.7s-2.6-3.2-1.6-5.4s3.2-3.4,5-2.7
			S1462.3,643.4,1461.3,645.6"/>
	</g>
	<g id="multi-sided_die">
		<path id="Path_373" class="st0" d="M1325.6,573.7l-28.2-19.8l-27.6,20.7l11.2,32.6l34.5-0.6L1325.6,573.7z"/>
		<path id="Path_374" class="st0" d="M1269.8,574.6l-14.8-3.5l16.6-22.8l26.6-10.3l-0.8,15.9L1269.8,574.6z"/>
		<path id="Path_375" class="st1" d="M1315.5,606.6l11.2,13.2l-27.3,9.4l-26.1-7.3l7.8-14.7L1315.5,606.6z"/>
		<path id="Path_376" class="st9" d="M1255.8,598.5l-0.8-27.4l14.8,3.5l11.2,32.6l-7.8,14.7L1255.8,598.5z"/>
		<path id="Path_377" class="st9" d="M1298.2,537.9l-0.8,15.9l28.2,19.8l-10.1,33l11.2,13.2l14.8-23.4l0.1-29.4l-18.1-20.7
			L1298.2,537.9z"/>
	</g>
	<g id="blue_pawn">
		<path id="Path_389" class="st8" d="M1210.6,554.8c-4.9-3.6-11.8-2.5-15.4,2.4c-3.6,4.9-2.5,11.8,2.4,15.4
			c4.9,3.6,11.8,2.5,15.4-2.4c1.6-2.2,2.4-4.9,2.1-7.6c27.3-12.8,46,7.5,60.7-1l-16.7-29.2l-0.2-0.3l-16.7-29.1
			C1227.4,511.3,1235.4,537.7,1210.6,554.8"/>
		<path id="Path_390" class="st16" d="M1243,502.4c9.4-5.4,24.6,3.5,34,19.8c9.4,16.3,9.3,33.9-0.1,39.3s-24.6-3.5-34-19.8
			S1233.6,507.8,1243,502.4"/>
	</g>
</g>
</svg>
