<svg xmlns="http://www.w3.org/2000/svg" viewBox="0 0 608.01 49.11"><defs><style>.cls-1{fill:#081f2f;}.cls-2{fill:#0c3f6e;}</style></defs><title>Asset 1</title><g id="Layer_2" data-name="Layer 2"><g id="Layer_1-2" data-name="Layer 1"><path class="cls-1" d="M30.8,12.29,24.73,6.66,0,6.52v3L.44,43.39l21-.29,8.89-4.45,1.33-7.25ZM17.62,33.54l-6.51.23-.3-17.63,6.82.12,1.77,2.25.45,12.29Z"/><path class="cls-1" d="M63.53,7.85h-24L36.73,44l10.66-.29V34.8l8.74-.15.44,9,10.81-.15ZM47.24,27.1l1.19-8.59,5.77-.44,1.78,9Z"/><polygon class="cls-1" points="73.19 44.28 84.3 43.84 84.15 24.58 88.3 31.84 93.18 31.99 97.63 24.14 98.36 44.13 108.73 43.69 108.29 7.7 96.74 8 91.26 19.55 83.7 7.55 72.89 8 73.19 44.28"/><polygon class="cls-1" points="114.83 7.55 115.13 43.54 126.24 43.69 126.24 25.47 135.42 43.39 145.79 43.69 145.49 6.96 134.68 7.11 134.97 20.29 123.72 7.11 114.83 7.55"/><polygon class="cls-1" points="186.45 6.96 169.72 7.11 162.46 9.63 159.94 15.99 160.39 35.84 162.76 41.17 169.42 43.54 190.45 43.24 190.01 23.99 176.97 24.14 176.83 32.14 179.34 32.28 179.49 34.36 172.68 33.91 170.9 32.58 171.35 17.48 172.83 16.73 186.9 16.29 186.45 6.96"/><polygon class="cls-2" points="323.41 6.96 306.68 7.11 299.42 9.63 296.9 15.99 297.35 35.84 299.72 41.17 306.38 43.54 327.41 43.24 326.97 23.99 313.93 24.14 313.79 32.14 316.3 32.28 316.45 34.36 309.64 33.91 307.86 32.58 308.31 17.48 309.79 16.73 323.86 16.29 323.41 6.96"/><path class="cls-1" d="M286,15l-6.51-8.15-24.59.74.3,35.84,23.7-.15,5.48-3.4,1.77-5.33ZM274,32.8l-1.78.89H266l-.3-17.62h5.78l1.93.74.88,1.63.45,12.29Z"/><path class="cls-2" d="M359.73,7.26h-24l-2.81,36.13,10.66-.29V34.21l8.74-.15.45,9L363.58,43Zm-17,19.25,1.19-8.59,5.77-.44,1.78,9Z"/><polygon class="cls-2" points="367.18 43.1 378.28 42.65 378.13 23.4 382.28 30.66 387.17 30.8 391.61 22.95 392.35 42.95 402.72 42.5 402.27 6.52 390.72 6.81 385.24 18.36 377.69 6.37 366.88 6.81 367.18 43.1"/><polygon class="cls-2" points="433.89 7.26 408.13 7.26 408.13 41.76 434.19 42.21 434.04 33.03 418.94 33.03 419.23 29.03 429.89 28.14 429.6 20.29 418.94 19.99 418.94 16.29 434.19 15.7 433.89 7.26"/><polygon class="cls-2" points="443.55 7.41 472.28 7.26 472.87 16.59 463.84 16.59 464.28 42.45 452.44 42.74 452.05 16.97 443.85 16.59 443.55 7.41"/><path class="cls-2" d="M507.38,9.77l-4.3-1.92-23.84.44-1.78,3-.15,29.61,2.37,2.67,25.92-.44,2.52-3ZM488,33.62V16.14h8.29L497,33.62Z"/><path class="cls-2" d="M540.73,8.16,516.18,8l-2.59,2.9V40.28L516.2,43,541,42.73l1.85-2.92L543,10.88Zm-8.4,25.63-9-.2.36-16.81,9,.22Z"/><polygon class="cls-2" points="548.88 7.59 549.48 42.69 577.32 42.54 577.61 31.11 560.43 31.88 559.99 7.59 548.88 7.59"/><polygon class="cls-2" points="605.94 8 606.23 18.1 593.05 16.59 591.72 18.96 594.09 19.77 607.03 22.33 608.01 38.51 601.79 42.21 581.35 42.5 581.2 31.09 596.9 33.03 596.75 30.21 585.94 28.73 581.35 24.44 581.2 11.7 586.98 7.55 605.94 8"/><path class="cls-1" d="M216.81,0,190.45,4.89l7.55,40,26.81-4.59Zm-6.25,24.77-.89,6.66-4-5.66-7.55-1.11,6-4.11,1.34-7.89,3.88,6.44,7.11,1.56Z"/><path class="cls-1" d="M225.13,4.8l-5,40.46,27,3.85L252,7.46ZM238.34,29l-3.86,7-1.26-7.64-6.49-3.53,6.78-1.55,3.81-7,1.45,7.39,6.59,3.39Z"/></g></g></svg>