<svg xmlns="http://www.w3.org/2000/svg" viewBox="0 0 364.44 156.65"><defs><style>.cls-1,.cls-2{isolation:isolate;}.cls-2{font-size:121.48px;fill:#75964b;font-family:BebasNeue-Regular, Bebas Neue;}.cls-3{fill:#081f2f;}</style></defs><title>Asset 26</title><g id="Layer_2" data-name="Layer 2"><g id="Layer_1-2" data-name="Layer 1"><g id="WINDMILL" class="cls-1"><text class="cls-2" transform="translate(0 132.36)">WINDMILL</text></g><path class="cls-3" d="M81.37,4.52,76.81.29,58.2.18V2.4l.33,25.52,15.82-.22L81,24.36l1-5.46Zm-9.91,16-4.91.17L66.33,7.42l5.13.08,1.33,1.7.34,9.25Z"/><path class="cls-3" d="M106,1.18H88L85.83,28.37l8-.22V21.46l6.57-.11.33,6.8L108.9,28ZM93.74,15.66l.9-6.46L99,8.87l1.34,6.79Z"/><polygon class="cls-3" points="113.27 28.59 121.63 28.26 121.51 13.77 124.63 19.23 128.31 19.34 131.65 13.44 132.21 28.48 140.01 28.14 139.68 1.07 130.99 1.29 126.86 9.98 121.18 0.95 113.04 1.29 113.27 28.59"/><polygon class="cls-3" points="144.6 0.95 144.83 28.03 153.18 28.14 153.18 14.44 160.09 27.92 167.89 28.14 167.67 0.51 159.53 0.62 159.76 10.54 151.29 0.62 144.6 0.95"/><polygon class="cls-3" points="198.49 0.51 185.9 0.62 180.44 2.52 178.55 7.31 178.88 22.24 180.66 26.25 185.68 28.03 201.5 27.81 201.17 13.32 191.36 13.44 191.25 19.45 193.14 19.57 193.25 21.13 188.13 20.79 186.79 19.79 187.13 8.42 188.24 7.86 198.83 7.53 198.49 0.51"/><path class="cls-3" d="M283.62,6.13,278.71,0l-18.5.56.23,27,17.83-.11,4.12-2.56,1.34-4Zm-9,13.43-1.34.67h-4.68L268.35,7h4.35l1.44.56.67,1.23.34,9.25Z"/><path class="cls-3" d="M228.58,2.27,225.35.82l-17.94.33-1.34,2.23L206,25.67l1.78,2,19.5-.33,1.9-2.23ZM214,20.21V7.06h6.24l.56,13.15Z"/><path class="cls-3" d="M253.68,1.05,235.2.93l-1.94,2.18V25.22l2,2,18.68-.17,1.39-2.19.12-21.77Zm-6.33,19.29-6.75-.15.27-12.65,6.8.16Z"/></g></g></svg>