<svg xmlns="http://www.w3.org/2000/svg" xmlns:xlink="http://www.w3.org/1999/xlink" viewBox="0 0 193.89 235.53"><defs><style>.cls-1{fill:none;}.cls-2{isolation:isolate;}.cls-3{fill:#cbcbcb;}.cls-4{fill:#fff;}.cls-5{clip-path:url(#clip-path);}.cls-6{fill:#868686;}.cls-7{fill:#353535;}.cls-8{opacity:0.25;mix-blend-mode:multiply;fill:url(#linear-gradient);}.cls-9{fill:#606060;}.cls-10{fill:#62b0e2;}</style><clipPath id="clip-path" transform="translate(-0.41)"><path class="cls-1" d="M64.76,181.53l60.31-15.79,28.74-60.31s-12.14-88.64-13.35-88.64S57.73,39.38,57.73,39.38L0,63.74l53,115Z"/></clipPath><linearGradient id="linear-gradient" x1="93.33" y1="254.94" x2="77.23" y2="-38.11" gradientUnits="userSpaceOnUse"><stop offset="0" stop-color="#fff"/><stop offset="1"/></linearGradient></defs><title>Asset 6</title><g class="cls-2"><g id="Layer_2" data-name="Layer 2"><g id="Layer_1-2" data-name="Layer 1"><rect class="cls-3" x="19.67" y="11.25" width="117.07" height="178.04" transform="translate(-21.77 21.17) rotate(-13.58)"/><polygon class="cls-4" points="107.91 59.23 40.07 73.23 34.84 49.14 75.62 40.83 104.93 47.56 107.91 59.23"/><polygon class="cls-4" points="57.32 39.38 84.6 176.67 105.85 170.98 72.78 35.53 57.32 39.38"/><g class="cls-5"><polygon class="cls-6" points="109.63 87.33 107.5 78.83 81.16 76.11 79.81 76.45 78.85 72.36 64.57 76.46 65.22 80.11 43.6 85.54 47.14 103.17 68.35 97.79 82.42 177.12 102.06 171.18 83.89 93.85 109.63 87.33"/></g><path class="cls-7" d="M126.39,147,22.26,195.76h0a13,13,0,0,1,6.2-11.67l85.22-52.22Z" transform="translate(-0.41)"/><polygon class="cls-3" points="118.92 66.69 116.87 56.31 88.17 52.25 86.68 52.63 85.76 47.64 70.03 52.22 70.62 56.67 46.84 62.65 50.14 84.14 73.49 78.22 83.88 177.42 106.77 173.25 90.6 73.88 118.92 66.69"/><polygon class="cls-8" points="118.92 66.69 116.87 56.31 88.17 52.25 86.68 52.63 85.76 47.64 70.03 52.22 70.62 56.67 46.84 62.65 50.14 84.14 73.49 78.22 83.88 177.42 106.77 173.25 90.6 73.88 118.92 66.69"/><path class="cls-9" d="M117.05,133.36,64.21,235.49h0a13,13,0,0,0,11.91-5.74l55.54-83.09Z" transform="translate(-0.41)"/><path class="cls-10" d="M132.93,151.69c18.27,5.27,36.26-1.25,36.26-1.25,26.41-10.89,27.25-30.44,23.46-44.72a14.09,14.09,0,0,0-21.57-7.91l-42,28.71C119.24,133.21,121.53,148.4,132.93,151.69Zm5.11-10.5a3.86,3.86,0,0,1-.24-6.53l39.92-27.26a3.89,3.89,0,0,1,3.94-.25,3.54,3.54,0,0,1,1.89,2.32c3.95,14.85-1.27,24.72-16.43,31.05-1.52.51-15.14,4.76-28.37.95A5,5,0,0,1,138,141.19Z" transform="translate(-0.41)"/><path class="cls-10" d="M135,130.53,157,84.6a14.08,14.08,0,0,0-11.12-20.1c-14.68-1.58-33.88,2.24-40.6,30,0,0-3.7,18.77,4.3,36C114.54,141.29,129.9,141.24,135,130.53Zm-15.49-6.26a3.67,3.67,0,0,1-.39-.67c-5.8-12.51-3.66-26.62-3.4-28.19,3.94-15.94,12.9-22.61,28.18-21a3.59,3.59,0,0,1,2.58,1.5,3.9,3.9,0,0,1,.35,4L126,123.5a3.86,3.86,0,0,1-6.48.77Z" transform="translate(-0.41)"/><path class="cls-10" d="M139.31,153.1s-23-3.15-31.12-26.1l21.66,5.11Z" transform="translate(-0.41)"/></g></g></g></svg>