<svg xmlns="http://www.w3.org/2000/svg" xmlns:xlink="http://www.w3.org/1999/xlink" viewBox="0 0 242.02 189.57"><defs><style>.cls-1,.cls-4{fill:none;}.cls-2{fill:#868686;}.cls-3{fill:#081f2f;}.cls-4{stroke:#e9e6df;stroke-miterlimit:10;stroke-width:1.34px;}.cls-5{clip-path:url(#clip-path);}.cls-6{fill:#e9e6df;}.cls-7{fill:#75964b;}</style><clipPath id="clip-path"><rect class="cls-1" x="9.66" y="10.81" width="223.16" height="131.05"/></clipPath></defs><title>Asset 18</title><g id="Layer_2" data-name="Layer 2"><g id="Layer_1-2" data-name="Layer 1"><rect class="cls-2" width="242.02" height="150.61"/><rect class="cls-2" x="73.43" y="181.33" width="95.16" height="8.24"/><path class="cls-2" d="M129.63,138.62l-8.24-.69v-.06l-.38,0-.37,0v.06l-8.25.69s6,36-19.48,44.21h56.2C123.63,174.59,129.63,138.62,129.63,138.62Z"/><rect class="cls-3" x="9.37" y="9.37" width="223.29" height="131.88"/><polyline class="cls-4" points="91.62 59.54 100.81 52.12 110.2 59.61"/><polyline class="cls-4" points="133.75 59.54 142.95 52.12 152.34 59.61"/><polyline class="cls-4" points="66.29 89.97 66.29 74.93 56.55 74.93 56.55 57.7 66.11 57.7 66.11 44.61 74.93 44.61 74.93 33.37 84.67 33.37 84.67 23.23 158.85 23.23 158.85 33.37 167.49 33.37 167.49 44.26 176.31 44.26 176.31 57.22 186.8 57.22 186.8 74.68 175.96 74.68 175.96 90.14"/><polyline class="cls-4" points="48.95 99.03 48.95 90.66 41.59 90.66 41.59 81.67 34.09 81.67 34.09 73.06 25.1 73.06 25.1 37.47 31.1 37.47 31.1 28.85 37.09 28.85 37.09 20.61 44.58 20.61 44.58 8.99"/><polyline class="cls-4" points="192.7 99.03 192.7 90.66 200.06 90.66 200.06 81.67 207.55 81.67 207.55 73.06 216.54 73.06 216.54 37.47 210.55 37.47 210.55 28.85 204.56 28.85 204.56 20.61 197.06 20.61 197.06 8.99"/><polyline class="cls-4" points="121.24 61.07 121.24 68.19 114.49 68.19 114.49 74.93"/><g class="cls-5"><rect class="cls-6" x="60.16" y="85.64" width="53.09" height="80.74" rx="7.15" transform="translate(-46.84 51.44) rotate(-26.29)"/><rect class="cls-7" x="65.56" y="91.62" width="42.65" height="70.07" transform="translate(219.39 204.32) rotate(154.82)"/><polygon class="cls-6" points="75.37 133.6 82.2 126.64 80.95 116.81 88.6 123.95 97.7 123.08 91.06 130.18 92.64 140.24 84.92 133.08 75.37 133.6"/><rect class="cls-6" x="95.12" y="75.44" width="53.09" height="80.74" rx="7.15" transform="translate(241.06 233.97) rotate(-178.89)"/><rect class="cls-7" x="100.45" y="81.44" width="42.65" height="70.07"/><polygon class="cls-6" points="126.29 121.45 122.35 131.22 119.49 121.44 110.47 117.84 119.08 114.76 122.96 105.04 126.01 114.47 135.15 117.86 126.29 121.45"/><rect class="cls-6" x="131.05" y="85.53" width="53.09" height="80.74" rx="7.15" transform="translate(243.12 308.57) rotate(-153.71)"/><rect class="cls-7" x="136.08" y="91.51" width="42.65" height="70.07" transform="translate(68.79 -54.94) rotate(25.18)"/><polygon class="cls-6" points="159.37 132.97 151.66 140.13 153.23 130.07 146.59 122.97 155.69 123.84 163.34 116.7 162.09 126.53 168.93 133.49 159.37 132.97"/></g></g></g></svg>