<svg xmlns="http://www.w3.org/2000/svg" viewBox="0 0 233.18 158.16"><defs><style>.cls-1,.cls-2{isolation:isolate;}.cls-2{font-size:122.66px;fill:#62b0e2;font-family:BebasNeue-Regular, Bebas Neue;}.cls-3{fill:#081f2f;}</style></defs><title>Asset 24</title><g id="Layer_2" data-name="Layer 2"><g id="Layer_1-2" data-name="Layer 1"><g id="FORGE" class="cls-1"><text class="cls-2" transform="translate(0 133.63)">FORGE</text></g><path class="cls-3" d="M28.12,4.52,23.55.29,4.94.18V2.4l.34,25.52L21.1,27.7l6.69-3.34,1-5.46Zm-9.92,16-4.9.17L13.08,7.42l5.13.08,1.33,1.7.33,9.25Z"/><path class="cls-3" d="M52.75,1.18h-18L32.58,28.37l8-.22V21.46l6.58-.11.33,6.8L55.65,28ZM40.49,15.66l.89-6.46,4.35-.33,1.33,6.79Z"/><polygon class="cls-3" points="60.01 28.59 68.37 28.26 68.26 13.77 71.38 19.23 75.06 19.34 78.4 13.44 78.96 28.48 86.76 28.14 86.42 1.07 77.73 1.29 73.61 9.98 67.92 0.95 59.79 1.29 60.01 28.59"/><polygon class="cls-3" points="91.35 0.95 91.57 28.03 99.93 28.14 99.93 14.44 106.84 27.92 114.64 28.14 114.42 0.51 106.28 0.62 106.5 10.54 98.03 0.62 91.35 0.95"/><polygon class="cls-3" points="145.24 0.51 132.65 0.62 127.19 2.52 125.29 7.31 125.63 22.24 127.41 26.25 132.42 28.03 148.25 27.81 147.91 13.32 138.11 13.44 138 19.45 139.89 19.57 140 21.13 134.88 20.79 133.54 19.79 133.87 8.42 134.99 7.86 145.57 7.53 145.24 0.51"/><path class="cls-3" d="M230.36,6.13,225.46,0,207,.56l.22,27L225,27.41l4.13-2.56,1.33-4Zm-9,13.43-1.34.67h-4.68L215.09,7h4.35l1.45.56.67,1.23.33,9.25Z"/><path class="cls-3" d="M175.33,2.27,172.1.82l-17.95.33-1.33,2.23-.11,22.29,1.78,2,19.5-.33,1.89-2.23Zm-14.6,17.94V7.06H167l.56,13.15Z"/><path class="cls-3" d="M200.43,1.05,182,.93,180,3.11V25.22l2,2,18.67-.17L202,24.87l.13-21.77ZM194.1,20.34l-6.75-.15.27-12.65,6.79.16Z"/></g></g></svg>