<svg xmlns="http://www.w3.org/2000/svg" viewBox="0 0 225.53 132"><defs><style>.cls-1{fill:#f16b25;}.cls-2{fill:#081f2f;}</style></defs><title>Asset 25</title><g id="Layer_2" data-name="Layer 2"><g id="Layer_1-2" data-name="Layer 1"><path id="Path_152" data-name="Path 152" class="cls-1" d="M43.19,130.51H23v-83H43.19c12,0,19,7.47,19,19.81v43.88c0,12.46-7,19.32-19,19.32m5.73-63.33c0-5.23-2-7.85-6.6-7.85H36.21v59.46h6.11c4.61,0,6.6-2.74,6.6-7.85Z"/><path id="Path_153" data-name="Path 153" class="cls-1" d="M89.68,132c-12,0-19.81-8.1-19.81-19.69V65.68C69.87,54.21,77.72,46,89.68,46s19.82,8.22,19.82,19.69v46.63c0,11.59-7.85,19.69-19.82,19.69m6.49-67.31c0-4-2.37-6.73-6.49-6.73S83.2,60.7,83.2,64.69v48.62c0,4,2.37,6.73,6.48,6.73s6.49-2.75,6.49-6.73Z"/><path id="Path_154" data-name="Path 154" class="cls-1" d="M134.06,132c-11.47,0-18.7-7.35-18.7-18.69V97.47H128v16.08c0,4.25,2.13,6.49,5.86,6.49s5.74-2.24,5.74-6.49V47.49h13.21v65.32c0,11.46-7,19.19-18.7,19.19"/><path id="Path_155" data-name="Path 155" class="cls-1" d="M180.68,132c-12,0-19.81-8.1-19.81-19.69V65.68c0-11.47,7.85-19.69,19.81-19.69s19.82,8.22,19.82,19.69v46.63c0,11.59-7.85,19.69-19.82,19.69m6.49-67.31c0-4-2.37-6.73-6.49-6.73s-6.48,2.74-6.48,6.73v48.62c0,4,2.37,6.73,6.48,6.73s6.49-2.75,6.49-6.73Z"/><path class="cls-2" d="M23.18,4.52,18.61.29,0,.18V2.4L.33,27.92l15.83-.22,6.68-3.34,1-5.46Zm-9.92,16-4.9.17L8.13,7.42l5.13.08L14.6,9.2l.33,9.25Z"/><path class="cls-2" d="M47.81,1.18H29.75L27.64,28.37l8-.22V21.46l6.57-.11.34,6.8L50.7,28ZM35.55,15.66l.89-6.46,4.34-.33,1.34,6.79Z"/><polygon class="cls-2" points="55.07 28.59 63.43 28.26 63.32 13.77 66.44 19.23 70.11 19.34 73.46 13.44 74.01 28.48 81.81 28.14 81.48 1.07 72.79 1.29 68.67 9.98 62.98 0.95 54.85 1.29 55.07 28.59"/><polygon class="cls-2" points="86.41 0.95 86.63 28.03 94.99 28.14 94.99 14.44 101.9 27.92 109.7 28.14 109.47 0.51 101.34 0.62 101.56 10.54 93.09 0.62 86.41 0.95"/><polygon class="cls-2" points="140.3 0.51 127.7 0.62 122.24 2.52 120.35 7.31 120.68 22.24 122.47 26.25 127.48 28.03 143.31 27.81 142.97 13.32 133.16 13.44 133.05 19.45 134.95 19.57 135.06 21.13 129.93 20.79 128.59 19.79 128.93 8.42 130.04 7.86 140.63 7.53 140.3 0.51"/><path class="cls-2" d="M225.42,6.13,220.52,0,202,.56l.22,27,17.83-.11,4.12-2.56,1.34-4Zm-9,13.43-1.33.67h-4.68L210.15,7h4.35l1.45.56.67,1.23L217,18Z"/><path class="cls-2" d="M170.38,2.27,167.15.82l-17.94.33-1.33,2.23-.12,22.29,1.79,2,19.5-.33,1.89-2.23ZM155.79,20.21V7.06H162l.55,13.15Z"/><path class="cls-2" d="M195.48,1.05,177,.93l-1.94,2.18V25.22l2,2,18.67-.17,1.39-2.19.13-21.77Zm-6.32,19.29-6.75-.15.26-12.65,6.8.16Z"/></g></g></svg>