<svg xmlns="http://www.w3.org/2000/svg" viewBox="0 0 203.46 231.58"><defs><style>.cls-1{fill:#f23c3c;}.cls-2{fill:#ff931d;}.cls-3{fill:#f16b25;}</style></defs><title>Asset 7</title><g id="Layer_2" data-name="Layer 2"><g id="Layer_1-2" data-name="Layer 1"><polygon class="cls-1" points="101.01 231.58 107.13 229.07 107.48 156.23 101.36 158.74 101.01 231.58"/><polygon class="cls-2" points="101.42 231.58 95.33 229.01 95.68 156.17 101.77 158.74 101.42 231.58"/><polygon class="cls-1" points="5.68 187.98 11.8 185.47 12.15 112.63 6.04 115.14 5.68 187.98"/><polygon class="cls-2" points="6.09 187.98 0 185.41 0.35 112.57 6.45 115.14 6.09 187.98"/><polygon class="cls-1" points="196.94 189.82 203.06 187.31 203.41 114.47 197.29 116.97 196.94 189.82"/><polygon class="cls-2" points="197.35 189.82 191.25 187.25 191.61 114.41 197.7 116.98 197.35 189.82"/><polygon class="cls-3" points="101.81 152.61 203.46 108.24 102.23 65.93 0.59 107.25 101.81 152.61"/><polygon class="cls-1" points="203.46 108.24 203.43 114.65 101.67 158.91 101.81 152.61 203.46 108.24"/><polygon class="cls-2" points="0.59 107.25 101.81 152.61 101.67 158.91 0.16 113.22 0.59 107.25"/><path class="cls-1" d="M118.92,113.17l-2.36,11.53a2.85,2.85,0,0,1-4,2L85,113.26l-35-3.82,4.76,21.43,47.12,21.74,79.11-34-27-9.53Z"/><path id="Path_352" data-name="Path 352" class="cls-2" d="M151.2,113.09l-32.28.08a49.41,49.41,0,0,1-5-5.51c-3.12-4.57-5.81-9.43-8.94-14-2.33-3.41-3.82-3.41-6.14,0-3.06,4.5-5.68,9.29-8.73,13.8A55.28,55.28,0,0,1,85,113.26l-32.27.07a4.71,4.71,0,0,1-2.42-5.43c.19-1.11.3-2.24.57-3.33,2-8.54,6.48-16,10.59-23.63,2.73-5,5.56-10.06,8-15.26,1.94-4.19.74-5.85-3.92-6.23a116.88,116.88,0,0,1-11.82-.92c-8-1.48-11.29-9.75-6.21-16.14a29.34,29.34,0,0,1,9.91-8.1c7.53-3.6,15.46-6.36,23.29-9.3a3.84,3.84,0,0,0,3.06-4,39,39,0,0,1,1.68-9.69C87.78,3.83,93.56,0,101.75,0S115.64,3.86,118,11.42a37.12,37.12,0,0,1,1.67,9.4c.11,2.46,1.1,3.35,3.23,4.12,7.42,2.67,14.88,5.31,22.12,8.45,5.76,2.5,10.66,6.3,13.34,12.32,0,1.7,0,3.39,0,5.1-1.89,5.94-6.41,7.87-12.14,8-2.82.08-5.65.22-8.46.47-4.27.39-5.27,2-3.66,6a64.33,64.33,0,0,0,3.17,6.59c3.7,6.88,7.76,13.57,11.1,20.61a108,108,0,0,1,5.08,14.86,4.58,4.58,0,0,1-2.3,5.71"/><rect class="cls-1" x="84.26" y="5.05" width="35.72" height="6.55"/><path class="cls-1" d="M118.06,9.3s-.49,11,9.44,13C127.5,22.33,130.71,12.71,118.06,9.3Z"/><path class="cls-1" d="M118,10.9S128.55,14.08,133,5C133,5,124.46-.52,118,10.9Z"/></g></g></svg>