<svg xmlns="http://www.w3.org/2000/svg" viewBox="0 0 611.37 257.1"><defs><style>.cls-1,.cls-2,.cls-3,.cls-4,.cls-5,.cls-6{isolation:isolate;}.cls-2,.cls-3,.cls-4,.cls-5,.cls-6{font-size:64.03px;font-family:BebasNeue-Regular, Bebas Neue;}.cls-2,.cls-3,.cls-4,.cls-5,.cls-6,.cls-7{fill:#dcdcdc;}.cls-3{letter-spacing:0em;}.cls-4{letter-spacing:-0.01em;}.cls-5{letter-spacing:-0.02em;}.cls-6{letter-spacing:0em;}</style></defs><title>Asset 9</title><g id="Layer_2" data-name="Layer 2"><g id="Layer_1-2" data-name="Layer 1"><g id="DESIGN_YOUR_TABLETOP_GAME" data-name="DESIGN YOUR TABLETOP GAME" class="cls-1"><text class="cls-2" transform="translate(0.62 54.42)">D</text><text class="cls-3" transform="translate(26.62 54.42)">E</text><text class="cls-2" transform="translate(49.8 54.42)">SIGN </text><text class="cls-4" transform="translate(148.52 54.42)">Y</text><text class="cls-2" transform="translate(173.11 54.42)">OUR </text><text class="cls-5" transform="translate(260.51 54.42)">T</text><text class="cls-2" transform="translate(282.27 54.42)">ABLE</text><text class="cls-6" transform="translate(379.08 54.42)">T</text><text class="cls-2" transform="translate(402.07 54.42)">OP GAME</text></g><polygon class="cls-7" points="254.3 180.87 193.21 181.19 193.84 200.71 211.29 201.53 212.11 256.32 237.3 255.69 236.35 200.71 255.56 200.71 254.3 180.87"/><polygon class="cls-7" points="279.77 102.97 280.64 79.64 216.57 79.96 217.21 103.82 235.5 103.79 236.32 156.37 261.51 155.74 260.56 102.97 279.77 102.97"/><polygon class="cls-7" points="346.96 135.87 312.67 134.96 312.67 126.64 336.64 127.24 337.31 106.2 313.34 106.33 312.67 99.04 345.36 99.04 345.69 78.4 288.37 79.39 288.37 156.97 346.3 156.97 346.96 135.87"/><polygon class="cls-7" points="323.74 177.72 265.15 178.71 265.15 256.29 323.08 256.29 323.74 237.31 289.45 235.98 289.45 227.65 313.42 226.99 314.09 209.34 290.12 207.35 289.45 198.36 323.41 198.36 323.74 177.72"/><path class="cls-7" d="M64,180.6l-6,76.5,22.57-.62V237.66l18.5-.31.94,19.13,22.89-.32-8.16-75.56Zm16.3,40.76,2.5-18.18L95,202.24l3.76,19.12Z"/><polygon class="cls-7" points="56.03 200.86 55.4 182.82 0.34 182.82 0.34 256.55 23.44 256 24.07 229.34 46.86 227.44 46.22 210.66 23.44 210.03 23.44 202.12 56.03 200.86"/><polygon class="cls-7" points="158.89 207.82 153.87 206.09 156.69 201.07 184.62 204.28 184 182.87 143.83 181.93 131.59 190.72 131.9 217.71 141.63 226.81 164.54 229.95 164.85 235.91 131.59 231.8 131.9 256 175.21 255.37 188.39 247.52 186.32 213.25 158.89 207.82"/><path class="cls-7" d="M384.49,157.22l-.34-19.86h3.2l12.71,20.43,21.6-3.88-11.39-16.64h9V78.2H402.47v-.08H357.38l3,79.77Zm13.42-58.13v17.3H383.79l-.3-17.3Z"/><path class="cls-7" d="M463.91,93l-4.2,54,15.93-.44V133.31l13.05-.22.66,13.49,16.16-.22L499.75,93Zm11.51,28.76L477.19,109l8.62-.66,2.66,13.49Z"/><polygon class="cls-7" points="209.98 99.87 208.72 80.03 147.63 80.34 148.26 99.87 165.7 100.69 166.52 158.88 191.71 158.25 190.77 99.87 209.98 99.87"/><polygon class="cls-7" points="139.29 138.54 105 137.21 105 128.89 128.97 128.22 129.63 110.58 105.66 108.58 105 99.59 138.96 99.59 139.29 78.95 80.69 79.95 80.69 157.52 138.62 157.52 139.29 138.54"/><path class="cls-7" d="M48.27,160.72l20-10,3-16.31-.18-9.95-9.84-3.78,9.28-6.09L69.25,91.47,55.6,78.82,0,78.48v6.66l1,76.24Zm-8.65-21.48-14.65.5-.24-14.22L44.5,127l.11,6Zm0-38.86,4,5.07v7.46l-19.06,1.71-.25-14.5Z"/><path class="cls-7" d="M400.55,236.07V177H383.78v-.08H336.14l3,79.77,26.63-.67-.34-19.86h3.21l12.71,20.43L403,252.71l-11.38-16.64Zm-21.33-20.88H365.09l-.3-17.3h14.43Z"/><path class="cls-7" d="M610.07,100.34l-8.92-8.26-36.34-.22v4.35l.66,49.82,30.89-.43,13-6.53,2-10.66ZM590.7,131.56l-9.57.33L580.69,106l10,.17,2.6,3.31.66,18.06Z"/><polygon class="cls-7" points="512.23 93.46 512.66 146.33 528.98 146.55 528.98 119.79 542.47 146.11 557.7 146.55 557.26 92.59 541.38 92.81 541.81 112.17 525.28 92.81 512.23 93.46"/></g></g></svg>