<svg xmlns="http://www.w3.org/2000/svg" viewBox="0 0 561.37 356.67"><defs><style>.cls-1{fill:#e9e6df;}.cls-2{fill:#f3f2f1;}.cls-3,.cls-4{isolation:isolate;}.cls-4{font-size:81.53px;font-family:BebasNeue-Regular, Bebas Neue;}.cls-4,.cls-7{fill:#081f2f;}.cls-5{letter-spacing:0em;}.cls-6{letter-spacing:-0.01em;}</style></defs><title>Asset 16</title><g id="Layer_2" data-name="Layer 2"><g id="Layer_1-2" data-name="Layer 1"><rect class="cls-1" x="54.84" y="54.9" width="506.53" height="301.76" rx="7.69"/><rect class="cls-2" x="38.94" y="36.99" width="506.53" height="301.76" rx="7.69"/><rect class="cls-1" x="19.61" y="19.67" width="506.53" height="301.76" rx="7.69"/><rect class="cls-2" width="506.53" height="301.76" rx="7.69"/><g id="WHY_WE_RE_DAMN_GOOD_" data-name="WHY WE RE DAMN GOOD " class="cls-3"><text class="cls-4" transform="translate(89.35 139.14)">WHY WE’RE<tspan class="cls-5" x="0" y="78.82">D</tspan><tspan x="32.94" y="78.82">AMN GOO</tspan><tspan class="cls-6" x="254.46" y="78.82">D</tspan><tspan x="287.07" y="78.82">…</tspan></text></g><path class="cls-7" d="M465.43,274.88h0a2.17,2.17,0,0,1-2.17-2.17h0a2.17,2.17,0,0,1,2.17-2.16h0a2.16,2.16,0,0,1,2.16,2.13h0A2.17,2.17,0,0,1,465.43,274.88Z"/><rect class="cls-7" x="446.02" y="270.55" width="4.31" height="4.33" rx="2.15"/><rect class="cls-7" x="428.78" y="270.55" width="4.31" height="4.33" rx="2.15"/><rect class="cls-7" x="411.55" y="270.55" width="4.31" height="4.33" rx="2.15"/><rect class="cls-7" x="394.31" y="270.55" width="4.31" height="4.33" rx="2.15"/><rect class="cls-7" x="377.08" y="270.55" width="4.31" height="4.33" rx="2.15"/><rect class="cls-7" x="359.84" y="270.55" width="4.31" height="4.33" rx="2.15"/><rect class="cls-7" x="342.61" y="270.55" width="4.31" height="4.33" rx="2.15"/><rect class="cls-7" x="325.37" y="270.55" width="4.31" height="4.33" rx="2.15"/><rect class="cls-7" x="308.14" y="270.55" width="4.31" height="4.33" rx="2.15"/><rect class="cls-7" x="290.9" y="270.55" width="4.31" height="4.33" rx="2.15"/><rect class="cls-7" x="273.67" y="270.55" width="4.31" height="4.33" rx="2.15"/><rect class="cls-7" x="256.43" y="270.55" width="4.31" height="4.33" rx="2.15"/><rect class="cls-7" x="239.2" y="270.55" width="4.31" height="4.33" rx="2.15"/><rect class="cls-7" x="221.96" y="270.55" width="4.31" height="4.33" rx="2.15"/><rect class="cls-7" x="204.72" y="270.55" width="4.31" height="4.33" rx="2.15"/><rect class="cls-7" x="187.49" y="270.55" width="4.31" height="4.33" rx="2.15"/><rect class="cls-7" x="170.25" y="270.55" width="4.31" height="4.33" rx="2.15"/><rect class="cls-7" x="153.02" y="270.55" width="4.31" height="4.33" rx="2.15"/><rect class="cls-7" x="135.78" y="270.55" width="4.31" height="4.33" rx="2.15"/><rect class="cls-7" x="118.55" y="270.55" width="4.31" height="4.33" rx="2.15"/><rect class="cls-7" x="101.31" y="270.55" width="4.31" height="4.33" rx="2.15"/><rect class="cls-7" x="84.08" y="270.55" width="4.31" height="4.33" rx="2.15"/><rect class="cls-7" x="66.84" y="270.55" width="4.31" height="4.33" rx="2.15"/><rect class="cls-7" x="49.61" y="270.55" width="4.31" height="4.33" rx="2.15"/><rect class="cls-7" x="33.58" y="269.1" width="4.31" height="4.33" rx="2.15"/><rect class="cls-7" x="471.97" y="259.17" width="4.33" height="4.31" rx="2.15"/><rect class="cls-7" x="28.19" y="254.68" width="4.33" height="4.31" rx="2.15"/><rect class="cls-7" x="471.97" y="241.94" width="4.33" height="4.31" rx="2.15"/><rect class="cls-7" x="28.19" y="237.44" width="4.33" height="4.31" rx="2.15"/><rect class="cls-7" x="471.97" y="224.7" width="4.33" height="4.31" rx="2.15"/><rect class="cls-7" x="28.19" y="220.21" width="4.33" height="4.31" rx="2.15"/><rect class="cls-7" x="471.97" y="207.47" width="4.33" height="4.31" rx="2.15"/><rect class="cls-7" x="28.19" y="202.97" width="4.33" height="4.31" rx="2.15"/><rect class="cls-7" x="471.97" y="190.23" width="4.33" height="4.31" rx="2.15"/><rect class="cls-7" x="28.19" y="185.74" width="4.33" height="4.31" rx="2.15"/><rect class="cls-7" x="471.97" y="173" width="4.33" height="4.31" rx="2.15"/><rect class="cls-7" x="28.19" y="168.5" width="4.33" height="4.31" rx="2.15"/><rect class="cls-7" x="471.97" y="155.76" width="4.33" height="4.31" rx="2.15"/><rect class="cls-7" x="28.19" y="151.27" width="4.33" height="4.31" rx="2.15"/><rect class="cls-7" x="471.97" y="138.53" width="4.33" height="4.31" rx="2.15"/><rect class="cls-7" x="28.19" y="134.03" width="4.33" height="4.31" rx="2.15"/><rect class="cls-7" x="471.97" y="121.29" width="4.33" height="4.31" rx="2.15"/><rect class="cls-7" x="28.19" y="116.8" width="4.33" height="4.31" rx="2.15"/><rect class="cls-7" x="471.97" y="104.06" width="4.33" height="4.31" rx="2.15"/><rect class="cls-7" x="28.19" y="99.56" width="4.33" height="4.31" rx="2.15"/><rect class="cls-7" x="471.97" y="86.82" width="4.33" height="4.31" rx="2.15"/><rect class="cls-7" x="28.19" y="82.33" width="4.33" height="4.31" rx="2.15"/><rect class="cls-7" x="471.97" y="69.59" width="4.33" height="4.31" rx="2.15"/><rect class="cls-7" x="28.19" y="65.09" width="4.33" height="4.31" rx="2.15"/><rect class="cls-7" x="471.97" y="52.35" width="4.33" height="4.31" rx="2.15"/><rect class="cls-7" x="28.19" y="47.86" width="4.33" height="4.31" rx="2.15"/><rect class="cls-7" x="30.37" y="31.98" width="4.33" height="4.31" rx="2.15"/><rect class="cls-7" x="459.16" y="27.87" width="4.31" height="4.33" rx="2.15"/><rect class="cls-7" x="441.93" y="27.87" width="4.31" height="4.33" rx="2.15"/><rect class="cls-7" x="424.69" y="27.87" width="4.31" height="4.33" rx="2.15"/><rect class="cls-7" x="407.46" y="27.87" width="4.31" height="4.33" rx="2.15"/><rect class="cls-7" x="390.22" y="27.87" width="4.31" height="4.33" rx="2.15"/><rect class="cls-7" x="372.99" y="27.87" width="4.31" height="4.33" rx="2.15"/><rect class="cls-7" x="355.75" y="27.87" width="4.31" height="4.33" rx="2.15"/><rect class="cls-7" x="338.52" y="27.87" width="4.31" height="4.33" rx="2.15"/><rect class="cls-7" x="321.28" y="27.87" width="4.31" height="4.33" rx="2.15"/><rect class="cls-7" x="304.05" y="27.87" width="4.31" height="4.33" rx="2.15"/><rect class="cls-7" x="286.81" y="27.87" width="4.31" height="4.33" rx="2.15"/><rect class="cls-7" x="269.58" y="27.87" width="4.31" height="4.33" rx="2.15"/><rect class="cls-7" x="252.34" y="27.87" width="4.31" height="4.33" rx="2.15"/><rect class="cls-7" x="235.11" y="27.87" width="4.31" height="4.33" rx="2.15"/><rect class="cls-7" x="217.87" y="27.87" width="4.31" height="4.33" rx="2.15"/><rect class="cls-7" x="200.64" y="27.87" width="4.31" height="4.33" rx="2.15"/><rect class="cls-7" x="183.4" y="27.87" width="4.31" height="4.33" rx="2.15"/><rect class="cls-7" x="166.16" y="27.87" width="4.31" height="4.33" rx="2.15"/><rect class="cls-7" x="148.93" y="27.87" width="4.31" height="4.33" rx="2.15"/><rect class="cls-7" x="131.69" y="27.87" width="4.31" height="4.33" rx="2.15"/><rect class="cls-7" x="114.46" y="27.87" width="4.31" height="4.33" rx="2.15"/><rect class="cls-7" x="97.22" y="27.87" width="4.31" height="4.33" rx="2.15"/><rect class="cls-7" x="79.99" y="27.87" width="4.31" height="4.33" rx="2.15"/><rect class="cls-7" x="62.75" y="27.87" width="4.31" height="4.33" rx="2.15"/><rect class="cls-7" x="45.52" y="27.87" width="4.31" height="4.33" rx="2.15"/><rect class="cls-7" x="470.2" y="37.07" width="4.33" height="4.31" rx="2.15"/></g></g></svg>