<svg xmlns="http://www.w3.org/2000/svg" xmlns:xlink="http://www.w3.org/1999/xlink" viewBox="0 0 1228.67 786.75"><defs><style>.cls-1,.cls-16,.cls-18{fill:none;}.cls-2{fill:#f4c32d;}.cls-3{clip-path:url(#clip-path);}.cls-4{fill:#f23c3c;}.cls-5{fill:#f16b25;}.cls-6{fill:#c83131;}.cls-7{fill:#0c3f6e;}.cls-8{fill:#ff931d;}.cls-9{fill:silver;}.cls-10{fill:#868686;}.cls-11{fill:#75964b;}.cls-12{fill:#fff;}.cls-13{fill:#081f2f;}.cls-14{fill:#015288;}.cls-15{fill:#62b0e2;}.cls-16{stroke:silver;}.cls-16,.cls-18{stroke-linecap:round;stroke-miterlimit:10;stroke-width:2.24px;}.cls-17{fill:#f3f2f1;}.cls-18{stroke:#f3f2f1;}</style><clipPath id="clip-path" transform="translate(71.9 -98.9)"><rect class="cls-1" width="1085.61" height="750.83"/></clipPath></defs><title>Asset 7</title><g id="Layer_2" data-name="Layer 2"><g id="Layer_1-2" data-name="Layer 1"><g id="Group_81" data-name="Group 81"><path id="Path_334" data-name="Path 334" class="cls-2" d="M438.3,293.18l262.54,87.18,8.62,91L606.82,508.59,367.35,423.44l91.29-41.72Z" transform="translate(71.9 -98.9)"/><g id="Group_80" data-name="Group 80"><g class="cls-3"><g id="Group_79" data-name="Group 79"><path id="Path_335" data-name="Path 335" class="cls-4" d="M709.48,469.37l10.18-3.18a19.12,19.12,0,0,0,15-21l-9.06-73.89a19.05,19.05,0,0,0-12.9-15.75L481.28,278.63a28.52,28.52,0,0,0-20.37.9L437.43,293.2l263,87.26Z" transform="translate(71.9 -98.9)"/><path id="Path_336" data-name="Path 336" class="cls-5" d="M458.63,381.72,438.3,293.18l262.54,87.18,9.34,89.3Z" transform="translate(71.9 -98.9)"/><path id="Path_338" data-name="Path 338" class="cls-6" d="M700.38,380.46l9.1,88.91,10.18-3.18a19.13,19.13,0,0,0,15-21l-9.06-73.89a19.05,19.05,0,0,0-12.9-15.75" transform="translate(71.9 -98.9)"/><path id="Path_339" data-name="Path 339" class="cls-7" d="M489.61,400.26a16,16,0,1,0-11.69-5.54c-21.93,37.84-61,29.25-71.61,51.58l44.09,20.9.51.24L495,488.34c10.59-22.33-20.81-47.16-5.4-88.08" transform="translate(71.9 -98.9)"/><path id="Path_340" data-name="Path 340" class="cls-4" d="M710.19,469.66v75.28a17.64,17.64,0,0,1-11.75,16.63l-83.68,29.67a28.51,28.51,0,0,1-19,0l-214.34-77a21.32,21.32,0,0,1-14.27-20.12V423.46l229.6,82a27.69,27.69,0,0,0,18.85-.23Z" transform="translate(71.9 -98.9)"/><path id="Path_341" data-name="Path 341" class="cls-6" d="M596.76,505.46a27.63,27.63,0,0,0,18.85-.22l94.58-35.58v75.28a17.64,17.64,0,0,1-11.75,16.63l-83.68,29.67a28.57,28.57,0,0,1-19,0" transform="translate(71.9 -98.9)"/><path id="Path_342" data-name="Path 342" class="cls-8" d="M492.21,437,250.45,577.78a148.4,148.4,0,0,0-68.69,89.88l-8.1,30.3a137.15,137.15,0,0,1-80.42,91.42L-71.9,857.13l206.15-22.19A137.12,137.12,0,0,0,256.68,696.16a148.38,148.38,0,0,1,57-119.57Z" transform="translate(71.9 -98.9)"/><path id="Path_343" data-name="Path 343" class="cls-8" d="M606.13,458.87,741.55,578.81A128.5,128.5,0,0,0,820.18,611l67.63,3.47a128.51,128.51,0,0,1,119.27,102.29l35,168.94L875.8,876.43l3.77-77.09A128.5,128.5,0,0,0,780.3,667.88a128.51,128.51,0,0,1-80.12-57.43Z" transform="translate(71.9 -98.9)"/><path id="Path_344" data-name="Path 344" class="cls-5" d="M606.2,460.23,755.34,562.6a128.5,128.5,0,0,0,82,22.23L904.87,580a128.51,128.51,0,0,1,130.94,86.85l55.49,163.37L925.17,841.46l-5.73-77A128.52,128.52,0,0,0,804.75,646.23a128.54,128.54,0,0,1-86.57-47.13Z" transform="translate(71.9 -98.9)"/><path id="Path_345" data-name="Path 345" class="cls-2" d="M598.45,419.64,694,346.8a296.39,296.39,0,0,1,168.06-60.42,296.37,296.37,0,0,0,222.37-114.22l57-73.26,15.37,227.15-.53.35a296.31,296.31,0,0,1-230.48,44.74L879.52,361a296.3,296.3,0,0,0-176.2,15.45Z" transform="translate(71.9 -98.9)"/><path id="Path_348" data-name="Path 348" class="cls-9" d="M656.48,655.54l27.75,30.69,43.57,1.23-26.69-28Z" transform="translate(71.9 -98.9)"/><path id="Path_349" data-name="Path 349" class="cls-9" d="M280.22,287.57l104.5,23.17a12.12,12.12,0,0,0-8-9.34l-88-30.14Z" transform="translate(71.9 -98.9)"/><path id="Path_350" data-name="Path 350" class="cls-10" d="M291.5,279.23,299,386a12.16,12.16,0,0,1-8.06-9.31L274.11,285.2Z" transform="translate(71.9 -98.9)"/><path id="Path_351" data-name="Path 351" class="cls-4" d="M247.8,297.26s16,1.62,29.81-6.44c.17-.1.33-.21.49-.32a52.29,52.29,0,0,0,15-12.73c.27-.28.54-.58.8-.9,10-12.5,10.68-28.57,10.68-28.57,0-24-14.89-31-27.2-32.59a11.83,11.83,0,0,0-13.08,14.21l8.06,38.39-37-13.55a11.84,11.84,0,0,0-15.22,7,11.71,11.71,0,0,0-.73,3.89c-.15,12.41,4.56,28.18,28.33,31.61m26.78-72.33a3,3,0,0,1,2.41-.71c12.8,1.7,18.79,8.92,18.84,22.73-.1,1.33-1.16,13.28-8.38,22.35a4,4,0,0,1-.45.47,3.26,3.26,0,0,1-4.55-.61,3.31,3.31,0,0,1-.59-1.31l-8.35-39.77a3.25,3.25,0,0,1,1.07-3.15m-46.93,41.9a3,3,0,0,1,1.07-2.28,3.28,3.28,0,0,1,3.26-.61l38.15,14a3.25,3.25,0,0,1,1.15,5.37,4.49,4.49,0,0,1-.52.37c-10,5.84-22,5.17-23.32,5.08-13.66-2-19.95-9-19.79-21.93" transform="translate(71.9 -98.9)"/><path id="Path_352" data-name="Path 352" class="cls-11" d="M812,527.88,791.36,531a32.32,32.32,0,0,1-3.76-3c-2.43-2.64-4.62-5.49-7.06-8.12-1.83-2-2.78-1.82-3.94.59-1.53,3.18-2.75,6.5-4.27,9.69a37.35,37.35,0,0,1-2.74,4.2l-20.68,3.14a3.06,3.06,0,0,1-2.07-3.25c0-.73,0-1.47,0-2.2.5-5.66,2.61-10.88,4.52-16.16,1.27-3.5,2.6-7,3.65-10.54.85-2.88-.08-3.82-3.11-3.62a75.22,75.22,0,0,1-7.66.54c-5.25-.18-8.17-5.16-5.53-9.75a19.07,19.07,0,0,1,5.58-6.14c4.48-3,9.3-5.56,14-8.19a2.5,2.5,0,0,0,1.58-2.83,25.16,25.16,0,0,1,.15-6.37c.81-5,4.14-8.06,9.39-8.84s9.28,1.14,11.54,5.76a23.73,23.73,0,0,1,2,5.87c.31,1.56,1,2,2.46,2.32,5,1,10,2,15,3.3,3.94,1.05,7.44,3,9.74,6.62.16,1.09.33,2.18.5,3.27-.64,4-3.35,5.66-7,6.31-1.8.32-3.6.68-5.37,1.11-2.7.66-3.19,1.77-1.78,4.2a43.78,43.78,0,0,0,2.67,3.93c3,4.05,6.28,7.95,9.09,12.14a71.6,71.6,0,0,1,4.68,9,3,3,0,0,1-.93,3.88" transform="translate(71.9 -98.9)"/><path id="Path_353" data-name="Path 353" class="cls-12" d="M684.38,686.37l-20.66,40.15-27.17-30.37,19.94-40.61Z" transform="translate(71.9 -98.9)"/><path id="Path_354" data-name="Path 354" class="cls-10" d="M684.37,686.1l-20.56,40.4,43.25,1.39,20.74-40.43Z" transform="translate(71.9 -98.9)"/><path id="Path_355" data-name="Path 355" class="cls-13" d="M677.31,664.89c-.53,1.3-2.92,1.57-5.33.59s-4-2.82-3.43-4.13,2.91-1.56,5.33-.58,4,2.82,3.43,4.12" transform="translate(71.9 -98.9)"/><path id="Path_356" data-name="Path 356" class="cls-13" d="M696.51,673.25c-.53,1.3-2.92,1.57-5.34.59s-3.95-2.82-3.42-4.13,2.91-1.56,5.33-.58,3.95,2.82,3.43,4.12" transform="translate(71.9 -98.9)"/><path id="Path_357" data-name="Path 357" class="cls-13" d="M714.49,681.71c-.52,1.3-2.91,1.56-5.33.58s-3.95-2.82-3.43-4.12,2.92-1.57,5.34-.59,3.95,2.83,3.42,4.13" transform="translate(71.9 -98.9)"/><path id="Path_358" data-name="Path 358" class="cls-13" d="M699.74,711.1a4.6,4.6,0,1,1,0-6.77,4.8,4.8,0,0,1,0,6.77" transform="translate(71.9 -98.9)"/><path id="Path_359" data-name="Path 359" class="cls-13" d="M660.42,673.83c-.88,2.1-3,3.23-4.72,2.51s-2.42-3-1.54-5.12,3-3.23,4.72-2.5,2.42,3,1.54,5.11" transform="translate(71.9 -98.9)"/><path id="Path_360" data-name="Path 360" class="cls-13" d="M675.39,689.93c-.88,2.1-3,3.23-4.72,2.51s-2.42-3-1.54-5.11,3-3.23,4.72-2.51,2.42,3,1.54,5.11" transform="translate(71.9 -98.9)"/><path id="Path_361" data-name="Path 361" class="cls-13" d="M651,694.16c-.88,2.09-3,3.22-4.72,2.5s-2.42-3-1.54-5.11,3-3.23,4.72-2.51,2.42,3,1.54,5.11" transform="translate(71.9 -98.9)"/><path id="Path_362" data-name="Path 362" class="cls-13" d="M665.93,710.26c-.88,2.1-3,3.22-4.72,2.5s-2.42-3-1.54-5.11,3-3.23,4.72-2.51,2.42,3,1.54,5.12" transform="translate(71.9 -98.9)"/><path id="Path_363" data-name="Path 363" class="cls-10" d="M805.77,402.7l60.3-7.66-46.24,26.42-1.3-10.26-13.27-.67Z" transform="translate(71.9 -98.9)"/><path id="Path_364" data-name="Path 364" class="cls-14" d="M677.19,435.53l126.24-8.68a5.71,5.71,0,0,0,5.12-4.23c1.31-4.92,2.43-13.67-2.78-21.8a5.7,5.7,0,0,0-5.84-2.51l-124.52,23.3a7,7,0,0,0-5.79,7.1c0,.26,0,.53.06.79a7,7,0,0,0,7.5,6" transform="translate(71.9 -98.9)"/><path id="Path_365" data-name="Path 365" class="cls-15" d="M681.53,241.62l-30.06-20.87,6.85,35.94,7.28-8.12,6.41,10,5.61-3.58L671.21,245Z" transform="translate(71.9 -98.9)"/><path id="Path_366" data-name="Path 366" class="cls-5" d="M423.33,187.57a11.35,11.35,0,0,0-1.32-3.43c-4.76-13.95-28.9-15.7-36.43-41.81a10.36,10.36,0,1,0-8.22,1.65c3.28,28.15-20.36,38.84-17.2,54.54l.1,0a10.67,10.67,0,0,0,.2,1.7c2,10,17.72,15.32,35.08,11.84s29.8-14.45,27.8-24.47" transform="translate(71.9 -98.9)"/><path id="Path_367" data-name="Path 367" class="cls-11" d="M419.72,412.56l-102.89-39.1L298,359.82l23.57-2.9,104.2,40a8.46,8.46,0,0,1,5.44,7.73,1.09,1.09,0,0,1,0,.18,8.42,8.42,0,0,1-11.47,7.74" transform="translate(71.9 -98.9)"/><path id="Path_368" data-name="Path 368" class="cls-8" d="M321.56,356.92,291,355.35l25.84,18.11Z" transform="translate(71.9 -98.9)"/><path id="Path_369" data-name="Path 369" class="cls-13" d="M302.59,356.06l-11.6-.65,9.78,6.93Z" transform="translate(71.9 -98.9)"/><path id="Path_370" data-name="Path 370" class="cls-8" d="M418.08,393.66s2.78,9.21-6.56,16.4l8.81,2.71a8.61,8.61,0,0,0,5.44-16.34Z" transform="translate(71.9 -98.9)"/><path id="Path_371" data-name="Path 371" class="cls-12" d="M609.88,444.06l.84,2.86a11.67,11.67,0,0,0,7.92,7.92l2.86.84a1.68,1.68,0,0,1,0,3.23l-2.86.84a11.69,11.69,0,0,0-7.92,7.92l-.84,2.86a1.68,1.68,0,0,1-3.23,0l-.84-2.86a11.71,11.71,0,0,0-7.92-7.92l-2.86-.84a1.68,1.68,0,0,1,0-3.23l2.86-.84a11.67,11.67,0,0,0,7.92-7.92l.84-2.86a1.68,1.68,0,0,1,3.23,0" transform="translate(71.9 -98.9)"/><path id="Path_372" data-name="Path 372" class="cls-12" d="M636.86,419l.9,1.71a7.57,7.57,0,0,0,6,4.06l1.93.18a1.09,1.09,0,0,1,1,1.19,1.06,1.06,0,0,1-.58.86l-1.72.9a7.56,7.56,0,0,0-4,6l-.18,1.92a1.1,1.1,0,0,1-2.06.4l-.89-1.71a7.56,7.56,0,0,0-6-4.06l-1.92-.18a1.09,1.09,0,0,1-.4-2.06l1.71-.89a7.59,7.59,0,0,0,4.06-6l.18-1.92a1.08,1.08,0,0,1,1.19-1,1.06,1.06,0,0,1,.86.58" transform="translate(71.9 -98.9)"/><path id="Path_373" data-name="Path 373" class="cls-5" d="M499.14,627.51l-26.57-18.65-25.95,19.5,10.53,30.71,32.46-.53Z" transform="translate(71.9 -98.9)"/><path id="Path_374" data-name="Path 374" class="cls-5" d="M446.62,628.37l-14-3.28,15.65-21.47,25-9.74-.75,15Z" transform="translate(71.9 -98.9)"/><path id="Path_375" data-name="Path 375" class="cls-4" d="M489.61,658.54,500.14,671l-25.73,8.82-24.61-6.9,7.35-13.81Z" transform="translate(71.9 -98.9)"/><path id="Path_376" data-name="Path 376" class="cls-8" d="M433.44,650.89l-.8-25.8,14,3.28,10.53,30.71-7.35,13.81Z" transform="translate(71.9 -98.9)"/><path id="Path_377" data-name="Path 377" class="cls-8" d="M473.32,593.88l-.75,15,26.57,18.65-9.53,31L500.14,671l13.92-22,.1-27.65-17-19.46Z" transform="translate(71.9 -98.9)"/><path id="Path_378" data-name="Path 378" class="cls-9" d="M704.37,226.22l31.5-3.42,20.33-26.47-29.37,4Z" transform="translate(71.9 -98.9)"/><path id="Path_379" data-name="Path 379" class="cls-12" d="M736,222.77l15.63,30.85-31,3.21-16.24-30.6Z" transform="translate(71.9 -98.9)"/><path id="Path_380" data-name="Path 380" class="cls-10" d="M735.85,222.66l15.82,30.89L772,227.35l-15.76-31Z" transform="translate(71.9 -98.9)"/><path id="Path_381" data-name="Path 381" class="cls-13" d="M719.53,217.51c.57.91-.34,2.51-2,3.57s-3.53,1.18-4.1.27.33-2.51,2-3.57,3.52-1.18,4.1-.27" transform="translate(71.9 -98.9)"/><path id="Path_382" data-name="Path 382" class="cls-13" d="M733.33,209.36c.57.91-.33,2.51-2,3.57s-3.52,1.18-4.1.27.34-2.51,2-3.57,3.53-1.18,4.1-.27" transform="translate(71.9 -98.9)"/><path id="Path_383" data-name="Path 383" class="cls-13" d="M746.65,202c.58.91-.33,2.51-2,3.57s-3.52,1.18-4.1.27.34-2.51,2-3.57,3.53-1.18,4.1-.27" transform="translate(71.9 -98.9)"/><path id="Path_384" data-name="Path 384" class="cls-13" d="M758.25,224.34a3.52,3.52,0,1,1-4.21-3,3.66,3.66,0,0,1,4.21,3" transform="translate(71.9 -98.9)"/><path id="Path_385" data-name="Path 385" class="cls-13" d="M717.49,232a2.65,2.65,0,1,1-3.86-1.34,2.91,2.91,0,0,1,3.86,1.34" transform="translate(71.9 -98.9)"/><path id="Path_386" data-name="Path 386" class="cls-13" d="M734.2,229.94a2.65,2.65,0,1,1-3.87-1.34,2.93,2.93,0,0,1,3.87,1.34" transform="translate(71.9 -98.9)"/><path id="Path_387" data-name="Path 387" class="cls-13" d="M725.84,247a2.64,2.64,0,1,1-3.86-1.34,2.92,2.92,0,0,1,3.86,1.34" transform="translate(71.9 -98.9)"/><path id="Path_388" data-name="Path 388" class="cls-13" d="M742.55,244.94a2.64,2.64,0,1,1-3.86-1.34,2.92,2.92,0,0,1,3.86,1.34" transform="translate(71.9 -98.9)"/><path id="Path_389" data-name="Path 389" class="cls-15" d="M390.88,609.74a10.36,10.36,0,1,0,4.17,7.28c25.67-12,43.28,7,57.18-.94l-15.72-27.44-.18-.31-15.72-27.44c-13.9,8-6.38,32.79-29.73,48.85" transform="translate(71.9 -98.9)"/><path id="Path_390" data-name="Path 390" class="cls-14" d="M421.39,560.42c8.87-5.08,23.2,3.26,32,18.63s8.75,31.94-.13,37-23.2-3.25-32-18.62-8.74-31.94.13-37" transform="translate(71.9 -98.9)"/><path id="Path_391" data-name="Path 391" class="cls-12" d="M504.43,256.47l59.11-4.89a4.19,4.19,0,0,0,3.83-4.52h0l-7.79-94.26a4.2,4.2,0,0,0-4.53-3.83l-59.11,4.89a4.18,4.18,0,0,0-3.83,4.52l7.79,94.26a4.2,4.2,0,0,0,4.53,3.83" transform="translate(71.9 -98.9)"/><path id="Path_392" data-name="Path 392" class="cls-12" d="M600.93,378.64l-55.39-21.22a4.2,4.2,0,0,1-2.42-5.42h0L577,263.69a4.2,4.2,0,0,1,5.42-2.42l55.39,21.22a4.19,4.19,0,0,1,2.41,5.42h0l-33.83,88.31a4.19,4.19,0,0,1-5.42,2.42h0" transform="translate(71.9 -98.9)"/><path id="Path_393" data-name="Path 393" class="cls-9" d="M613.1,330.4l-44.69-17.28a3.36,3.36,0,0,1-1.92-4.35l14.37-37.17a3.36,3.36,0,0,1,4.35-1.93h0L629.9,287a3.36,3.36,0,0,1,1.92,4.35h0l-14.38,37.18a3.36,3.36,0,0,1-4.35,1.92h0" transform="translate(71.9 -98.9)"/><line id="Line_22" data-name="Line 22" class="cls-16" x1="634.01" y1="223.3" x2="680.01" y2="240.91"/><line id="Line_23" data-name="Line 23" class="cls-16" x1="631.36" y1="229.97" x2="672.49" y2="245.68"/><path id="Path_394" data-name="Path 394" class="cls-17" d="M552.43,191.28c1.46,16.79-8,31.34-21.19,32.49s-25-11.53-26.5-28.33,8-31.34,21.19-32.49,25,11.53,26.5,28.33" transform="translate(71.9 -98.9)"/><line id="Line_24" data-name="Line 24" class="cls-18" x1="578.28" y1="137.28" x2="627.38" y2="133.33"/><line id="Line_25" data-name="Line 25" class="cls-18" x1="578.77" y1="144.44" x2="622.65" y2="140.88"/><path id="Path_395" data-name="Path 395" class="cls-12" d="M496.56,394.42l56.82-13.07a4.12,4.12,0,0,1,4.94,3.09L579.15,475a4.12,4.12,0,0,1-3.09,4.94L519.25,493a4.13,4.13,0,0,1-5-3.09l-20.83-90.59a4.13,4.13,0,0,1,3.09-4.95" transform="translate(71.9 -98.9)"/><path id="Path_396" data-name="Path 396" class="cls-4" d="M492,468l59.3,20.78-41.06,22.3Z" transform="translate(71.9 -98.9)"/><path id="Path_398" data-name="Path 398" class="cls-12" d="M591.92,489.57c12.94,24.74-1.5,53.22-14.26,74.76-6.93,11.69-14.14,23.35-18.92,36.13a73,73,0,0,0-4.38,35.2c2.7,20.65,14.09,39,25.1,56.16C590.63,709.27,603,727,608,747.42a63.3,63.3,0,0,1-19.3,63.25,59.31,59.31,0,0,1-7,5.37c-2.34,1.53-.19,5.33,2.17,3.79,20.56-13.42,32.58-38,30.26-62.45-2-21.37-13.25-40.29-24.54-58s-24.11-35.6-29.29-56.3a66.49,66.49,0,0,1,.15-33.33c3.56-13.36,10.55-25.46,17.56-37.27s14.22-23.76,18.74-36.93c4.26-12.43,6.35-26.24,2.7-39.1a47.84,47.84,0,0,0-3.64-9.05c-1.3-2.49-5.1-.32-3.79,2.18" transform="translate(71.9 -98.9)"/></g></g></g></g></g></g></svg>