<svg xmlns="http://www.w3.org/2000/svg" viewBox="0 0 1931.79 1009.95"><defs><style>.cls-1{isolation:isolate;}.cls-2{fill:#e9e6df;}.cls-3,.cls-4{fill:none;stroke-miterlimit:10;}.cls-3{stroke:#d5d4cf;}.cls-4{stroke:#071a23;stroke-width:0.25px;}.cls-5{opacity:0.42;}.cls-6{fill:#f4c32d;opacity:0.39;mix-blend-mode:multiply;}</style></defs><title>Asset 5</title><g class="cls-1"><g id="Layer_2" data-name="Layer 2"><g id="Layer_1-2" data-name="Layer 1"><rect class="cls-2" x="7.99" y="0.5" width="1919.59" height="1003.64"/><line class="cls-3" x1="68.25" y1="2.24" x2="68.25" y2="1009.37"/><line class="cls-3" x1="145.84" y1="2.24" x2="145.84" y2="1009.37"/><line class="cls-3" x1="223.43" y1="2.24" x2="223.43" y2="1009.37"/><line class="cls-3" x1="301.02" y1="2.24" x2="301.02" y2="1009.37"/><line class="cls-3" x1="378.61" y1="2.24" x2="378.61" y2="1009.37"/><line class="cls-3" x1="455.72" y1="2.24" x2="455.72" y2="1009.37"/><line class="cls-3" x1="533.31" y1="2.24" x2="533.31" y2="1009.37"/><line class="cls-3" x1="610.9" y1="2.24" x2="610.9" y2="1009.37"/><line class="cls-3" x1="688.49" y1="2.24" x2="688.49" y2="1009.37"/><line class="cls-3" x1="766.08" y1="2.24" x2="766.08" y2="1009.37"/><line class="cls-3" x1="845.12" y1="2.24" x2="845.12" y2="1009.37"/><line class="cls-3" x1="922.71" y1="2.24" x2="922.71" y2="1009.37"/><line class="cls-3" x1="1000.3" y1="2.24" x2="1000.3" y2="1009.37"/><line class="cls-3" x1="1077.89" y1="2.24" x2="1077.89" y2="1009.37"/><line class="cls-3" x1="1155.48" y1="2.24" x2="1155.48" y2="1009.37"/><line class="cls-3" x1="1232.59" y1="2.24" x2="1232.59" y2="1009.37"/><line class="cls-3" x1="1310.18" y1="2.24" x2="1310.18" y2="1009.37"/><line class="cls-3" x1="1387.77" y1="2.24" x2="1387.77" y2="1009.37"/><line class="cls-3" x1="1465.36" y1="2.24" x2="1465.36" y2="1009.37"/><line class="cls-3" x1="1542.95" y1="2.24" x2="1542.95" y2="1009.37"/><line class="cls-3" x1="1621.99" y1="2.24" x2="1621.99" y2="1009.37"/><line class="cls-3" x1="1699.58" y1="2.24" x2="1699.58" y2="1009.37"/><line class="cls-3" x1="1777.17" y1="2.24" x2="1777.17" y2="1009.37"/><line class="cls-3" x1="1854.76" y1="2.24" x2="1854.76" y2="1009.37"/><line class="cls-4" x1="1928.08" y1="82.24" y2="82.24"/><line class="cls-4" x1="1928.08" y1="159.83" y2="159.83"/><line class="cls-4" x1="1928.08" y1="237.43" y2="237.43"/><line class="cls-4" x1="1928.08" y1="315.02" y2="315.02"/><line class="cls-4" x1="1928.08" y1="392.13" y2="392.13"/><line class="cls-4" x1="1928.08" y1="469.72" y2="469.72"/><line class="cls-4" x1="1928.08" y1="547.31" y2="547.31"/><line class="cls-3" x1="1928.08" y1="621.97" y2="621.97"/><line class="cls-3" x1="1928.08" y1="699.56" y2="699.56"/><line class="cls-3" x1="1928.08" y1="777.16" y2="777.16"/><line class="cls-3" x1="1928.08" y1="854.26" y2="854.26"/><line class="cls-3" x1="1928.08" y1="931.85" y2="931.85"/><line class="cls-3" x1="1928.08" y1="1009.45" y2="1009.45"/><g class="cls-5"><polygon class="cls-6" points="985.19 412.46 7.33 2.23 650.31 2.23 985.19 412.46"/><polygon class="cls-6" points="844.54 0 985.19 412.46 1078.96 0 844.54 0"/><polygon class="cls-6" points="1925.1 2.23 985.19 412.46 1235.24 0 1925.1 2.23"/><polygon class="cls-6" points="985.19 410.79 7.33 821.02 7.33 1006.88 496.26 1009.11 985.19 410.79"/><polygon class="cls-6" points="764.17 1006.32 985.19 410.79 1154.86 1006.88 764.17 1006.32"/><polygon class="cls-6" points="1925.1 821.02 985.19 410.79 1337.93 1006.88 1929.56 1006.88 1925.1 821.02"/><polygon class="cls-6" points="1931.79 234.42 985.19 412.46 1931.79 546.98 1931.79 234.42"/><polygon class="cls-6" points="7.33 241.12 2.87 546.98 985.19 412.46 7.33 241.12"/></g></g></g></g></svg>