<svg xmlns="http://www.w3.org/2000/svg" viewBox="0 0 1748.08 801.31"><defs><style>.cls-1,.cls-19,.cls-20{isolation:isolate;}.cls-2{fill:#353535;}.cls-3,.cls-31{fill:#e9e6df;}.cls-3{mix-blend-mode:multiply;}.cls-4{fill:#f3f2f1;}.cls-5{fill:#fff;}.cls-6{fill:#f23c3c;}.cls-7{fill:#f16b25;}.cls-8{fill:#f4c32d;}.cls-9{fill:#75964b;}.cls-10{fill:#62b0e2;}.cls-11{fill:#99989a;}.cls-12,.cls-15,.cls-16,.cls-17,.cls-18,.cls-27{fill:none;stroke-miterlimit:10;}.cls-12,.cls-18,.cls-27{stroke:#071a23;}.cls-12{stroke-width:1.79px;}.cls-13{fill:#ffcb9b;}.cls-14{fill:#ef3f7f;}.cls-15,.cls-17{stroke:#000;}.cls-15{stroke-width:1.86px;stroke-dasharray:3.56;}.cls-16{stroke:#f23c3c;stroke-width:1.59px;}.cls-17{stroke-width:3.18px;}.cls-18{stroke-width:1.67px;}.cls-19{font-size:73.37px;font-family:Termina-Demi, Termina;font-weight:300;}.cls-19,.cls-20,.cls-23{fill:#081f2f;}.cls-20{font-size:143.05px;font-family:BebasNeue-Regular, Bebas Neue;}.cls-21{letter-spacing:0em;}.cls-22{letter-spacing:0em;}.cls-24{fill:#071a23;}.cls-25{fill:silver;}.cls-26{fill:#868686;}.cls-27{stroke-width:1.56px;}.cls-28{fill:#015288;}.cls-29{fill:#5f7c35;}.cls-30{fill:#ff931d;}.cls-31{opacity:0.6;}.cls-32{fill:#606060;}</style></defs><title>Asset 21</title><g class="cls-1"><g id="Layer_2" data-name="Layer 2"><g id="Layer_1-2" data-name="Layer 1"><path class="cls-2" d="M1454.92,669.66l-191.24-73h0c5.17-5.88,13.39-8.19,21.47-6.05l170.64,45.2Z"/><polygon class="cls-3" points="268.3 677.65 426 601.48 419.3 503.25 250.24 469.84 268.3 677.65"/><rect class="cls-4" x="32.45" y="637.41" width="180.52" height="115.7" rx="2.84" transform="translate(-418.05 1149.16) rotate(-120)"/><rect class="cls-5" x="17.82" y="217.27" width="276.52" height="180.49" rx="4.4" transform="translate(15.02 622.2) rotate(-128.95)"/><path class="cls-6" d="M1258.9,395.08a11,11,0,0,1-.42-22l52.36-5.66a91,91,0,0,1,46.66,4.83l12.59,4.81a68.59,68.59,0,0,0,38.82,3l9.07-1.93a90.73,90.73,0,0,1,49,3.13l8.87,3.11a68.44,68.44,0,0,0,41.49,1.28,91.2,91.2,0,0,1,59.59,3.52l18.87,5.15a11,11,0,1,1-5.82,21.31l-20.3-5.54-.69-.29a69,69,0,0,0-45.64-2.89,90.32,90.32,0,0,1-54.81-1.69l-8.87-3.11a68.76,68.76,0,0,0-37.09-2.37l-9.07,1.93a90.68,90.68,0,0,1-51.31-4l-12.59-4.81a68.89,68.89,0,0,0-35.54-3.62l-.58.08-52.65,5.7A10.62,10.62,0,0,1,1258.9,395.08Z"/><path class="cls-7" d="M1257.44,416.34a11,11,0,0,1-.42-22l52.36-5.66a90.94,90.94,0,0,1,46.66,4.83l12.59,4.81a68.62,68.62,0,0,0,38.83,3l9.07-1.93a90.74,90.74,0,0,1,49,3.13l8.87,3.11a68.26,68.26,0,0,0,41.48,1.28,91.19,91.19,0,0,1,59.59,3.52l18.87,5.15a11,11,0,1,1-5.82,21.31l-20.29-5.54-.69-.29a69,69,0,0,0-45.64-2.89,90.28,90.28,0,0,1-54.82-1.69l-8.87-3.11a68.56,68.56,0,0,0-37.09-2.37l-9.07,1.93a90.68,90.68,0,0,1-51.31-4l-12.58-4.81a68.9,68.9,0,0,0-35.54-3.62l-.59.08-52.64,5.7A10.72,10.72,0,0,1,1257.44,416.34Z"/><path class="cls-8" d="M1256.15,435.27a11,11,0,0,1-.42-22l52.35-5.67a90.84,90.84,0,0,1,46.66,4.84l12.59,4.8a68.54,68.54,0,0,0,38.83,3l9.07-1.94a90.84,90.84,0,0,1,49,3.14l8.87,3.11a68.37,68.37,0,0,0,41.49,1.28,91,91,0,0,1,59.58,3.52l18.87,5.15a11,11,0,1,1-5.81,21.31l-20.3-5.54-.69-.29a69,69,0,0,0-45.64-2.89,90.4,90.4,0,0,1-54.81-1.69l-8.88-3.12a68.71,68.71,0,0,0-37.08-2.37l-9.07,1.94a90.68,90.68,0,0,1-51.31-4l-12.59-4.8a68.89,68.89,0,0,0-35.54-3.62l-.58.08-52.65,5.69A11.59,11.59,0,0,1,1256.15,435.27Z"/><path class="cls-9" d="M1254.85,454.2a11.05,11.05,0,0,1-.42-22l52.36-5.66a90.84,90.84,0,0,1,46.66,4.84l12.59,4.8a68.51,68.51,0,0,0,38.82,3l9.08-1.93a90.84,90.84,0,0,1,49,3.13l8.87,3.12a68.41,68.41,0,0,0,41.48,1.28,91.13,91.13,0,0,1,59.59,3.51l18.87,5.15a11.05,11.05,0,1,1-5.82,21.32l-20.3-5.54-.69-.3a69,69,0,0,0-45.63-2.89,90.28,90.28,0,0,1-54.82-1.69l-8.87-3.11a68.75,68.75,0,0,0-37.09-2.37l-9.07,1.93a90.6,90.6,0,0,1-51.31-4l-12.59-4.8a68.85,68.85,0,0,0-35.53-3.63l-.59.08-52.64,5.7A11.73,11.73,0,0,1,1254.85,454.2Z"/><path class="cls-10" d="M1253.42,475a11.05,11.05,0,0,1-.42-22l52.36-5.66a90.94,90.94,0,0,1,46.66,4.83l12.6,4.81a68.58,68.58,0,0,0,38.82,3l9.07-1.93a90.73,90.73,0,0,1,49,3.13l8.87,3.12a68.41,68.41,0,0,0,41.48,1.27,91.19,91.19,0,0,1,59.59,3.52l18.87,5.15a11,11,0,0,1-5.81,21.32l-20.3-5.54-.69-.3a69.1,69.1,0,0,0-45.64-2.89,90.28,90.28,0,0,1-54.82-1.69L1454.2,482a68.62,68.62,0,0,0-37.08-2.37L1408,481.6a90.57,90.57,0,0,1-51.3-4l-12.59-4.8a68.8,68.8,0,0,0-35.54-3.63l-.59.08-52.64,5.7A11.71,11.71,0,0,1,1253.42,475Z"/><path class="cls-11" d="M1583.77,487l-9.39,6.62a10.33,10.33,0,0,0-4.36,7.75h0a10.2,10.2,0,0,0,9.49,10.88h0a11.24,11.24,0,0,0,9.43-4.05l11.93-14.44Z"/><path class="cls-12" d="M1583.77,487l-9.39,6.62a10.33,10.33,0,0,0-4.36,7.75h0a10.2,10.2,0,0,0,9.49,10.88h0a11.24,11.24,0,0,0,9.43-4.05l11.93-14.44Z"/><path class="cls-11" d="M1615.22,492.06l-12.42,8.75-.3,4.37a9.65,9.65,0,0,0,9,10.27h0a10,10,0,0,0,8.44-3.63l11.16-13.51Z"/><path class="cls-12" d="M1615.22,492.06l-12.42,8.75-.3,4.37a9.65,9.65,0,0,0,9,10.27h0a10,10,0,0,0,8.44-3.63l11.16-13.51Z"/><path class="cls-11" d="M1581.44,480.43a7.66,7.66,0,0,1-4.52-1.88l-32.41-28.4a7.65,7.65,0,0,1,10.08-11.5L1587,467a7.65,7.65,0,0,1-5.56,13.39Z"/><path class="cls-12" d="M1581.44,480.43a7.66,7.66,0,0,1-4.52-1.88l-32.41-28.4a7.65,7.65,0,0,1,10.08-11.5L1587,467a7.65,7.65,0,0,1-5.56,13.39Z"/><rect class="cls-13" x="1580.03" y="387.53" width="134.69" height="116.67" rx="21.79" transform="translate(34.3 -111.49) rotate(3.92)"/><rect class="cls-14" x="1600.9" y="388.95" width="92.96" height="113.82" rx="16.22" transform="translate(1090.02 2058.94) rotate(-86.08)"/><line class="cls-12" x1="1616.59" y1="426.17" x2="1610.73" y2="425.77"/><line class="cls-12" x1="1628.15" y1="442.49" x2="1622.29" y2="442.09"/><line class="cls-12" x1="1606.57" y1="466.05" x2="1600.71" y2="465.65"/><line class="cls-12" x1="1628.07" y1="471.32" x2="1622.21" y2="470.92"/><line class="cls-12" x1="1647.21" y1="427.95" x2="1641.35" y2="427.55"/><line class="cls-12" x1="1635.02" y1="411.59" x2="1629.16" y2="411.18"/><line class="cls-12" x1="1682.48" y1="412.62" x2="1676.62" y2="412.22"/><line class="cls-12" x1="1693.05" y1="429.5" x2="1687.19" y2="429.1"/><path class="cls-11" d="M1670.3,499.07l-4.45,9.87a9.19,9.19,0,0,0,.16,7.9h0a9.65,9.65,0,0,0,12.93,4.29h0a10.05,10.05,0,0,0,5.43-7.41l2.74-17.31Z"/><path class="cls-12" d="M1670.3,499.07l-4.45,9.87a9.19,9.19,0,0,0,.16,7.9h0a9.65,9.65,0,0,0,12.93,4.29h0a10.05,10.05,0,0,0,5.43-7.41l2.74-17.31Z"/><path class="cls-11" d="M1701.59,506.19l.9,10.79a9.16,9.16,0,0,0,4,6.83h0a9.64,9.64,0,0,0,13.39-2.52h0a10.07,10.07,0,0,0,1.15-9.11l-6-16.47Z"/><path class="cls-12" d="M1701.59,506.19l.9,10.79a9.16,9.16,0,0,0,4,6.83h0a9.64,9.64,0,0,0,13.39-2.52h0a10.07,10.07,0,0,0,1.15-9.11l-6-16.47Z"/><path class="cls-11" d="M1746.85,478.82l-8.12-44.49a6.64,6.64,0,0,0-11.18-3.55l-19.72,19.35a87.9,87.9,0,0,0-10.26-1.3,89.6,89.6,0,0,0-10.34-.11l-16.9-21.85a6.64,6.64,0,0,0-11.57,2l-14.11,43,.27-.11a17,17,0,0,0-.46,2.94c-1.11,16.21,20.87,30.91,49.09,32.84s52-9.64,53.11-25.84a16.47,16.47,0,0,0-.06-3Z"/><path class="cls-12" d="M1746.85,478.82l-8.12-44.49a6.64,6.64,0,0,0-11.18-3.55l-19.72,19.35a87.9,87.9,0,0,0-10.26-1.3,89.6,89.6,0,0,0-10.34-.11l-16.9-21.85a6.64,6.64,0,0,0-11.57,2l-14.11,43,.27-.11a17,17,0,0,0-.46,2.94c-1.11,16.21,20.87,30.91,49.09,32.84s52-9.64,53.11-25.84a16.47,16.47,0,0,0-.06-3Z"/><polyline class="cls-12" points="1671.82 480.02 1671.32 488.39 1718.41 491.61 1719.03 482.46"/><line class="cls-12" x1="1702.58" y1="471.39" x2="1696.72" y2="470.99"/><polyline class="cls-12" points="1670.66 466.95 1677.28 467.4 1677.8 459.83"/><polyline class="cls-12" points="1713.24 469.87 1719.87 470.32 1720.38 462.75"/><polygon class="cls-3" points="75.49 416.18 408.14 516.65 414.84 342.51 124.6 293.39 75.49 416.18"/><polygon class="cls-3" points="171.3 246.93 370.19 429.58 385.81 250.97 307.67 139.34 171.3 246.93"/><path class="cls-7" d="M328.21,157.84c-.43-.74-.88-1.45-1.36-2.15l.06,0c-22.25-39.2-92.19-18.32-137.13-84.18h0a29.18,29.18,0,1,0-20.52,11.65c31,66.8-12.49,114-1.83,151.69a31.65,31.65,0,0,0,3.87,12.11c14.2,25,60.84,25.34,104.17.75S342.41,182.86,328.21,157.84Z"/><rect class="cls-5" x="1094.01" y="87.84" width="363.84" height="237.49" rx="5.79" transform="translate(718.76 1372.87) rotate(-73.66)"/><rect class="cls-5" x="1176.96" y="173.5" width="434.6" height="211.97" transform="translate(-27.69 290.46) rotate(-11.78)"/><rect class="cls-6" x="1258.33" y="164.12" width="9.06" height="32.36" transform="translate(-10.22 261.55) rotate(-11.78)"/><path class="cls-6" d="M1245.53,147.68h25.89a16.83,16.83,0,0,1,16.83,16.83v0a0,0,0,0,1,0,0H1228.7a0,0,0,0,1,0,0v0a16.83,16.83,0,0,1,16.83-16.83Z" transform="translate(-5.37 260.15) rotate(-11.78)"/><path class="cls-6" d="M1460.53,132.57h25.89a16.83,16.83,0,0,1,16.83,16.83v0a0,0,0,0,1,0,0H1443.7a0,0,0,0,1,0,0v0a16.83,16.83,0,0,1,16.83-16.83Z" transform="translate(2.24 303.72) rotate(-11.78)"/><circle class="cls-15" cx="1288.51" cy="300.16" r="84.13"/><line class="cls-16" x1="1273.76" y1="229.43" x2="1292.59" y2="319.75"/><line class="cls-17" x1="1333.22" y1="235.1" x2="1287.09" y2="297.74"/><path d="M1346.19,267.72l-1.41-2.67-59.39,26.56,0,.07a6,6,0,0,0,5.64,10.61l0,0Z"/><circle class="cls-15" cx="1499.32" cy="256.21" r="84.13"/><line class="cls-16" x1="1484.57" y1="185.48" x2="1503.4" y2="275.79"/><line class="cls-18" x1="1544.04" y1="191.14" x2="1497.9" y2="253.79"/><line class="cls-18" x1="1562.04" y1="239.82" x2="1495.96" y2="252.46"/><path class="cls-8" d="M1158.39,217.31l44,211,429.45-89.54-44-211ZM1308.92,398a100,100,0,1,1,77.47-118.28A100,100,0,0,1,1308.92,398Zm210.81-44A100,100,0,1,1,1597.2,235.8,100,100,0,0,1,1519.73,354.09Z"/><rect class="cls-6" x="1212.31" y="217.24" width="7.74" height="41.57" transform="translate(-22.98 253.24) rotate(-11.78)"/><circle class="cls-6" cx="1214.89" cy="231.82" r="8.61"/><rect class="cls-6" x="1423.13" y="173.29" width="7.74" height="41.57" transform="translate(-9.57 295.35) rotate(-11.78)"/><circle class="cls-6" cx="1425.7" cy="187.86" r="8.61"/><rect class="cls-4" x="354.55" y="133.99" width="1006.45" height="535.67" rx="15.2"/><g id="WHY_WE_RE_DAMN_GOOD_" data-name="WHY WE RE DAMN GOOD " class="cls-1"><text class="cls-19" transform="translate(740.02 398.58)">WITH</text></g><g id="WHY_WE_RE_DAMN_GOOD_2" data-name="WHY WE RE DAMN GOOD " class="cls-1"><text class="cls-20" transform="translate(499.84 317.46)">We’Re OBS<tspan class="cls-21" x="459.19" y="0">E</tspan><tspan class="cls-22" x="511.41" y="0">SSED</tspan></text></g><path class="cls-23" d="M1227.92,452l-27.51-25.5-112.09-.67v13.42l2,153.7,95.31-1.34,40.27-20.14,6-32.89Zm-59.73,96.32-29.53,1-1.34-79.87,30.9.52,8,10.22,2,55.71Z"/><polygon class="cls-23" points="924.47 426.14 807.68 426.14 807.68 582.52 925.81 584.54 925.14 542.93 856.68 542.93 858.02 524.8 906.35 520.78 905 485.2 856.68 483.86 856.68 467.08 925.81 464.4 924.47 426.14"/><polygon class="cls-23" points="1065.95 584.54 949.16 584.54 949.16 428.15 1067.29 426.14 1066.62 467.75 998.16 467.75 999.5 485.88 1047.83 489.9 1046.48 525.48 998.16 526.82 998.16 543.6 1067.29 546.28 1065.95 584.54"/><polygon class="cls-23" points="618.44 431.17 619.78 476.94 560.05 470.09 554.01 480.83 564.75 484.52 623.41 496.13 627.84 569.43 599.65 586.21 507.03 587.55 506.36 535.8 577.5 544.59 576.83 531.84 527.83 525.13 507.03 505.67 506.36 447.94 532.53 429.15 618.44 431.17"/><path class="cls-23" d="M784.25,426.3H750.44v-.16h-96L660.49,587l53.69-1.35-.69-40h39.62v-.18h31.15Zm-72.08,42.13h29.07v34.86H712.77Z"/><path id="Path_360" data-name="Path 360" class="cls-24" d="M185,532.41c-3,7.29-10.39,11.21-16.39,8.71s-8.4-10.47-5.35-17.78,10.39-11.21,16.39-8.71S188,525.1,185,532.41"/><path id="Path_348" data-name="Path 348" class="cls-25" d="M114.8,458,199,551.21l132.24,3.73-81-85.1Z"/><path id="Path_353" data-name="Path 353" class="cls-5" d="M199.46,551.64,136.74,673.5,54.28,581.31,114.8,458.05Z"/><path id="Path_354" data-name="Path 354" class="cls-26" d="M199.43,550.83,137,673.43l131.27,4.22,62.95-122.71Z"/><path id="Path_355" data-name="Path 355" class="cls-27" d="M178,486.44c-1.6,3.95-8.84,4.76-16.19,1.79s-12-8.58-10.39-12.53,8.84-4.75,16.18-1.78,12,8.57,10.4,12.52"/><path id="Path_356" data-name="Path 356" class="cls-27" d="M236.27,511.82c-1.6,3.95-8.84,4.75-16.19,1.79s-12-8.58-10.39-12.53,8.84-4.76,16.18-1.79,12,8.58,10.4,12.53"/><path id="Path_357" data-name="Path 357" class="cls-27" d="M290.86,537.48c-1.59,3.94-8.84,4.75-16.18,1.78s-12-8.58-10.4-12.53,8.84-4.74,16.18-1.78,12,8.58,10.4,12.53"/><path id="Path_358" data-name="Path 358" class="cls-27" d="M246.07,626.69a13.94,13.94,0,1,1-.11-20.56,14.59,14.59,0,0,1,.11,20.56"/><path id="Path_359" data-name="Path 359" class="cls-24" d="M126.74,513.58c-2.67,6.37-9.08,9.79-14.32,7.6s-7.34-9.13-4.68-15.52,9.08-9.8,14.32-7.61,7.34,9.14,4.68,15.52"/><path id="Path_361" data-name="Path 361" class="cls-24" d="M98,575.26c-2.66,6.37-9.08,9.79-14.32,7.6s-7.34-9.13-4.67-15.52,9.07-9.8,14.32-7.61,7.33,9.14,4.67,15.53"/><path id="Path_361-2" data-name="Path 361" class="cls-24" d="M166.19,563.43c-2.66,6.38-9.07,9.8-14.32,7.61s-7.34-9.14-4.67-15.53,9.07-9.8,14.32-7.61,7.34,9.14,4.67,15.53"/><path id="Path_362" data-name="Path 362" class="cls-24" d="M137.47,618.14c-2.67,6.37-9.08,9.79-14.32,7.61s-7.34-9.15-4.68-15.53,9.08-9.8,14.33-7.61,7.33,9.14,4.67,15.53"/><path id="Path_389" data-name="Path 389" class="cls-10" d="M1321.48,48c11.23.66,20-8.19,19.61-19.77S1331.24,6.75,1320,6.09s-20,8.2-19.61,19.78a23.39,23.39,0,0,0,5.79,14.41c-24.85,48.78-75.19,35.92-86.87,64.81L1277,134.3l.67.34,57.66,29.22C1347,135,1305.14,101.12,1321.48,48"/><path id="Path_390" data-name="Path 390" class="cls-28" d="M1334.68,165.5c-7.45,18.44-39.67,20.12-72,3.76s-52.43-44.58-45-63,39.67-20.12,72-3.76,52.43,44.57,45,63"/><path class="cls-23" d="M170.13,400.88C193.82,369.5,178.76,323,136.5,297s-95.73-21.65-119.42,9.74C7.28,328.35,159,421.19,170.13,400.88Z"/><ellipse class="cls-23" cx="52.95" cy="334.35" rx="13.72" ry="42.77" transform="translate(-274.46 248.36) rotate(-66.28)"/><path class="cls-29" d="M16.89,302.62h0l.09-.15Z"/><path class="cls-29" d="M97.93,367.41,85.34,348c-.55-.86-1.13-1.69-1.72-2.52-24.71,1-46.53-9.59-59.25-28.29a85.55,85.55,0,0,0-14.09,1.47c-9.65,35.45,10.6,74.39,50.92,92.61,34.87,15.76,74.86,11.56,102.06-7.92C135.89,405.24,112.38,389.68,97.93,367.41Z"/><path class="cls-9" d="M115.56,311.23l38.26,22.09A14.71,14.71,0,0,0,164,334.88l9.32-1.75c2.08-.4,3.37-2.77,2.44-4.47-9.31-17-25-31.73-45.88-41.16a112.73,112.73,0,0,0-23.17-7.59,3.46,3.46,0,0,0-3.89,4.25l6.41,19.24A14.08,14.08,0,0,0,115.56,311.23Z"/><path class="cls-9" d="M105,315.66l-8.24,5.48c-3.38,2.24-4.54,6.6-2.56,9.51.74,1.09,1.45,2.21,2.13,3.37l12.36,20.85c8.2,13.83,19.69,24.18,33.22,29.93l.09,0c4.1,1.73,9.29-1.76,9.7-6.48l3-34.65a5.5,5.5,0,0,0-2.64-5.38L111.9,315.15A6.64,6.64,0,0,0,105,315.66Z"/><path class="cls-9" d="M159.24,347.42l-3.06,34.89a6.52,6.52,0,0,0,6.22,7.34,66.69,66.69,0,0,0,14.21-.61,8.29,8.29,0,0,0,6.66-6,72.54,72.54,0,0,0-1.92-41.67,5.71,5.71,0,0,0-6.71-3.61l-7.85,1.48A9.49,9.49,0,0,0,159.24,347.42Z"/><path class="cls-9" d="M139.38,389.36l-1.44-.63c-13.69-6.19-25.29-16.85-33.63-30.91L92,337c-15.78-26.61-47.57-37.28-81-27.19l-3.08.93-.08-.48a79,79,0,0,0-6.08,8.39A1.22,1.22,0,0,0,3,320.53H3c32.74-8.56,64.58,2.41,81.16,28l12.59,19.41c16.79,25.89,45.83,42.7,78.93,33.59l.29-.5q1.53-2.72,2.82-5.47a1.2,1.2,0,0,0-1.26-1.79A68.78,68.78,0,0,1,139.38,389.36Z"/><path class="cls-9" d="M91.36,319.23l10.1-6.71a6.65,6.65,0,0,0,2.92-7.37L97.5,284.53a10.18,10.18,0,0,0-9.47-7c-26.59-1.15-52.4,7.12-70.88,23.11-1.16,1-.48,2.7,1,2.4,25.49-5.4,49.47.57,66.13,16A5.78,5.78,0,0,0,91.36,319.23Z"/><path class="cls-9" d="M0,321.45l.09-.15h0Z"/><ellipse class="cls-30" cx="392.51" cy="136" rx="122.79" ry="74.79" transform="translate(-15.41 214.48) rotate(-30)"/><ellipse class="cls-8" cx="384.77" cy="125.17" rx="122.79" ry="74.79" transform="translate(-11.03 209.16) rotate(-30)"/><ellipse class="cls-12" cx="383.3" cy="127.94" rx="107.63" ry="61.5" transform="translate(-12.62 208.79) rotate(-30)"/><polygon class="cls-12" points="432.63 85.92 351.84 113.73 390.55 123.32 323.53 168.52 438.87 120.2 399.9 109.29 432.63 85.92"/><path class="cls-3" d="M1589.23,657.52c4.27-15.53-9.32-31.67-26.36-31.55l-64.58.42L1552.57,594c14-8.34,14.21-28.24.27-38.81-21.25-16.11-54.11-28.9-88.48,3.79,0,0-21.93,22.91-24.53,54.75a24.69,24.69,0,0,0-.06,2.57,63.82,63.82,0,0,0,.19,8.57l-167.46-6.83c-8.35-.34-15.88,3.7-19.65,10.55h0l149.28,22.07-122.88,67.82a24.36,24.36,0,0,0,23.3,3.2L1453.41,660a27,27,0,0,0,4.12,5.62q3.39,3.54,7,6.63c1,.92,1.61,1.41,1.61,1.41v-.05c22.31,18.44,48.3,24.57,48.3,24.57C1564.52,707.9,1582.73,681.19,1589.23,657.52Zm-109.49-87.3c19.86-18.7,39.42-19.6,61.52-2.85a6.54,6.54,0,0,1,2.67,4.57,6,6,0,0,1-2.86,5.88l-69.81,41.63a6.72,6.72,0,0,1-6.74.09c-.83-.42-3.55-2-3.91-5.15a7,7,0,0,1,0-1.3C1462.49,590,1478,572.17,1479.74,570.22Zm40.1,112.1c-2.78-.73-27.43-7.64-44.5-25.53a8.09,8.09,0,0,1-.86-1,6,6,0,0,1-.29-6.15,5.9,5.9,0,0,1,5.56-3.27l85-.57a7.6,7.6,0,0,1,6.28,3.37,6.11,6.11,0,0,1,.91,5.07C1565.22,678.81,1548.65,687.76,1519.84,682.32Z"/><path class="cls-3" d="M1583.47,590c-2.25-15.95-21.12-25.37-36.72-18.51l-59.11,26,37-51.23c9.54-13.2,1.85-31.56-15.13-35.74-25.91-6.36-61.14-5.07-79.73,38.57,0,0-11,29.73-.81,60a22.78,22.78,0,0,0,1,2.38,61.87,61.87,0,0,0,3.57,7.8l-156.44,60.13c-7.8,3-13.11,9.69-13.86,17.48h0L1409,658l-85.91,111a24.35,24.35,0,0,0,22.66-6.3l114-116.44a26.54,26.54,0,0,0,6,3.52c3,1.28,6,2.37,9,3.32,1.3.44,2,.65,2,.65l0-.05c27.8,8.09,54.08,3.4,54.08,3.4C1580.76,646.07,1586.89,614.33,1583.47,590ZM1448.33,553.3c10.81-25,28.41-33.62,55.35-27a6.59,6.59,0,0,1,4.26,3.13,6,6,0,0,1-.29,6.54l-47.58,65.9a6.74,6.74,0,0,1-6.15,2.76c-.93-.06-4.07-.47-5.63-3.18a6.14,6.14,0,0,1-.53-1.19C1440.33,578.3,1447.49,555.79,1448.33,553.3Zm81.26,87c-2.83.43-28.2,3.87-51-5.79a8.44,8.44,0,0,1-1.2-.63,6,6,0,0,1-2.71-5.53,5.89,5.89,0,0,1,3.81-5.2l77.85-34.25a7.6,7.6,0,0,1,7.1.6,6.06,6.06,0,0,1,2.84,4.29C1569.87,619.09,1558.2,633.88,1529.59,640.31Z"/><path class="cls-3" d="M1555.62,535.59c-7.82-14.07-28.82-16.09-40.91-4.08L1468.89,577l16.11-61.1c4.15-15.75-9.61-30.13-27-27.92-26.46,3.37-58.88,17.23-60.55,64.64,0,0,.37,31.71,20.8,56.27a21,21,0,0,0,1.76,1.88,63.83,63.83,0,0,0,6.13,6L1301.8,729.1c-6.21,5.61-8.76,13.76-6.66,21.29h0l122.07-88.71-40.3,134.44a24.37,24.37,0,0,0,18.88-14l64.59-149.63a26.83,26.83,0,0,0,6.88,1.12,96.15,96.15,0,0,0,9.63-.16c1.37,0,2.14-.12,2.14-.12l0,0c28.84-2.44,51.69-16.25,51.69-16.25C1573.24,588.88,1567.55,557.06,1555.62,535.59Zm-139.3,14.29c1.09-27.26,14.43-41.59,42-45.09a6.57,6.57,0,0,1,5.1,1.39,6,6,0,0,1,2.07,6.21L1444.72,591a6.73,6.73,0,0,1-4.75,4.78c-.88.28-4,1-6.39-.94a6.21,6.21,0,0,1-.93-.92C1417.84,576.08,1416.43,552.51,1416.32,549.88Zm107.09,52c-2.49,1.42-24.93,13.75-49.65,12.91a8.08,8.08,0,0,1-1.34-.15,6.05,6.05,0,0,1-4.52-4.19,5.93,5.93,0,0,1,1.69-6.23l60.35-59.92a7.6,7.6,0,0,1,6.84-2,6.05,6.05,0,0,1,4.19,3C1553.38,567.61,1547.8,585.6,1523.41,601.88Z"/><rect class="cls-31" x="268.94" y="323.29" width="88.52" height="335.28" transform="translate(-108.18 89) rotate(-13.82)"/><path class="cls-5" d="M334.14,434.15l.94-.23L307.2,320.57l-67.7,16.65,27.88,113.35h0A66.51,66.51,0,0,1,293,547.49l-1.71.41,27.88,113.35,67.7-16.65L359,531.25l-.86.22a66.55,66.55,0,0,1-24-97.32Z"/><rect class="cls-6" x="222.21" y="281.81" width="90.79" height="47.79" transform="translate(-65.26 72.76) rotate(-13.82)"/><rect class="cls-6" x="208.18" y="275.56" width="105.76" height="7.05" transform="translate(-59.1 70.42) rotate(-13.82)"/><polygon class="cls-10" points="382.34 647.39 324.52 661.61 300.57 564.22 361.9 564.16 382.34 647.39"/><rect class="cls-6" x="313.32" y="652.28" width="90.79" height="47.79" transform="translate(868.54 1247.1) rotate(166.18)"/><rect class="cls-6" x="312.39" y="699.27" width="105.76" height="7.05" transform="translate(887.8 1298.02) rotate(166.18)"/><path class="cls-6" d="M1455.5,677.06c17.66,29.23,48.51,44.1,48.51,44.1,46.8,20.3,70.36-1.84,81.83-23.55,7.52-14.24-2.25-32.93-18.91-36.5l-87.57-18.8C1459,637.92,1444.48,658.83,1455.5,677.06Zm18.69-6a6,6,0,0,1,1-6.06,5.91,5.91,0,0,1,6.14-2l83.15,17.85a7.57,7.57,0,0,1,5.4,4.65,6,6,0,0,1-.21,5.14c-11.93,22.58-30,27.72-57,16.18-2.55-1.31-25.13-13.39-37.92-34.55A8.17,8.17,0,0,1,1474.19,671Z"/><path class="cls-5" d="M1321.22,681.2l-9.12-86.05a2.36,2.36,0,0,1,2.1-2.59l91.35-9.68a2.35,2.35,0,0,1,2.59,2.09l8.64,81.55"/><path class="cls-32" d="M1455.94,635.36,1270,690.08h0a24.34,24.34,0,0,0,22.06,8.16l167.57-28.75Z"/><path class="cls-6" d="M1482.51,654.59l81.27-26.89c15.46-5.12,20-24.5,8.67-37.83-17.26-20.33-46.57-39.93-87.21-15.45,0,0-26.36,17.62-35.8,48.14C1443.56,641.61,1463.57,660.86,1482.51,654.59Zm-12.91-26.91a6.61,6.61,0,0,1,.26-1.28c6.85-22.14,25.83-36.18,28-37.71,23.44-14,42.73-10.61,60.68,10.54a6.56,6.56,0,0,1,1.62,5,6,6,0,0,1-4.07,5.12l-77.17,25.54a6.71,6.71,0,0,1-6.59-1.37C1471.58,633,1469.27,630.79,1469.6,627.68Z"/><path class="cls-6" d="M1462.16,686.77s-26.3-32.72-10.42-70.1L1474,650Z"/></g></g></g></svg>