<svg xmlns="http://www.w3.org/2000/svg" xmlns:xlink="http://www.w3.org/1999/xlink" viewBox="0 0 1578.44 659.72"><defs><style>.cls-1,.cls-14,.cls-20{fill:none;}.cls-2{fill:#353535;}.cls-3{fill:#606060;}.cls-4{fill:#75964b;}.cls-5{fill:#868686;}.cls-6{isolation:isolate;font-size:143.05px;font-family:BebasNeue-Regular, Bebas Neue;}.cls-6,.cls-9{fill:#e9e6df;}.cls-7{letter-spacing:-0.09em;}.cls-8{letter-spacing:0em;}.cls-10{fill:#ff931d;}.cls-11{fill:#f4c32d;}.cls-12{fill:#ef3f7f;}.cls-13{clip-path:url(#clip-path);}.cls-14{stroke:#071a23;stroke-width:3px;}.cls-14,.cls-20{stroke-miterlimit:10;}.cls-15{fill:#015288;}.cls-16{fill:#f23c3c;}.cls-17{fill:#071a23;}.cls-18{fill:#f16b25;}.cls-19{fill:#a5a5a5;}.cls-20{stroke:#f3f2f1;stroke-width:1.71px;}.cls-21{fill:#f3f2f1;}.cls-22{clip-path:url(#clip-path-2);}</style><clipPath id="clip-path" transform="translate(-18.3 -39.81)"><polygon class="cls-1" points="1582.25 361.65 1330.79 341.35 1326.14 65.48 1602.97 47.62 1582.25 361.65"/></clipPath><clipPath id="clip-path-2" transform="translate(-18.3 -39.81)"><rect class="cls-1" width="334.11" height="403.16"/></clipPath></defs><title>Asset 20</title><g id="Layer_2" data-name="Layer 2"><g id="Layer_1-2" data-name="Layer 1"><path class="cls-2" d="M1455.46,442l66.91,185.75h0c-7.54-.08-14.41-4.63-17.93-11.89l-74.31-153.16Z" transform="translate(-18.3 -39.81)"/><path class="cls-3" d="M1432.84,457l157,101.49h0a23.51,23.51,0,0,0-7.91-21.26l-126.44-104.4Z" transform="translate(-18.3 -39.81)"/><path class="cls-4" d="M1463.6,431.1c10.25-31.3,1.72-63.2,1.72-63.2-14.61-47-45.61-50.27-68.7-45-15.14,3.45-22.65,22.36-14.78,36.79l41.34,75.83C1432.82,453.2,1457.21,450.63,1463.6,431.1Zm-16.16-9.88a5.87,5.87,0,0,1-5.09,3.06A5.72,5.72,0,0,1,1437,421l-39.26-72a7.29,7.29,0,0,1,0-6.88,5.85,5.85,0,0,1,3.89-3.08c24-5.48,39.17,4.53,47.68,31.49.65,2.69,6,26.79-1.4,49.46A8.15,8.15,0,0,1,1447.44,421.22Z" transform="translate(-18.3 -39.81)"/><path class="cls-4" d="M1430.18,425.49,1359.4,383c-13.47-8.09-30.49.79-33.11,17.46-4,25.41.11,59.16,43.57,73.46,0,0,29.47,8.19,57.71-4.12C1445.2,462.14,1446.68,435.39,1430.18,425.49Zm-11.55,26.37a6.12,6.12,0,0,1-1.1.61c-20.49,8.93-42.7,3.89-45.16,3.28-24.95-8.34-34.63-24.55-30.47-51a6.33,6.33,0,0,1,2.66-4.35,5.74,5.74,0,0,1,6.3-.25l67.22,40.34a6.47,6.47,0,0,1,3.14,5.68A6.79,6.79,0,0,1,1418.63,451.86Z" transform="translate(-18.3 -39.81)"/><path class="cls-4" d="M1466.51,420.12s-7.38,39.81-44.69,51.72l10.35-37.21Z" transform="translate(-18.3 -39.81)"/><path class="cls-5" d="M83.08,298a69.65,69.65,0,0,0-57.56,41.09l44.12-3.87a33.76,33.76,0,1,1,5.91,67.26l-44.12,3.88A69.66,69.66,0,0,0,153.93,393L343.16,376.4l-5.46-62.21L148.47,330.8A69.65,69.65,0,0,0,83.08,298Z" transform="translate(-18.3 -39.81)"/><g id="WHY_WE_RE_DAMN_GOOD_" data-name="WHY WE RE DAMN GOOD "><text class="cls-6" transform="translate(525.26 286.61)">FUL<tspan class="cls-7" x="155.93" y="0">L</tspan><tspan class="cls-8" x="192.55" y="0">Y ONLINE</tspan></text></g><polygon class="cls-9" points="494.4 319.55 606.47 318.97 608.78 355.36 573.54 355.36 575.28 456.22 529.06 457.38 527.56 356.87 495.56 355.36 494.4 319.55"/><path class="cls-9" d="M761.67,368.6l-16.75-7.51-93,1.73L645,374.38l-.58,115.53,9.24,10.4,101.09-1.74L764.56,487ZM686,461.6V393.44h32.35l2.89,68.16Z" transform="translate(-18.3 -39.81)"/><path class="cls-9" d="M891.78,362.31,796,361.65,785.9,373l0,114.63L796.1,498l96.81-.86,7.21-11.39.65-112.82ZM859,462.26l-35-.77,1.39-65.55,35.22.83Z" transform="translate(-18.3 -39.81)"/><polygon class="cls-9" points="905.26 320.27 907.57 457.18 1016.17 456.6 1017.33 412 950.32 415.01 948.59 320.27 905.26 320.27"/><polygon class="cls-9" points="1127.8 321.86 1128.96 361.26 1077.55 355.36 1072.35 364.61 1081.59 367.78 1132.08 377.77 1135.89 440.86 1111.63 455.3 1031.91 456.45 1031.34 411.92 1092.57 419.48 1091.99 408.51 1049.82 402.73 1031.91 385.98 1031.34 336.3 1053.86 320.13 1127.8 321.86"/><path class="cls-10" d="M324.31,380.2,109,474.59,70.23,505.7l50.6,3.68,218-96.44a18,18,0,0,0,10.77-17.07c0-.13,0-.26,0-.38C349,383,335.77,375.17,324.31,380.2Z" transform="translate(-18.3 -39.81)"/><polygon class="cls-11" points="102.53 469.57 37.5 476.19 90.68 434.78 102.53 469.57"/><polygon class="cls-5" points="62.15 473.42 37.46 476.04 57.59 460.22 62.15 473.42"/><path class="cls-12" d="M322.84,420.7s4.94-19.95-15.75-34.29l18.52-6.71a18.4,18.4,0,0,1,22.95,9.55h0A18.39,18.39,0,0,1,339,414Z" transform="translate(-18.3 -39.81)"/><g class="cls-13"><rect class="cls-11" x="1192.89" y="239.23" width="354.98" height="60.28" transform="translate(-40.61 125.01) rotate(-6.83)"/><line class="cls-14" x1="1336.07" y1="242.34" x2="1338.39" y2="261.74"/><line class="cls-14" x1="1426.62" y1="231.5" x2="1428.94" y2="250.9"/><line class="cls-14" x1="1409.53" y1="242.17" x2="1410.84" y2="253.06"/><line class="cls-14" x1="1391.24" y1="244.36" x2="1392.55" y2="255.25"/><line class="cls-14" x1="1372.96" y1="246.55" x2="1374.26" y2="257.44"/><line class="cls-14" x1="1354.67" y1="248.74" x2="1355.97" y2="259.63"/><line class="cls-14" x1="1244.07" y1="253.36" x2="1246.39" y2="272.75"/><line class="cls-14" x1="1317.54" y1="253.18" x2="1318.84" y2="264.08"/><line class="cls-14" x1="1299.25" y1="255.37" x2="1300.55" y2="266.27"/><line class="cls-14" x1="1280.96" y1="257.56" x2="1282.27" y2="268.46"/><line class="cls-14" x1="1262.67" y1="259.75" x2="1263.98" y2="270.65"/><line class="cls-14" x1="1516.84" y1="220.7" x2="1519.16" y2="240.09"/><line class="cls-14" x1="1499.75" y1="231.37" x2="1501.06" y2="242.26"/><line class="cls-14" x1="1481.47" y1="233.56" x2="1482.77" y2="244.45"/><line class="cls-14" x1="1463.18" y1="235.74" x2="1464.48" y2="246.64"/><line class="cls-14" x1="1444.89" y1="237.93" x2="1446.2" y2="248.83"/><rect class="cls-2" x="1546.54" y="216.54" width="17.3" height="61.4" transform="translate(-36.66 146.82) rotate(-6.83)"/><rect class="cls-3" x="1560.13" y="215.73" width="3.66" height="61.4" transform="translate(-36.52 147.62) rotate(-6.83)"/><rect class="cls-3" x="1372.88" y="124.17" width="16.86" height="152.75" transform="translate(898.61 -1155.53) rotate(62.31)"/><rect class="cls-15" x="1344.25" y="147.67" width="33.72" height="126.96" transform="translate(897.18 -1131.97) rotate(62.31)"/><circle class="cls-16" cx="1478.94" cy="99.88" r="60.51"/><circle class="cls-17" cx="1478.94" cy="99.88" r="46.57"/></g><path class="cls-18" d="M1329.69,314.62H1549.6a45.77,45.77,0,0,1,45.77,45.77v0a45.77,45.77,0,0,1-45.77,45.77H1329.69a0,0,0,0,1,0,0V314.62A0,0,0,0,1,1329.69,314.62Z" transform="translate(15.45 -156.36) rotate(4.62)"/><line class="cls-14" x1="1541.3" y1="328.41" x2="1576.63" y2="331.27"/><line class="cls-14" x1="1542.99" y1="307.55" x2="1578.32" y2="310.4"/><line class="cls-14" x1="1539.55" y1="350.11" x2="1574.88" y2="352.96"/><polygon class="cls-10" points="1338.04 266.06 1344.22 325.36 1360.57 267.88 1338.04 266.06"/><polygon class="cls-10" points="1386.44 269.97 1392.62 329.27 1408.97 271.79 1386.44 269.97"/><polygon class="cls-10" points="1436.51 274.02 1442.69 333.31 1459.04 275.83 1436.51 274.02"/><polygon class="cls-10" points="1475.97 368.75 1469.78 309.46 1453.43 366.94 1475.97 368.75"/><polygon class="cls-10" points="1427.57 364.85 1421.38 305.55 1405.04 363.03 1427.57 364.85"/><polygon class="cls-10" points="1377.5 360.8 1371.31 301.51 1354.96 358.98 1377.5 360.8"/><path class="cls-19" d="M1305.85,55.63H364.79a30,30,0,0,0-30,30V626.27a30,30,0,0,0,30,30h941.06a30,30,0,0,0,30-30V85.66A30,30,0,0,0,1305.85,55.63Zm14,577.31H350V89h969.82Z" transform="translate(-18.3 -39.81)"/><path class="cls-5" d="M284.59,616.34H1349.12a0,0,0,0,1,0,0v0a43.38,43.38,0,0,1-43.38,43.38H328a43.38,43.38,0,0,1-43.38-43.38v0a0,0,0,0,1,0,0Z"/><rect class="cls-20" x="408.59" y="93.09" width="799.38" height="434.99"/><polyline class="cls-20" points="1207.39 114.55 1225.15 114.55 1225.15 549.54 425.76 549.54 425.76 529.44"/><line class="cls-20" x1="410.39" y1="130.26" x2="1208.79" y2="130.26"/><circle class="cls-20" cx="429.77" cy="111" r="7.87"/><circle class="cls-20" cx="455.53" cy="111" r="7.87"/><circle class="cls-20" cx="482.72" cy="111" r="7.87"/><polygon class="cls-17" points="1195.94 289.5 1187.57 183.62 1267.64 253.37 1236.63 259.73 1252.43 290.48 1235.26 299.31 1219.45 268.54 1195.94 289.5"/><polygon class="cls-20" points="1195.94 289.5 1187.57 183.62 1267.64 253.37 1236.63 259.73 1252.43 290.48 1235.26 299.31 1219.45 268.54 1195.94 289.5"/><ellipse class="cls-17" cx="324.23" cy="494.91" rx="60.93" ry="62.45"/><path class="cls-21" d="M342.53,598c-34.07,0-61.78-28.4-61.78-63.3s27.71-63.3,61.78-63.3,61.79,28.39,61.79,63.3S376.6,598,342.53,598Zm0-124.89c-33.12,0-60.07,27.63-60.07,61.59s27,61.59,60.07,61.59,60.08-27.63,60.08-61.59S375.66,473.13,342.53,473.13Z" transform="translate(-18.3 -39.81)"/><path class="cls-21" d="M342.53,598c-13.25,0-23.63-27.81-23.63-63.3s10.38-63.3,23.63-63.3,23.64,27.8,23.64,63.3S355.79,598,342.53,598Zm0-124.89c-12.09,0-21.93,27.63-21.93,61.59s9.84,61.59,21.93,61.59,21.93-27.63,21.93-61.59S354.62,473.13,342.53,473.13Z" transform="translate(-18.3 -39.81)"/><rect class="cls-21" x="268.09" y="469.75" width="111.79" height="1.71"/><rect class="cls-21" x="268.58" y="518.36" width="111.79" height="1.71"/><path class="cls-21" d="M297.39,541.81h-2.61l-4-13.91h2.38l3,12.12,3-12.12h2.26l3,12.14,3-12.14h2.27l-4,13.91h-2.59l-2.16-8.35-.68-3.2h0l-.68,3.2Z" transform="translate(-18.3 -39.81)"/><path class="cls-21" d="M338.93,541.81h-2.61l-4-13.91h2.38l3,12.12,3-12.12h2.26l3,12.14,3-12.14h2.26l-4,13.91h-2.59l-2.16-8.35-.68-3.2h0l-.68,3.2Z" transform="translate(-18.3 -39.81)"/><path class="cls-21" d="M381.86,541.81h-2.61l-4-13.91h2.38l3,12.12,3-12.12h2.26l3,12.14,3-12.14h2.27l-4,13.91h-2.59l-2.16-8.35-.68-3.2h0l-.68,3.2Z" transform="translate(-18.3 -39.81)"/><polygon class="cls-2" points="316.02 328.18 139.11 340.73 135.8 300.68 316.02 284.53 316.02 328.18"/><g class="cls-22"><polygon class="cls-16" points="228.87 150.99 521.36 459.39 537.26 444.84 247.38 131.35 228.87 150.99"/><path class="cls-11" d="M192.46,93.14A14.55,14.55,0,0,1,171,112.78l-49.24-73Z" transform="translate(-18.3 -39.81)"/><path class="cls-4" d="M159.32,94h.06c.34-.08.67-.18,1-.27a1.66,1.66,0,0,1,.34-.25c0-.15-.05-.29-.08-.48-.16-.89-.32-1.77-.47-2.65-.41-2.48-.8-5-1.06-7.52A34.87,34.87,0,0,1,160.42,69L121.76,39.81,158.34,94C158.67,94,159,94,159.32,94Z" transform="translate(-18.3 -39.81)"/><path class="cls-4" d="M192.63,112.12a14.64,14.64,0,0,0,3.42-8A32.71,32.71,0,0,1,192.63,112.12Z" transform="translate(-18.3 -39.81)"/><polygon class="cls-2" points="166.88 78.3 228.87 150.99 247.38 131.35 177.97 67.35 166.88 78.3"/><path id="Path_363" data-name="Path 363" class="cls-5" d="M119.91,217.91,18.3,170.37l98.18,4.39-8.1,17.29,20,14.15Z" transform="translate(-18.3 -39.81)"/><path id="Path_364" data-name="Path 364" class="cls-15" d="M352.83,293.56l-205.46-111a10.51,10.51,0,0,0-12.14,1.55c-6.92,6.39-17.29,18.94-17.18,36.74a10.5,10.5,0,0,0,6.62,9.68L341.87,317a13,13,0,0,0,16-5.36c.24-.42.47-.85.68-1.29a12.93,12.93,0,0,0-5.75-16.8" transform="translate(-18.3 -39.81)"/></g><path class="cls-20" d="M423,240.34h0a4.59,4.59,0,0,0-4.46-3.51h-30a4.58,4.58,0,0,0-4.59,4.59V309a3.64,3.64,0,0,0,3.64,3.65h94.85a3.64,3.64,0,0,0,3.65-3.65V250.28a3.64,3.64,0,0,0-3.65-3.65H431A8.24,8.24,0,0,1,423,240.34Z" transform="translate(-18.3 -39.81)"/><path class="cls-20" d="M1208.32,536.71h0a4.59,4.59,0,0,0-4.46-3.51h-30a4.59,4.59,0,0,0-4.59,4.59v67.6A3.64,3.64,0,0,0,1173,609h94.84a3.64,3.64,0,0,0,3.65-3.64V546.65a3.64,3.64,0,0,0-3.65-3.65h-51.47A8.24,8.24,0,0,1,1208.32,536.71Z" transform="translate(-18.3 -39.81)"/></g></g></svg>