<svg xmlns="http://www.w3.org/2000/svg" viewBox="0 0 1932.11 1007.7"><defs><style>.cls-1{fill:#f16b25;}.cls-2{fill:none;stroke:#f23c3c;stroke-miterlimit:10;}.cls-3{opacity:0.54;}.cls-4{fill:#f23c3c;}</style></defs><title>Asset 22</title><g id="Layer_2" data-name="Layer 2"><g id="Layer_1-2" data-name="Layer 1"><rect class="cls-1" x="9.36" y="2.54" width="1919.59" height="1003.64"/><line class="cls-2" x1="68.25" x2="68.25" y2="1007.13"/><line class="cls-2" x1="145.84" x2="145.84" y2="1007.13"/><line class="cls-2" x1="223.43" x2="223.43" y2="1007.13"/><line class="cls-2" x1="301.02" x2="301.02" y2="1007.13"/><line class="cls-2" x1="378.61" x2="378.61" y2="1007.13"/><line class="cls-2" x1="455.72" x2="455.72" y2="1007.13"/><line class="cls-2" x1="533.31" x2="533.31" y2="1007.13"/><line class="cls-2" x1="610.9" x2="610.9" y2="1007.13"/><line class="cls-2" x1="688.49" x2="688.49" y2="1007.13"/><line class="cls-2" x1="766.08" x2="766.08" y2="1007.13"/><line class="cls-2" x1="845.12" x2="845.12" y2="1007.13"/><line class="cls-2" x1="922.71" x2="922.71" y2="1007.13"/><line class="cls-2" x1="1000.3" x2="1000.3" y2="1007.13"/><line class="cls-2" x1="1077.89" x2="1077.89" y2="1007.13"/><line class="cls-2" x1="1155.48" x2="1155.48" y2="1007.13"/><line class="cls-2" x1="1232.59" x2="1232.59" y2="1007.13"/><line class="cls-2" x1="1310.18" x2="1310.18" y2="1007.13"/><line class="cls-2" x1="1387.77" x2="1387.77" y2="1007.13"/><line class="cls-2" x1="1465.36" x2="1465.36" y2="1007.13"/><line class="cls-2" x1="1542.95" x2="1542.95" y2="1007.13"/><line class="cls-2" x1="1621.99" x2="1621.99" y2="1007.13"/><line class="cls-2" x1="1699.58" x2="1699.58" y2="1007.13"/><line class="cls-2" x1="1777.17" x2="1777.17" y2="1007.13"/><line class="cls-2" x1="1854.76" x2="1854.76" y2="1007.13"/><line class="cls-2" x1="1928.08" y1="80" y2="80"/><line class="cls-2" x1="1928.08" y1="157.59" y2="157.59"/><line class="cls-2" x1="1928.08" y1="235.18" y2="235.18"/><line class="cls-2" x1="1928.08" y1="312.77" y2="312.77"/><line class="cls-2" x1="1928.08" y1="389.88" y2="389.88"/><line class="cls-2" x1="1928.08" y1="467.47" y2="467.47"/><line class="cls-2" x1="1928.08" y1="545.06" y2="545.06"/><line class="cls-2" x1="1928.08" y1="619.73" y2="619.73"/><line class="cls-2" x1="1928.08" y1="697.32" y2="697.32"/><line class="cls-2" x1="1928.08" y1="774.91" y2="774.91"/><line class="cls-2" x1="1928.08" y1="852.02" y2="852.02"/><line class="cls-2" x1="1928.08" y1="929.61" y2="929.61"/><line class="cls-2" x1="1928.08" y1="1007.2" y2="1007.2"/><g class="cls-3"><polygon class="cls-4" points="985.51 411.53 7.65 2.3 650.63 2.3 985.51 411.53"/><polygon class="cls-4" points="844.86 0.07 985.51 411.53 1079.28 0.07 844.86 0.07"/><polygon class="cls-4" points="1925.41 2.3 985.51 411.53 1235.56 0.07 1925.41 2.3"/><polygon class="cls-4" points="985.51 409.86 7.65 819.08 7.65 1004.49 496.58 1006.72 985.51 409.86"/><polygon class="cls-4" points="764.49 1003.93 985.51 409.86 1155.18 1004.49 764.49 1003.93"/><polygon class="cls-4" points="1925.41 819.08 985.51 409.86 1338.25 1004.49 1929.88 1004.49 1925.41 819.08"/><polygon class="cls-4" points="1932.11 233.92 985.51 411.53 1932.11 545.71 1932.11 233.92"/><polygon class="cls-4" points="7.65 240.6 3.19 545.71 985.51 411.53 7.65 240.6"/></g></g></g></svg>