<svg xmlns="http://www.w3.org/2000/svg" xmlns:xlink="http://www.w3.org/1999/xlink" viewBox="0 0 1735.4 894.14"><defs><style>.cls-1,.cls-11,.cls-18,.cls-6,.cls-8,.cls-9{fill:none;}.cls-2{fill:#f3f2f1;}.cls-3{isolation:isolate;}.cls-4{fill:#081f2f;}.cls-5{fill:#015288;}.cls-11,.cls-18,.cls-6,.cls-8{stroke:#e9e6df;}.cls-11,.cls-18,.cls-6,.cls-8,.cls-9{stroke-miterlimit:10;}.cls-6{stroke-width:3.33px;}.cls-7{fill:#62b0e2;}.cls-8{stroke-width:4.71px;}.cls-9{stroke:#071a23;stroke-width:1.79px;}.cls-10{fill:#a5a5a5;}.cls-11{stroke-width:2.59px;}.cls-12{clip-path:url(#clip-path);}.cls-13{fill:#e9e6df;}.cls-14{fill:#75964b;}.cls-15{fill:#071a23;}.cls-16{fill:#ff931d;}.cls-17{fill:#f23c3c;}.cls-18{stroke-width:4.72px;}</style><clipPath id="clip-path"><rect class="cls-1" x="17.32" y="531.48" width="430.2" height="253.91"/></clipPath></defs><title>Asset 23</title><g id="Layer_2" data-name="Layer 2"><g id="Layer_1-2" data-name="Layer 1"><rect class="cls-2" x="387.47" y="78.48" width="1006.45" height="535.67" rx="15.2"/><rect class="cls-2" x="387.64" y="46.1" width="35.16" height="56.93"/><rect class="cls-2" x="433.88" y="46.1" width="35.16" height="56.93"/><rect class="cls-2" x="480.12" y="46.1" width="35.16" height="56.93"/><rect class="cls-2" x="526.37" y="46.1" width="35.16" height="56.93"/><rect class="cls-2" x="572.61" y="46.1" width="35.16" height="56.93"/><rect class="cls-2" x="618.86" y="46.1" width="35.16" height="56.93"/><rect class="cls-2" x="665.1" y="46.1" width="35.16" height="56.93"/><rect class="cls-2" x="711.34" y="46.1" width="35.16" height="56.93"/><rect class="cls-2" x="757.59" y="46.1" width="35.16" height="56.93"/><rect class="cls-2" x="803.83" y="46.1" width="35.16" height="56.93"/><rect class="cls-2" x="850.08" y="46.1" width="35.16" height="56.93"/><rect class="cls-2" x="896.32" y="46.1" width="35.16" height="56.93"/><rect class="cls-2" x="942.56" y="46.1" width="35.16" height="56.93"/><rect class="cls-2" x="988.81" y="46.1" width="35.16" height="56.93"/><rect class="cls-2" x="1035.05" y="46.1" width="35.16" height="56.93"/><rect class="cls-2" x="1081.3" y="46.1" width="35.16" height="56.93"/><rect class="cls-2" x="1127.54" y="46.1" width="35.16" height="56.93"/><rect class="cls-2" x="1173.78" y="46.1" width="35.16" height="56.93"/><rect class="cls-2" x="1220.03" y="46.1" width="35.16" height="56.93"/><rect class="cls-2" x="1266.27" y="46.1" width="35.16" height="56.93"/><rect class="cls-2" x="1312.52" y="46.1" width="35.16" height="56.93"/><rect class="cls-2" x="1358.76" y="46.1" width="35.16" height="56.93"/><polygon class="cls-2" points="581.27 599.44 581.27 711.07 695.13 599.44 581.27 599.44"/><g id="WHY_WE_RE_DAMN_GOOD_" data-name="WHY WE RE DAMN GOOD " class="cls-3"><g class="cls-3"><path class="cls-4" d="M589.29,196.44h41.63v14.31H605v27.89h20.31V253H605v43.63H589.29Z"/><path class="cls-4" d="M638.5,196.44h42.92v14.31H654.24v26.46h21.6v14.31h-21.6v30.75h27.18v14.31H638.5Z"/><path class="cls-4" d="M690.43,196.44h42.91v14.31H706.16v26.46h21.6v14.31h-21.6v30.75h27.18v14.31H690.43Z"/><path class="cls-4" d="M742.35,196.44h24q11.73,0,17.59,6.3t5.87,18.45v50.64q0,12.17-5.87,18.46t-17.59,6.29h-24Zm23.75,85.83A7.6,7.6,0,0,0,772,280q2.07-2.28,2.07-7.43V220.48q0-5.16-2.07-7.44a7.6,7.6,0,0,0-5.94-2.29h-8v71.52Z"/><path class="cls-4" d="M800.43,196.44h23.75q12.15,0,17.74,5.65t5.58,17.38v4q0,7.72-2.51,12.59a14.69,14.69,0,0,1-7.65,7v.28q11.73,4,11.73,20.89v8.58q0,11.6-6.08,17.67t-17.81,6.08H800.43Zm21.89,40.77q4.73,0,7.08-2.43t2.36-8.15v-5.58q0-5.45-1.93-7.87c-1.29-1.62-3.31-2.43-6.08-2.43h-7.58v26.46Zm2.86,45.06c2.77,0,4.82-.73,6.15-2.21s2-4,2-7.66v-8.72c0-4.58-.78-7.75-2.36-9.52s-4.17-2.64-7.79-2.64h-7v30.75Z"/><path class="cls-4" d="M870.38,196.44H891.7L908,296.58H892.27l-2.86-19.89V277H871.53l-2.86,19.6H854.08Zm17.17,66.95-7-49.5h-.28l-6.87,49.5Z"/><path class="cls-4" d="M920.24,291.57q-5.94-6.44-5.94-18.17V219.62q0-11.73,5.94-18.17T937.48,195q11.29,0,17.23,6.44t5.94,18.17V230.2H945.77V218.61q0-9.29-7.86-9.29T930,218.61v55.94q0,9.15,7.87,9.15t7.86-9.15V259.24h14.88V273.4q0,11.75-5.94,18.17T937.48,298Q926.17,298,920.24,291.57Z"/><path class="cls-4" d="M970.09,196.44h15.74v42.2l20-42.2h15.73l-18.74,36.77,19,63.37h-16.45L992.12,252l-6.29,12.73v31.9H970.09Z"/><path class="cls-4" d="M1052.2,196.44h15.74V296.58H1052.2Z"/><path class="cls-4" d="M1079.66,196.44h19.75l15.3,59.94h.29V196.44h14V296.58h-16.17L1094,223.48h-.29v73.1h-14Z"/><path class="cls-4" d="M1175.79,196.44h21.32l16.31,100.14h-15.74l-2.86-19.89V277h-17.88l-2.86,19.6h-14.59ZM1193,263.39l-7-49.5h-.29l-6.86,49.5Z"/></g></g><path class="cls-4" d="M936.66,328.19H842.55l-11,141.74,41.83-1.16V433.92l34.28-.59,1.74,35.44,42.41-.58Zm-63.9,75.52,4.65-33.7,22.65-1.74,7,35.44Z"/><path class="cls-4" d="M1160.77,381.81h-31.85l.38-49.62h-40l-1.33,141.75,41.83-1.16v-46.2L1164,426l1.75,46.78,42.4-.58-.53-140h-46.37Z"/><polygon class="cls-4" points="632.79 472.88 633.95 423.92 675.78 420.44 674.62 389.65 632.79 388.49 632.79 373.96 692.63 371.64 691.47 338.53 590.38 338.53 590.38 473.88 632.79 472.88"/><polygon class="cls-4" points="706.68 336.67 709.01 474.35 818.22 473.77 819.38 428.92 752 431.94 750.25 336.67 706.68 336.67"/><polygon class="cls-4" points="1062.69 335.34 1063.85 374.96 1012.15 369.03 1006.92 378.33 1016.21 381.52 1066.99 391.57 1070.82 455.01 1046.42 469.54 966.25 470.7 965.67 425.91 1027.25 433.52 1026.67 422.48 984.26 416.67 966.25 399.82 965.67 349.86 988.33 333.6 1062.69 335.34"/><circle class="cls-5" cx="1398.63" cy="613.58" r="75.76"/><line class="cls-6" x1="1376.97" y1="598.27" x2="1376.97" y2="634.33"/><polyline class="cls-6" points="1413.25 642.7 1413.25 583.62 1398.3 588.27"/><line class="cls-6" x1="1395" y1="616.3" x2="1358.94" y2="616.3"/><line class="cls-6" x1="1399.66" y1="641.78" x2="1427.26" y2="641.78"/><polygon class="cls-7" points="1339.8 375.63 1339.8 437.07 1400.28 376.58 1339.8 375.63"/><rect class="cls-7" x="1298.91" y="155.64" width="334.83" height="224.89"/><line class="cls-8" x1="1340.68" y1="206.98" x2="1585.23" y2="206.98"/><line class="cls-8" x1="1340.68" y1="236.86" x2="1541.27" y2="236.86"/><line class="cls-8" x1="1340.68" y1="266.75" x2="1585.23" y2="266.75"/><line class="cls-8" x1="1340.68" y1="296.64" x2="1561.36" y2="296.64"/><line class="cls-8" x1="1340.68" y1="326.53" x2="1487.69" y2="326.53"/><polygon class="cls-9" points="78.69 109.61 358.29 109.61 358.29 297.41 324.14 297.41 324.14 344.62 276.93 297.41 78.69 297.41 78.69 109.61"/><rect class="cls-10" y="511.51" width="466.3" height="291.64"/><rect class="cls-10" x="141.48" y="878.18" width="183.34" height="15.96"/><path class="cls-10" d="M252.66,780.18,234,778.62v-.14l-.85.07-.85-.07v.14l-18.67,1.56s13.58,81.87-44.12,100.63H296.79C239.09,862.05,252.66,780.18,252.66,780.18Z"/><rect class="cls-4" x="18.05" y="529.64" width="430.2" height="255.36"/><polyline class="cls-11" points="176.52 626.79 194.23 612.43 212.32 626.94"/><polyline class="cls-11" points="257.7 626.79 275.41 612.43 293.5 626.94"/><polyline class="cls-11" points="127.71 685.72 127.71 656.6 108.95 656.6 108.95 623.23 127.38 623.23 127.38 597.88 144.36 597.88 144.36 576.12 163.13 576.12 163.13 556.49 306.05 556.49 306.05 576.12 322.7 576.12 322.7 597.21 339.69 597.21 339.69 622.31 359.9 622.31 359.9 656.12 339.02 656.12 339.02 686.05"/><polyline class="cls-11" points="94.31 703.27 94.31 687.07 80.12 687.07 80.12 669.66 65.69 669.66 65.69 652.97 48.36 652.97 48.36 584.05 59.91 584.05 59.91 567.37 71.46 567.37 71.46 551.41 85.9 551.41 85.9 528.92"/><polyline class="cls-11" points="371.26 703.27 371.26 687.07 385.45 687.07 385.45 669.66 399.89 669.66 399.89 652.97 417.21 652.97 417.21 584.05 405.66 584.05 405.66 567.37 394.11 567.37 394.11 551.41 379.68 551.41 379.68 528.92"/><polyline class="cls-11" points="233.58 629.76 233.58 643.54 220.59 643.54 220.59 656.6"/><g class="cls-12"><path class="cls-2" d="M170.44,839.71l65.24-36.77A13.88,13.88,0,0,0,241,784.1L178.3,671.81a13.74,13.74,0,0,0-18.75-5.31L94.31,703.27A13.89,13.89,0,0,0,89,722.12l62.66,112.29A13.73,13.73,0,0,0,170.44,839.71Z"/><rect class="cls-13" x="182.08" y="656.71" width="102.34" height="156.43" rx="13.81" transform="translate(452.09 1474.28) rotate(-178.88)"/><path class="cls-2" d="M230,801.38l64.94,37.29a13.73,13.73,0,0,0,18.79-5.15l63.55-111.78a13.88,13.88,0,0,0-5.12-18.89l-64.94-37.29a13.73,13.73,0,0,0-18.79,5.15L224.87,782.49A13.89,13.89,0,0,0,230,801.38Z"/></g><polygon class="cls-9" points="1731.04 160.23 1578.11 347.63 1608.25 342.02 1551.32 437.4 1585.92 431.79 1501.08 586.65 1671.88 385.78 1640.62 389.15 1698.66 296.01 1660.71 301.62 1731.04 160.23"/><ellipse class="cls-9" cx="1126.02" cy="616.18" rx="144.05" ry="82.05"/><circle class="cls-14" cx="1126.02" cy="616.18" r="54.42"/><circle class="cls-15" cx="1126.02" cy="616.18" r="31.25"/><rect class="cls-16" x="60.51" y="245.58" width="150.58" height="150.58"/><polyline class="cls-9" points="88.92 282.49 117.38 277.47 135.8 287.52 159.25 282.49 179.34 284.17"/><polyline class="cls-9" points="93.94 315.98 117.38 314.31 129.1 322.68 144.18 319.27 157.57 322.68 181.01 317.66"/><line class="cls-9" x1="94.09" y1="356.09" x2="114.19" y2="356.09"/><line class="cls-9" x1="127.51" y1="356.09" x2="147.6" y2="356.09"/><line class="cls-9" x1="159.32" y1="356.09" x2="179.41" y2="356.09"/><circle class="cls-17" cx="389.61" cy="204.44" r="77.8"/><path id="Path_985" data-name="Path 985" class="cls-18" d="M431.61,202.53A46.89,46.89,0,0,1,425,215a98.32,98.32,0,0,1-12.89,14.31,211,211,0,0,1-20.55,16.58c-.73.54-.53.54-1.31,0-6-4.33-11.87-8.83-17.41-13.73a105.84,105.84,0,0,1-15.46-16.41,48,48,0,0,1-7.13-13.18,27.53,27.53,0,0,1-1.53-9.3,23.81,23.81,0,0,1,4.67-13.6,20.57,20.57,0,0,1,17.09-9,23.78,23.78,0,0,1,14.33,5,50.21,50.21,0,0,1,5.32,5.09c.93,1,.64,1,1.56,0a43.48,43.48,0,0,1,6.09-5.65,23.46,23.46,0,0,1,11.72-4.36A20,20,0,0,1,426.23,177a23.93,23.93,0,0,1,6.69,13.54A25.91,25.91,0,0,1,431.61,202.53Z"/><rect class="cls-16" x="1129.42" width="150.58" height="150.58"/><polyline class="cls-9" points="1159.5 41.86 1187.97 36.84 1206.39 46.88 1229.83 41.86 1249.92 43.53"/><polyline class="cls-9" points="1164.53 75.35 1187.97 73.67 1199.69 82.05 1214.76 78.64 1228.15 82.05 1251.6 77.02"/><line class="cls-9" x1="1164.68" y1="115.46" x2="1184.77" y2="115.46"/><line class="cls-9" x1="1198.09" y1="115.46" x2="1218.18" y2="115.46"/><line class="cls-9" x1="1229.9" y1="115.46" x2="1250" y2="115.46"/><rect class="cls-16" x="1556.4" y="586.05" width="150.58" height="150.58"/><line class="cls-9" x1="1583.41" y1="610.88" x2="1583.41" y2="644.37"/><line class="cls-9" x1="1595.13" y1="610.88" x2="1595.13" y2="644.37"/><line class="cls-9" x1="1608.53" y1="610.88" x2="1608.53" y2="644.37"/><line class="cls-9" x1="1622.76" y1="610.88" x2="1622.76" y2="644.37"/><line class="cls-9" x1="1652.06" y1="610.88" x2="1652.06" y2="644.37"/><line class="cls-9" x1="1569.74" y1="636.28" x2="1631.69" y2="617.02"/></g></g></svg>