<svg xmlns="http://www.w3.org/2000/svg" viewBox="0 0 1932.28 869.58"><defs><style>.cls-1{fill:#081f2f;}.cls-2{fill:#f4c32d;opacity:0.21;}.cls-3{opacity:0.48;}.cls-4{fill:#fff;}</style></defs><title>Asset 27</title><g id="Layer_2" data-name="Layer 2"><g id="Layer_1-2" data-name="Layer 1"><rect id="Rectangle_47" data-name="Rectangle 47" class="cls-1" x="4.98" y="1.53" width="1920" height="868.05"/><path class="cls-2" d="M234.41,793.48l-18-67.45a116,116,0,0,0-90.87-84.17h0a116,116,0,0,1-90.86-84.15L0,427.53,2.23,0H1920l12.28,407.44-50.1,91.09a242.58,242.58,0,0,0-28.7,91.51h0A242.59,242.59,0,0,1,1706.8,788l-8,3.4Z"/><g class="cls-3"><circle class="cls-4" cx="607.23" cy="57.63" r="0.84"/><circle class="cls-4" cx="529.57" cy="57.63" r="0.84"/><circle class="cls-4" cx="451.92" cy="57.63" r="0.84"/><circle class="cls-4" cx="374.26" cy="57.63" r="0.84"/><circle class="cls-4" cx="840.19" cy="57.63" r="0.84"/><circle class="cls-4" cx="762.54" cy="57.63" r="0.84"/><circle class="cls-4" cx="684.88" cy="57.63" r="0.84"/><circle class="cls-4" cx="1150.81" cy="57.63" r="0.84"/><circle class="cls-4" cx="1073.16" cy="57.63" r="0.84"/><circle class="cls-4" cx="995.5" cy="57.63" r="0.84"/><circle class="cls-4" cx="917.85" cy="57.63" r="0.84"/><circle class="cls-4" cx="296.61" cy="57.63" r="0.84"/><circle class="cls-4" cx="218.95" cy="57.63" r="0.84"/><circle class="cls-4" cx="141.3" cy="57.63" r="0.84"/><circle class="cls-4" cx="63.64" cy="57.63" r="0.84"/><circle class="cls-4" cx="607.23" cy="135.28" r="0.84"/><circle class="cls-4" cx="529.57" cy="135.28" r="0.84"/><circle class="cls-4" cx="451.92" cy="135.28" r="0.84"/><circle class="cls-4" cx="374.26" cy="135.28" r="0.84"/><circle class="cls-4" cx="840.19" cy="135.28" r="0.84"/><circle class="cls-4" cx="762.54" cy="135.28" r="0.84"/><circle class="cls-4" cx="684.88" cy="135.28" r="0.84"/><circle class="cls-4" cx="1150.81" cy="135.28" r="0.84"/><circle class="cls-4" cx="1073.16" cy="135.28" r="0.84"/><circle class="cls-4" cx="995.5" cy="135.28" r="0.84"/><circle class="cls-4" cx="917.85" cy="135.28" r="0.84"/><circle class="cls-4" cx="296.61" cy="135.28" r="0.84"/><circle class="cls-4" cx="218.95" cy="135.28" r="0.84"/><circle class="cls-4" cx="141.3" cy="135.28" r="0.84"/><circle class="cls-4" cx="63.64" cy="135.28" r="0.84"/><circle class="cls-4" cx="1150.81" cy="372.41" r="0.84"/><circle class="cls-4" cx="1073.16" cy="372.41" r="0.84"/><circle class="cls-4" cx="607.23" cy="212.94" r="0.84"/><circle class="cls-4" cx="529.57" cy="212.94" r="0.84"/><circle class="cls-4" cx="451.92" cy="212.94" r="0.84"/><circle class="cls-4" cx="374.26" cy="212.94" r="0.84"/><circle class="cls-4" cx="840.19" cy="212.94" r="0.84"/><circle class="cls-4" cx="762.54" cy="212.94" r="0.84"/><circle class="cls-4" cx="684.88" cy="212.94" r="0.84"/><circle class="cls-4" cx="1150.81" cy="212.94" r="0.84"/><circle class="cls-4" cx="1073.16" cy="212.94" r="0.84"/><circle class="cls-4" cx="995.5" cy="212.94" r="0.84"/><circle class="cls-4" cx="917.85" cy="212.94" r="0.84"/><circle class="cls-4" cx="296.61" cy="212.94" r="0.84"/><circle class="cls-4" cx="218.95" cy="212.94" r="0.84"/><circle class="cls-4" cx="141.3" cy="212.94" r="0.84"/><circle class="cls-4" cx="63.64" cy="212.94" r="0.84"/><circle class="cls-4" cx="607.23" cy="290.59" r="0.84"/><circle class="cls-4" cx="529.57" cy="290.59" r="0.84"/><circle class="cls-4" cx="451.92" cy="290.59" r="0.84"/><circle class="cls-4" cx="374.26" cy="290.59" r="0.84"/><circle class="cls-4" cx="840.19" cy="290.59" r="0.84"/><circle class="cls-4" cx="762.54" cy="290.59" r="0.84"/><circle class="cls-4" cx="684.88" cy="290.59" r="0.84"/><circle class="cls-4" cx="1150.81" cy="290.59" r="0.84"/><circle class="cls-4" cx="1073.16" cy="290.59" r="0.84"/><circle class="cls-4" cx="995.5" cy="290.59" r="0.84"/><circle class="cls-4" cx="917.85" cy="290.59" r="0.84"/><circle class="cls-4" cx="296.61" cy="290.59" r="0.84"/><circle class="cls-4" cx="218.95" cy="290.59" r="0.84"/><circle class="cls-4" cx="141.3" cy="290.59" r="0.84"/><circle class="cls-4" cx="63.64" cy="290.59" r="0.84"/><circle class="cls-4" cx="607.23" cy="368.25" r="0.84"/><circle class="cls-4" cx="529.57" cy="368.25" r="0.84"/><circle class="cls-4" cx="451.92" cy="368.25" r="0.84"/><circle class="cls-4" cx="374.26" cy="368.25" r="0.84"/><circle class="cls-4" cx="840.19" cy="368.25" r="0.84"/><circle class="cls-4" cx="762.54" cy="368.25" r="0.84"/><circle class="cls-4" cx="684.88" cy="368.25" r="0.84"/><circle class="cls-4" cx="917.85" cy="368.25" r="0.84"/><circle class="cls-4" cx="296.61" cy="368.25" r="0.84"/><circle class="cls-4" cx="218.95" cy="368.25" r="0.84"/><circle class="cls-4" cx="141.3" cy="368.25" r="0.84"/><circle class="cls-4" cx="63.64" cy="368.25" r="0.84"/><circle class="cls-4" cx="1228.47" cy="57.63" r="0.84"/><circle class="cls-4" cx="1228.47" cy="135.28" r="0.84"/><circle class="cls-4" cx="1228.47" cy="212.94" r="0.84"/><circle class="cls-4" cx="1228.47" cy="290.59" r="0.84"/><circle class="cls-4" cx="991.84" cy="368.25" r="0.84"/><circle class="cls-4" cx="607.23" cy="445.9" r="0.84"/><circle class="cls-4" cx="529.57" cy="445.9" r="0.84"/><circle class="cls-4" cx="451.92" cy="445.9" r="0.84"/><circle class="cls-4" cx="374.26" cy="445.9" r="0.84"/><circle class="cls-4" cx="840.19" cy="445.9" r="0.84"/><circle class="cls-4" cx="762.54" cy="445.9" r="0.84"/><circle class="cls-4" cx="684.88" cy="445.9" r="0.84"/><circle class="cls-4" cx="1150.81" cy="445.9" r="0.84"/><circle class="cls-4" cx="1073.16" cy="445.9" r="0.84"/><circle class="cls-4" cx="995.5" cy="445.9" r="0.84"/><circle class="cls-4" cx="917.85" cy="445.9" r="0.84"/><circle class="cls-4" cx="296.61" cy="445.9" r="0.84"/><circle class="cls-4" cx="218.95" cy="445.9" r="0.84"/><circle class="cls-4" cx="141.3" cy="445.9" r="0.84"/><circle class="cls-4" cx="63.64" cy="445.9" r="0.84"/></g><g class="cls-3"><circle class="cls-4" cx="607.23" cy="445.04" r="0.84"/><circle class="cls-4" cx="529.57" cy="445.04" r="0.84"/><circle class="cls-4" cx="451.92" cy="445.04" r="0.84"/><circle class="cls-4" cx="374.26" cy="445.04" r="0.84"/><circle class="cls-4" cx="840.19" cy="445.04" r="0.84"/><circle class="cls-4" cx="762.54" cy="445.04" r="0.84"/><circle class="cls-4" cx="684.88" cy="445.04" r="0.84"/><circle class="cls-4" cx="1150.81" cy="445.04" r="0.84"/><circle class="cls-4" cx="1073.16" cy="445.04" r="0.84"/><circle class="cls-4" cx="995.5" cy="445.04" r="0.84"/><circle class="cls-4" cx="917.85" cy="445.04" r="0.84"/><circle class="cls-4" cx="296.61" cy="445.04" r="0.84"/><circle class="cls-4" cx="218.95" cy="445.04" r="0.84"/><circle class="cls-4" cx="141.3" cy="445.04" r="0.84"/><circle class="cls-4" cx="63.64" cy="445.04" r="0.84"/><circle class="cls-4" cx="607.23" cy="522.7" r="0.84"/><circle class="cls-4" cx="529.57" cy="522.7" r="0.84"/><circle class="cls-4" cx="451.92" cy="522.7" r="0.84"/><circle class="cls-4" cx="374.26" cy="522.7" r="0.84"/><circle class="cls-4" cx="840.19" cy="522.7" r="0.84"/><circle class="cls-4" cx="762.54" cy="522.7" r="0.84"/><circle class="cls-4" cx="684.88" cy="522.7" r="0.84"/><circle class="cls-4" cx="1150.81" cy="522.7" r="0.84"/><circle class="cls-4" cx="1073.16" cy="522.7" r="0.84"/><circle class="cls-4" cx="995.5" cy="522.7" r="0.84"/><circle class="cls-4" cx="917.85" cy="522.7" r="0.84"/><circle class="cls-4" cx="296.61" cy="522.7" r="0.84"/><circle class="cls-4" cx="218.95" cy="522.7" r="0.84"/><circle class="cls-4" cx="141.3" cy="522.7" r="0.84"/><circle class="cls-4" cx="63.64" cy="522.7" r="0.84"/><circle class="cls-4" cx="1228.47" cy="445.04" r="0.84"/><circle class="cls-4" cx="1228.47" cy="522.7" r="0.84"/></g><g class="cls-3"><circle class="cls-4" cx="1694.69" cy="57.63" r="0.84"/><circle class="cls-4" cx="1617.04" cy="57.63" r="0.84"/><circle class="cls-4" cx="1539.38" cy="57.63" r="0.84"/><circle class="cls-4" cx="1461.73" cy="57.63" r="0.84"/><circle class="cls-4" cx="1850" cy="57.63" r="0.84"/><circle class="cls-4" cx="1772.35" cy="57.63" r="0.84"/><circle class="cls-4" cx="1384.07" cy="57.63" r="0.84"/><circle class="cls-4" cx="1306.42" cy="57.63" r="0.84"/><circle class="cls-4" cx="1228.76" cy="57.63" r="0.84"/><circle class="cls-4" cx="1151.11" cy="57.63" r="0.84"/><circle class="cls-4" cx="1694.69" cy="135.28" r="0.84"/><circle class="cls-4" cx="1617.04" cy="135.28" r="0.84"/><circle class="cls-4" cx="1539.38" cy="135.28" r="0.84"/><circle class="cls-4" cx="1461.73" cy="135.28" r="0.84"/><circle class="cls-4" cx="1850" cy="135.28" r="0.84"/><circle class="cls-4" cx="1772.35" cy="135.28" r="0.84"/><circle class="cls-4" cx="1384.07" cy="135.28" r="0.84"/><circle class="cls-4" cx="1306.42" cy="135.28" r="0.84"/><circle class="cls-4" cx="1228.76" cy="135.28" r="0.84"/><circle class="cls-4" cx="1151.11" cy="135.28" r="0.84"/><circle class="cls-4" cx="1694.69" cy="212.94" r="0.84"/><circle class="cls-4" cx="1617.04" cy="212.94" r="0.84"/><circle class="cls-4" cx="1539.38" cy="212.94" r="0.84"/><circle class="cls-4" cx="1461.73" cy="212.94" r="0.84"/><circle class="cls-4" cx="1850" cy="212.94" r="0.84"/><circle class="cls-4" cx="1772.35" cy="212.94" r="0.84"/><circle class="cls-4" cx="1384.07" cy="212.94" r="0.84"/><circle class="cls-4" cx="1306.42" cy="212.94" r="0.84"/><circle class="cls-4" cx="1228.76" cy="212.94" r="0.84"/><circle class="cls-4" cx="1151.11" cy="212.94" r="0.84"/><circle class="cls-4" cx="1694.69" cy="290.59" r="0.84"/><circle class="cls-4" cx="1617.04" cy="290.59" r="0.84"/><circle class="cls-4" cx="1539.38" cy="290.59" r="0.84"/><circle class="cls-4" cx="1461.73" cy="290.59" r="0.84"/><circle class="cls-4" cx="1850" cy="290.59" r="0.84"/><circle class="cls-4" cx="1772.35" cy="290.59" r="0.84"/><circle class="cls-4" cx="1384.07" cy="290.59" r="0.84"/><circle class="cls-4" cx="1306.42" cy="290.59" r="0.84"/><circle class="cls-4" cx="1228.76" cy="290.59" r="0.84"/><circle class="cls-4" cx="1151.11" cy="290.59" r="0.84"/><circle class="cls-4" cx="1694.69" cy="368.25" r="0.84"/><circle class="cls-4" cx="1617.04" cy="368.25" r="0.84"/><circle class="cls-4" cx="1539.38" cy="368.25" r="0.84"/><circle class="cls-4" cx="1461.73" cy="368.25" r="0.84"/><circle class="cls-4" cx="1850" cy="368.25" r="0.84"/><circle class="cls-4" cx="1772.35" cy="368.25" r="0.84"/><circle class="cls-4" cx="1384.07" cy="368.25" r="0.84"/><circle class="cls-4" cx="1306.42" cy="368.25" r="0.84"/><circle class="cls-4" cx="1228.76" cy="368.25" r="0.84"/><circle class="cls-4" cx="1151.11" cy="368.25" r="0.84"/><circle class="cls-4" cx="1694.69" cy="445.9" r="0.84"/><circle class="cls-4" cx="1617.04" cy="445.9" r="0.84"/><circle class="cls-4" cx="1539.38" cy="445.9" r="0.84"/><circle class="cls-4" cx="1461.73" cy="445.9" r="0.84"/><circle class="cls-4" cx="1850" cy="445.9" r="0.84"/><circle class="cls-4" cx="1772.35" cy="445.9" r="0.84"/><circle class="cls-4" cx="1384.07" cy="445.9" r="0.84"/><circle class="cls-4" cx="1306.42" cy="445.9" r="0.84"/><circle class="cls-4" cx="1228.76" cy="445.9" r="0.84"/><circle class="cls-4" cx="1151.11" cy="445.9" r="0.84"/></g><g class="cls-3"><circle class="cls-4" cx="1694.69" cy="445.04" r="0.84"/><circle class="cls-4" cx="1617.04" cy="445.04" r="0.84"/><circle class="cls-4" cx="1539.38" cy="445.04" r="0.84"/><circle class="cls-4" cx="1461.73" cy="445.04" r="0.84"/><circle class="cls-4" cx="1850" cy="445.04" r="0.84"/><circle class="cls-4" cx="1772.35" cy="445.04" r="0.84"/><circle class="cls-4" cx="1384.07" cy="445.04" r="0.84"/><circle class="cls-4" cx="1306.42" cy="445.04" r="0.84"/><circle class="cls-4" cx="1228.76" cy="445.04" r="0.84"/><circle class="cls-4" cx="1151.11" cy="445.04" r="0.84"/><circle class="cls-4" cx="1694.69" cy="522.7" r="0.84"/><circle class="cls-4" cx="1617.04" cy="522.7" r="0.84"/><circle class="cls-4" cx="1539.38" cy="522.7" r="0.84"/><circle class="cls-4" cx="1461.73" cy="522.7" r="0.84"/><circle class="cls-4" cx="1850" cy="522.7" r="0.84"/><circle class="cls-4" cx="1772.35" cy="522.7" r="0.84"/><circle class="cls-4" cx="1384.07" cy="522.7" r="0.84"/><circle class="cls-4" cx="1306.42" cy="522.7" r="0.84"/><circle class="cls-4" cx="1228.76" cy="522.7" r="0.84"/><circle class="cls-4" cx="1151.11" cy="522.7" r="0.84"/></g></g></g></svg>