<svg xmlns="http://www.w3.org/2000/svg" xmlns:xlink="http://www.w3.org/1999/xlink" viewBox="0 0 1746.88 1003.34"><defs><style>.cls-1,.cls-15,.cls-22{fill:none;}.cls-2{fill:#f3f2f1;}.cls-3{fill:#c83131;}.cls-4{fill:#f23c3c;}.cls-5{fill:#f4c32d;}.cls-6{fill:#ff931d;}.cls-7{fill:#f16b25;}.cls-8{fill:#dda814;}.cls-9{fill:#353535;}.cls-10{fill:#606060;}.cls-11{fill:#75964b;}.cls-12{fill:silver;}.cls-13{fill:#fff;}.cls-14{fill:#868686;}.cls-15,.cls-22{stroke:#071a23;stroke-miterlimit:10;}.cls-15{stroke-width:1.56px;}.cls-16{fill:#071a23;}.cls-17{fill:#62b0e2;}.cls-18{fill:#015288;}.cls-19{clip-path:url(#clip-path);}.cls-20{fill:#e9e6df;opacity:0.6;}.cls-21{clip-path:url(#clip-path-2);}.cls-22{stroke-width:3px;}.cls-23{clip-path:url(#clip-path-3);}.cls-24{isolation:isolate;font-size:100px;fill:#081f2f;font-family:Knockout-HTF48-Featherweight, Knockout HTF48-Featherweight;}.cls-25{letter-spacing:0em;}.cls-26{letter-spacing:-0.01em;}.cls-27{letter-spacing:0em;}.cls-28{letter-spacing:-0.02em;}.cls-29{letter-spacing:0em;}.cls-30{letter-spacing:0em;}</style><clipPath id="clip-path" transform="translate(-21.84)"><rect class="cls-1" x="358.32" y="303.63" width="338.23" height="398.51"/></clipPath><clipPath id="clip-path-2" transform="translate(-21.84)"><rect class="cls-1" y="381.43" width="522.42" height="321.49"/></clipPath><clipPath id="clip-path-3" transform="translate(-21.84)"><rect class="cls-1" x="1141.95" y="333.77" width="435.35" height="368.37"/></clipPath></defs><title>Asset 1</title><g id="Layer_2" data-name="Layer 2"><g id="Layer_1-2" data-name="Layer 1"><rect class="cls-2" x="213.44" y="272.08" width="359.16" height="230.19" rx="5.66" transform="translate(232.38 921.13) rotate(-120)"/><polygon class="cls-3" points="132.2 705.49 132.2 776.56 1683.67 779.13 1683.83 703.25 132.2 705.49"/><path class="cls-4" d="M379.45,476.36,326.35,34.21A30.57,30.57,0,0,1,356.7,0H1497.39a30.57,30.57,0,0,1,30.4,33.77l-46.64,442.36L1702.6,697.58a13.4,13.4,0,0,1-9.47,22.88l-1526,.57a13.4,13.4,0,0,1-9.48-22.88Z" transform="translate(-21.84)"/><path class="cls-5" d="M192.46,691.63,400.74,483.35H1460.09l207.73,207.73a5.5,5.5,0,0,1-3.89,9.39L196.36,701A5.5,5.5,0,0,1,192.46,691.63Z" transform="translate(-21.84)"/><path class="cls-6" d="M400.74,483.35l-54.34-456A6.58,6.58,0,0,1,352.94,20H1501.37a6.58,6.58,0,0,1,6.55,7.27l-47.83,456.08Z" transform="translate(-21.84)"/><path class="cls-7" d="M400.74,483.35,480,424.19,444.28,15.63H357.9a12.47,12.47,0,0,0-12.38,14Z" transform="translate(-21.84)"/><path class="cls-7" d="M1460.09,483.35,1399.81,422l15.63-400.48,81-2.83A14.67,14.67,0,0,1,1511.7,35Z" transform="translate(-21.84)"/><polygon class="cls-7" points="458.15 424.19 1377.97 417.49 1438.25 483.35 378.9 483.35 458.15 424.19"/><path class="cls-8" d="M400.74,483.35,392.93,701l-195.36,2a7.69,7.69,0,0,1-5.49-13.15Z" transform="translate(-21.84)"/><path class="cls-8" d="M1460.09,483.35V701h201.84a7,7,0,0,0,4.93-12Z" transform="translate(-21.84)"/><path id="Path_352" data-name="Path 352" class="cls-6" d="M1725.76,626.68l-60.62-15.09a93.46,93.46,0,0,1-7-12c-3.84-9.43-6.78-19.14-10.65-28.56-2.89-7-5.69-7.73-11.54-2.88-7.71,6.37-14.73,13.47-22.41,19.87a104.16,104.16,0,0,1-12.17,7.64l-60.61-15.1a8.24,8.24,0,0,1-2.17-10.58c.85-1.85,1.56-3.76,2.53-5.53,7.59-13.87,19.16-24.78,30.21-36.08,7.34-7.49,14.83-14.86,21.64-22.76,5.49-6.37,4-9.82-4.63-12.68q-11.05-3.08-21.77-7.18c-14.34-6.34-16.94-22.27-4.62-31a56.33,56.33,0,0,1,22.15-9.4c15.71-2.71,31.8-3.76,47.78-5.16a7,7,0,0,0,7.47-5.45,65.77,65.77,0,0,1,7.39-16.05c7.76-11.93,20.28-15.88,35.65-12S1706.75,420,1708,434.27a61.88,61.88,0,0,1-1,17.14c-.86,4.33.6,6.33,4.26,8.67,12.78,8.15,25.62,16.27,37.84,25.14,9.73,7.06,17.25,16,19.66,27.71q-1.11,4.43-2.2,8.87c-6.13,9.45-15.46,10.68-26.3,8.24-5.33-1.2-10.7-2.29-16.08-3.17-8.19-1.35-10.75.94-9.5,8.71a110,110,0,0,0,3.08,13c3.94,13.69,8.64,27.25,11.82,41.06a185.31,185.31,0,0,1,3,28.23,8,8,0,0,1-6.82,8.84" transform="translate(-21.84)"/><rect class="cls-4" x="1673.56" y="386.81" width="11.74" height="69.15" transform="translate(839.48 1947.4) rotate(-75.89)"/><path class="cls-4" d="M1708.92,430.6s-5.72,18.84,12,27.11C1720.94,457.71,1731.17,442.5,1708.92,430.6Z" transform="translate(-21.84)"/><path class="cls-4" d="M1708.17,433.37s18.34,10.48,30.66-3.27C1738.83,430.1,1725.21,416.55,1708.17,433.37Z" transform="translate(-21.84)"/><path class="cls-9" d="M148,329.85,93.73,146.14h0c7.3.51,13.69,5.3,16.69,12.53l63.32,152.56Z" transform="translate(-21.84)"/><path class="cls-10" d="M173.1,321.91,22.31,211.45h0A23.46,23.46,0,0,0,29,233.13L149.1,344.72Z" transform="translate(-21.84)"/><path class="cls-11" d="M140.89,346c-12.06,30.65-5.4,63-5.4,63,11.85,47.75,42.6,52.85,66,48.93,15.31-2.57,23.92-21,16.9-35.87L181.5,343.93C172.91,325.72,148.41,326.86,140.89,346Zm15.56,10.8A5.8,5.8,0,0,1,161.7,354a5.7,5.7,0,0,1,5.12,3.54l35,74.17a7.33,7.33,0,0,1-.39,6.87,5.86,5.86,0,0,1-4.07,2.85c-24.28,4.07-38.84-6.8-45.77-34.22-.48-2.72-4.45-27.09,4.28-49.29A8,8,0,0,1,156.45,356.79Z" transform="translate(-21.84)"/><path class="cls-11" d="M173.92,353.53l68.19,46.54c13,8.86,30.48,1,34.07-15.5,5.47-25.14,3.34-59.07-39.22-75.88,0,0-28.93-9.89-57.85.75C161.07,316.08,158,342.69,173.92,353.53ZM187,327.88a6.55,6.55,0,0,1,1.13-.54c21-7.72,42.86-1.4,45.28-.65,24.42,9.79,33.14,26.53,27.45,52.67a6.33,6.33,0,0,1-2.91,4.19,5.76,5.76,0,0,1-6.31-.12l-64.75-44.19a6.48,6.48,0,0,1-2.81-5.85A6.77,6.77,0,0,1,187,327.88Z" transform="translate(-21.84)"/><path class="cls-11" d="M137.35,356.77s9.68-39.3,47.62-49l-12.5,36.54Z" transform="translate(-21.84)"/><path id="Path_348" data-name="Path 348" class="cls-12" d="M1488.17,69.92l84.22,93.16,132.23,3.73-81-85.1Z" transform="translate(-21.84)"/><path id="Path_353" data-name="Path 353" class="cls-13" d="M1572.83,163.51l-62.71,121.87-82.47-92.2,60.52-123.26Z" transform="translate(-21.84)"/><path id="Path_354" data-name="Path 354" class="cls-14" d="M1572.8,162.7l-62.4,122.6,131.27,4.22,62.95-122.71Z" transform="translate(-21.84)"/><path id="Path_355" data-name="Path 355" class="cls-15" d="M1551.37,98.32c-1.6,3.94-8.84,4.75-16.18,1.78s-12-8.58-10.4-12.52,8.84-4.76,16.18-1.79,12,8.58,10.4,12.53" transform="translate(-21.84)"/><path id="Path_356" data-name="Path 356" class="cls-15" d="M1609.64,123.69c-1.59,4-8.84,4.76-16.18,1.79s-12-8.58-10.4-12.53,8.84-4.75,16.18-1.78,12,8.57,10.4,12.52" transform="translate(-21.84)"/><path id="Path_357" data-name="Path 357" class="cls-15" d="M1664.24,149.35c-1.6,4-8.85,4.75-16.19,1.79s-12-8.58-10.4-12.53,8.85-4.75,16.19-1.78,12,8.57,10.4,12.52" transform="translate(-21.84)"/><path id="Path_358" data-name="Path 358" class="cls-15" d="M1619.45,238.56a13.94,13.94,0,1,1-.12-20.55,14.57,14.57,0,0,1,.12,20.55" transform="translate(-21.84)"/><path id="Path_359" data-name="Path 359" class="cls-16" d="M1500.11,125.45c-2.67,6.38-9.08,9.79-14.32,7.61s-7.34-9.14-4.68-15.53,9.08-9.8,14.33-7.61,7.33,9.14,4.67,15.53" transform="translate(-21.84)"/><path id="Path_361" data-name="Path 361" class="cls-16" d="M1471.39,187.13c-2.66,6.38-9.07,9.8-14.32,7.61s-7.34-9.14-4.67-15.53,9.07-9.8,14.32-7.61,7.34,9.15,4.67,15.53" transform="translate(-21.84)"/><path id="Path_361-2" data-name="Path 361" class="cls-16" d="M1539.56,175.31c-2.66,6.37-9.07,9.79-14.32,7.6s-7.33-9.13-4.67-15.52,9.08-9.8,14.32-7.61,7.34,9.14,4.67,15.53" transform="translate(-21.84)"/><path id="Path_362" data-name="Path 362" class="cls-16" d="M1510.84,230c-2.66,6.38-9.07,9.8-14.32,7.61s-7.33-9.14-4.67-15.53,9.08-9.79,14.32-7.61,7.34,9.15,4.67,15.53" transform="translate(-21.84)"/><path id="Path_389" data-name="Path 389" class="cls-17" d="M246.94,78.48c8.25-13.42,3.14-30.11-11.42-37.28s-33.05-2.08-41.3,11.34-3.13,30.12,11.43,37.28a32.65,32.65,0,0,0,21.61,2.4c43.75,62.94-5.43,116.55,22.48,150.08L324,190.48l.86-.6L399,138.07c-27.91-33.53-97.38-4.29-152.07-59.59" transform="translate(-21.84)"/><path id="Path_390" data-name="Path 390" class="cls-18" d="M400.63,139.93c17.81,21.4-1.43,62.28-43,91.29S267.94,266.41,250.13,245s1.43-62.28,43-91.29,89.69-35.18,107.51-13.79" transform="translate(-21.84)"/><rect class="cls-2" x="1273.77" y="424.9" width="259.32" height="166.2" transform="translate(306.63 1543.44) rotate(-63.83)"/><g class="cls-19"><rect class="cls-20" x="449.73" y="405.56" width="88.52" height="335.28" transform="translate(-97.77 75.43) rotate(-8.11)"/><path class="cls-13" d="M520.47,518.79l1-.14L505,403.1l-69,9.83,16.47,115.56h0a66.51,66.51,0,0,1,15.84,99l-1.73.25L483,743.28l69-9.84L535.57,617.88l-.87.13a66.52,66.52,0,0,1-14.23-99.22Z" transform="translate(-21.84)"/><rect class="cls-4" x="421.64" y="360.47" width="90.79" height="47.79" transform="translate(-71.4 69.74) rotate(-8.11)"/><rect class="cls-4" x="410.29" y="353.7" width="105.76" height="7.05" transform="translate(-67.61 68.92) rotate(-8.11)"/><polygon class="cls-17" points="525.38 735.77 466.44 744.17 452.29 644.87 513.33 650.91 525.38 735.77"/><rect class="cls-4" x="475.47" y="738.16" width="90.79" height="47.79" transform="matrix(-0.99, 0.14, -0.14, -0.99, 1122.19, 1442.99)"/><rect class="cls-4" x="471.86" y="785.67" width="105.76" height="7.05" transform="matrix(-0.99, 0.14, -0.14, -0.99, 1133.72, 1496.46)"/></g><g class="cls-21"><path class="cls-7" d="M160.64,565.3H380.55a45.77,45.77,0,0,1,45.77,45.77v0a45.77,45.77,0,0,1-45.77,45.77H160.64a0,0,0,0,1,0,0V565.3a0,0,0,0,1,0,0Z" transform="translate(-279.82 1005.31) rotate(-99.91)"/><line class="cls-22" x1="254.87" y1="515.13" x2="248.78" y2="480.21"/><line class="cls-22" x1="234.26" y1="518.73" x2="228.16" y2="483.81"/><line class="cls-22" x1="276.32" y1="511.38" x2="270.22" y2="476.47"/><polygon class="cls-6" points="245.5 727.53 301.34 706.67 241.61 705.27 245.5 727.53"/><polygon class="cls-6" points="237.14 679.7 292.99 658.84 233.25 657.43 237.14 679.7"/><polygon class="cls-6" points="228.5 630.22 284.35 609.36 224.61 607.95 228.5 630.22"/><polygon class="cls-6" points="310.31 568.26 254.46 589.12 314.2 590.52 310.31 568.26"/><polygon class="cls-6" points="318.67 616.09 262.82 636.95 322.56 638.36 318.67 616.09"/><polygon class="cls-6" points="327.31 665.57 271.46 686.43 331.2 687.84 327.31 665.57"/></g><g class="cls-23"><polygon class="cls-4" points="1360.48 583.2 1269.33 998.34 1290.29 1003.34 1387.13 587.5 1360.48 583.2"/><path class="cls-5" d="M1432.47,483.11a14.55,14.55,0,0,1-28.31-6.75l32.78-81.69Z" transform="translate(-21.84)"/><path class="cls-11" d="M1413.13,456.18l0,.05c.25.24.52.46.78.68a1.6,1.6,0,0,1,.4.14c.11-.1.22-.2.35-.34l1.94-1.87c1.82-1.73,3.72-3.49,5.62-5.09a34.93,34.93,0,0,1,12.24-6.73l2.45-48.35-24.35,60.7C1412.77,455.64,1412.94,455.91,1413.13,456.18Z" transform="translate(-21.84)"/><path class="cls-11" d="M1416.85,493.9a14.57,14.57,0,0,0,8.5-1.64A32.55,32.55,0,0,1,1416.85,493.9Z" transform="translate(-21.84)"/><polygon class="cls-9" points="1385.86 491.09 1360.48 583.2 1387.13 587.5 1401.15 494.13 1385.86 491.09"/></g><g id="READY_TO_GET_STARTED_" data-name="READY TO GET STARTED "><text class="cls-24" transform="translate(576.42 203.06)">REA<tspan class="cls-25" x="104.2" y="0">D</tspan><tspan x="142.1" y="0">Y </tspan><tspan class="cls-26" x="190.2" y="0">T</tspan><tspan x="222.3" y="0">O GET </tspan><tspan class="cls-27" x="389.19" y="0">S</tspan><tspan class="cls-28" x="423.99" y="0">T</tspan><tspan x="454.29" y="0">A</tspan><tspan class="cls-29" x="488.99" y="0">R</tspan><tspan class="cls-30" x="526.09" y="0">TED?</tspan></text></g></g></g></svg>