<svg xmlns="http://www.w3.org/2000/svg" viewBox="0 0 306.23 348.56"><defs><style>.cls-1{fill:#ff931d;}.cls-2{fill:#f23c3c;}.cls-3{fill:#f16b25;}</style></defs><g id="Layer_2" data-name="Layer 2"><g id="Layer_1-2" data-name="Layer 1"><polygon class="cls-1" points="297.04 285.71 287.87 281.84 288.4 172.21 297.57 176.07 297.04 285.71"/><polygon class="cls-2" points="8.56 282.94 17.76 279.16 18.3 169.53 9.09 173.3 8.56 282.94"/><polygon class="cls-3" points="153.24 229.7 306.23 162.91 153.87 99.24 0.9 161.43 153.24 229.7"/><polygon class="cls-1" points="153.24 229.7 0.9 161.43 0.24 170.42 0.53 170.55 0 279.08 9.17 282.94 9.7 174.67 144.01 235.13 143.48 344.7 152.65 348.56 153.18 238.93 153.04 238.87 153.24 229.7"/><path class="cls-2" d="M152,348.56l9.2-3.77.53-109.4L297,176.58l-.53,109.12,9.21-3.77.53-109.36h0l.05-9.65-34.86,15.22-39.69-14L179,170.34l-3.56,17.35a4.29,4.29,0,0,1-6.08,3l-41.49-20.21-52.72-5.75L82.32,197,153,229Z"/><path id="Path_352" data-name="Path 352" class="cls-1" d="M227.57,170.22l-48.57.12a76.26,76.26,0,0,1-7.57-8.29c-4.68-6.89-8.74-14.2-13.44-21.07-3.52-5.14-5.76-5.14-9.26,0-4.6,6.77-8.55,14-13.13,20.77a83,83,0,0,1-7.73,8.71l-48.57.11a7.07,7.07,0,0,1-3.64-8.17c.29-1.67.46-3.38.86-5,3.09-12.85,9.75-24.1,15.94-35.56,4.11-7.61,8.37-15.14,12-23,2.93-6.31,1.12-8.8-5.9-9.38A176.19,176.19,0,0,1,80.79,88.1c-12-2.23-17-14.67-9.36-24.3A44.19,44.19,0,0,1,86.36,51.61c11.32-5.42,23.26-9.57,35.05-14a5.77,5.77,0,0,0,4.59-6,59.76,59.76,0,0,1,2.54-14.59C132.13,5.77,140.82,0,153.14,0s20.92,5.81,24.53,17.18a55.92,55.92,0,0,1,2.51,14.16c.17,3.71,1.65,5,4.86,6.19,11.18,4,22.4,8,33.29,12.73,8.68,3.75,16,9.48,20.08,18.54l0,7.67c-2.84,9-9.63,11.86-18.27,12.09-4.25.12-8.51.33-12.74.71-6.42.58-7.92,3-5.5,9a93.4,93.4,0,0,0,4.78,9.93c5.57,10.34,11.68,20.42,16.7,31a164.64,164.64,0,0,1,7.65,22.36,6.92,6.92,0,0,1-3.47,8.6"/><path class="cls-2" d="M200.17,7.47S189.73.77,180.6,12V7.6H126.83v9.85h51.09c.68,5,3.38,14,14,16.16a14.41,14.41,0,0,0-6.66-16.44C190.26,16.89,196.55,14.89,200.17,7.47Z"/></g></g></svg>