<svg xmlns="http://www.w3.org/2000/svg" xmlns:xlink="http://www.w3.org/1999/xlink" viewBox="0 0 321.69 390.79"><defs><style>.cls-1{isolation:isolate;}.cls-2{fill:#cbcbcb;}.cls-3{fill:#868686;}.cls-4{fill:#353535;}.cls-5{opacity:0.25;mix-blend-mode:multiply;fill:url(#linear-gradient);}.cls-6{fill:#606060;}.cls-7{fill:#62b0e2;}</style><linearGradient id="linear-gradient" x1="154.86" y1="422.98" x2="128.14" y2="-63.23" gradientUnits="userSpaceOnUse"><stop offset="0" stop-color="#fff"/><stop offset="1"/></linearGradient></defs><g class="cls-1"><g id="Layer_2" data-name="Layer 2"><g id="Layer_1-2" data-name="Layer 1"><path class="cls-2" d="M188.8,0,0,45.6,69.36,332.74l188.8-45.6ZM175.63,283.69l-35.26,9.44L104.7,113.61l-38.21,7.88-8.68-40L96.75,73.6l-1.64-8.26L120.76,59,123,68.25l2.44-.5L174.09,78.9,179,98.27l-46.35,9.56Z"/><polygon class="cls-3" points="181.89 144.9 178.37 130.79 134.66 126.27 132.41 126.84 130.82 120.06 107.13 126.86 108.21 132.92 72.35 141.93 78.21 171.17 113.41 162.25 136.75 293.87 169.34 284.02 139.19 155.72 181.89 144.9"/><path class="cls-4" d="M209,243.88,36.25,324.8h0a21.62,21.62,0,0,1,10.3-19.37L187.94,218.8Z"/><polygon class="cls-2" points="197.31 110.66 193.91 93.42 146.29 86.7 143.82 87.32 142.29 79.05 116.19 86.63 117.18 94.02 77.71 103.94 83.19 139.61 121.94 129.78 139.17 294.37 177.15 287.45 150.32 122.58 197.31 110.66"/><polygon class="cls-5" points="197.31 110.66 193.91 93.42 146.29 86.7 143.82 87.32 142.29 79.05 116.19 86.63 117.18 94.02 77.71 103.94 83.19 139.61 121.94 129.78 139.17 294.37 177.15 287.45 150.32 122.58 197.31 110.66"/><path class="cls-6" d="M193.53,221.27,105.85,390.71h0a21.6,21.6,0,0,0,19.76-9.52l92.15-137.87Z"/><path class="cls-7" d="M319,175.41a23.37,23.37,0,0,0-35.78-13.13l-50.3,34.34,26.89-56.25A23.38,23.38,0,0,0,241.32,107c-24.37-2.61-56.22,3.73-67.38,49.79,0,0-6.14,31.15,7.13,59.77a25,25,0,0,0,1.34,2.46,65.1,65.1,0,0,0,30.21,29.11,23.2,23.2,0,0,0,7.25,3.53,81.71,81.71,0,0,0,8.69,2c1.21.26,1.9.35,1.9.35l0,0c26.32,4,49.59-4.38,49.59-4.38C323.85,231.53,325.25,199.1,319,175.41ZM191.35,158.3c6.54-26.45,21.41-37.51,46.75-34.8a5.91,5.91,0,0,1,4.28,2.5,6.44,6.44,0,0,1,.59,6.54L208.39,204.9a6.4,6.4,0,0,1-10.76,1.28,7,7,0,0,1-.63-1.11C187.37,184.31,190.92,160.9,191.35,158.3Zm85.25,74.85c-2.51.83-25.11,7.9-47.07,1.56a6.77,6.77,0,0,1-1.17-.45,6.4,6.4,0,0,1-.41-10.83l66.24-45.23a6.4,6.4,0,0,1,6.53-.42,5.9,5.9,0,0,1,3.14,3.85C310.41,206.27,301.75,222.65,276.6,233.15Z"/></g></g></g></svg>