<svg xmlns="http://www.w3.org/2000/svg" viewBox="0 0 357.15 279.75"><defs><style>.cls-1{fill:#727272;}.cls-2{fill:#868686;}.cls-3{fill:#081f2f;}.cls-4{fill:#e9e6df;}.cls-5{fill:#75964b;}</style></defs><g id="Layer_2" data-name="Layer 2"><g id="Layer_1-2" data-name="Layer 1"><path class="cls-1" d="M191.29,204.56l-12.16-1v-.09l-.56.05-.55-.05v.09l-12.16,1s8.84,53.07-28.75,65.23H220C182.44,257.63,191.29,204.56,191.29,204.56Z"/><rect class="cls-2" width="357.15" height="222.25"/><rect class="cls-3" x="13.82" y="13.82" width="329.5" height="194.61"/><polygon class="cls-4" points="162 88.74 148.77 78.18 135.82 88.63 134.58 87.09 148.76 75.64 163.24 87.19 162 88.74"/><polygon class="cls-4" points="224.18 88.74 210.95 78.18 198 88.63 196.76 87.09 210.94 75.64 225.42 87.19 224.18 88.74"/><polygon class="cls-4" points="260.65 133.02 258.67 133.02 258.67 109.21 274.67 109.21 274.67 85.43 259.18 85.43 259.18 66.3 246.17 66.3 246.17 50.23 233.42 50.23 233.42 35.27 125.94 35.27 125.94 50.23 111.56 50.23 111.56 66.82 98.55 66.82 98.55 86.13 84.44 86.13 84.44 109.58 98.81 109.58 98.81 132.76 96.83 132.76 96.83 111.56 82.45 111.56 82.45 84.15 96.57 84.15 96.57 64.84 109.58 64.84 109.58 48.25 123.95 48.25 123.95 33.29 235.4 33.29 235.4 48.25 248.15 48.25 248.15 64.32 261.17 64.32 261.17 83.45 276.64 83.45 276.64 111.19 260.65 111.19 260.65 133.02"/><polygon class="cls-4" points="74.22 147.14 72.24 147.14 72.24 135.78 61.38 135.78 61.38 122.51 50.32 122.51 50.32 109.8 37.05 109.8 37.05 55.3 45.9 55.3 45.9 42.58 54.74 42.58 54.74 30.42 65.8 30.42 65.8 14.27 67.78 14.27 67.78 32.4 56.72 32.4 56.72 44.56 47.88 44.56 47.88 57.28 39.03 57.28 39.03 107.82 52.3 107.82 52.3 120.53 63.36 120.53 63.36 133.8 74.22 133.8 74.22 147.14"/><polygon class="cls-4" points="285.35 147.14 283.37 147.14 283.37 133.8 294.24 133.8 294.24 120.53 305.29 120.53 305.29 107.82 318.56 107.82 318.56 57.28 309.72 57.28 309.72 44.56 300.87 44.56 300.87 32.4 289.81 32.4 289.81 14.27 291.79 14.27 291.79 30.42 302.85 30.42 302.85 42.58 311.7 42.58 311.7 55.3 320.54 55.3 320.54 109.8 307.27 109.8 307.27 122.51 296.22 122.51 296.22 135.78 285.35 135.78 285.35 147.14"/><polygon class="cls-4" points="169.94 111.57 167.96 111.57 167.96 100.63 177.91 100.63 177.91 91.12 179.9 91.12 179.9 102.61 169.94 102.61 169.94 111.57"/><path class="cls-4" d="M126.22,119.86,74.89,145.22a10.54,10.54,0,0,0-4.78,14.12l24.7,50H103L76.73,153.51l57-26.78,38.83,82.61h9.66l-41.84-84.7A10.55,10.55,0,0,0,126.22,119.86Z"/><path class="cls-5" d="M76.73,153.51,103,209.34h69.55L133.7,126.73Zm59,53.45-11.38-10.58-14.1.77,10.08-10.27-1.84-14.5,11.29,10.53,13.43-1.28-9.8,10.47Z"/><polygon class="cls-4" points="129.75 182.91 118.46 172.38 120.3 186.88 110.22 197.15 124.32 196.38 135.7 206.96 133.38 192.1 143.18 181.63 129.75 182.91"/><path class="cls-4" d="M209.32,111.9l-57.24-1.12a10.55,10.55,0,0,0-10.75,10.34l-1.72,88.22h8.63V120.18h62.94v89.16H218l1.69-86.7A10.54,10.54,0,0,0,209.32,111.9Z"/><path class="cls-5" d="M148.24,120.18v89.16h62.94V120.18Zm32.32,73.46-4.23-14.43L163,173.9l12.71-4.55L181.45,155l4.5,13.91,13.49,5-13.08,5.31Z"/><polygon class="cls-4" points="185.95 168.92 181.45 155.01 175.72 169.35 163.01 173.9 176.33 179.21 180.56 193.64 186.36 179.23 199.44 173.92 185.95 168.92"/><path class="cls-4" d="M284.61,145.05l-51.34-25.36a10.53,10.53,0,0,0-14.12,4.79l-41.92,84.86h9.66l38.91-82.78,57,26.78-26.32,56h8.17l24.78-50.16A10.55,10.55,0,0,0,284.61,145.05Z"/><path class="cls-5" d="M225.8,126.56l-38.91,82.78h69.55l26.32-56Zm-2,80.23,2.32-14.85-9.8-10.47,13.43,1.28L241,172.21l-1.84,14.51L249.28,197l-14.1-.76Z"/><polygon class="cls-4" points="239.2 186.72 241.04 172.21 229.75 182.75 216.32 181.47 226.12 191.94 223.8 206.79 235.18 196.22 249.28 196.98 239.2 186.72"/><rect class="cls-2" x="108.36" y="267.58" width="140.43" height="12.16"/></g></g></svg>