<?xml version="1.0" encoding="utf-8"?>
<!-- Generator: Adobe Illustrator 24.0.0, SVG Export Plug-In . SVG Version: 6.00 Build 0)  -->
<svg version="1.1" id="cards" xmlns="http://www.w3.org/2000/svg" xmlns:xlink="http://www.w3.org/1999/xlink" x="0px" y="0px"
	 viewBox="0 0 561.4 356.7" style="enable-background:new 0 0 561.4 356.7;" xml:space="preserve">
<style type="text/css">
	.st0{fill:#E9E6DF;}
	.st1{fill:#F3F2F1;}
	.st2{fill:#081F2F;}
</style>
<path class="st0" d="M62.5,54.9h491.2c4.2,0,7.7,3.4,7.7,7.7V349c0,4.2-3.4,7.7-7.7,7.7H62.5c-4.2,0-7.7-3.4-7.7-7.7V62.6
	C54.8,58.3,58.3,54.9,62.5,54.9z"/>
<path class="st1" d="M46.6,37h491.2c4.2,0,7.7,3.4,7.7,7.7v286.4c0,4.2-3.4,7.7-7.7,7.7H46.6c-4.2,0-7.7-3.4-7.7-7.7V44.7
	C38.9,40.4,42.4,37,46.6,37z"/>
<path class="st0" d="M27.3,19.7h491.1c4.2,0,7.7,3.4,7.7,7.7v286.4c0,4.2-3.4,7.7-7.7,7.7H27.3c-4.2,0-7.7-3.4-7.7-7.7V27.4
	C19.6,23.1,23.1,19.7,27.3,19.7z"/>
<path class="st1" d="M7.7,0h491.1c4.2,0,7.7,3.4,7.7,7.7v286.4c0,4.2-3.4,7.7-7.7,7.7H7.7c-4.2,0-7.7-3.4-7.7-7.7V7.7
	C0,3.4,3.4,0,7.7,0z"/>
<path class="st2" d="M465.4,274.9L465.4,274.9c-1.2,0-2.2-1-2.2-2.2l0,0c0-1.2,1-2.2,2.2-2.2c0,0,0,0,0,0l0,0c1.2,0,2.1,0.9,2.2,2.1
	l0,0C467.6,273.9,466.6,274.9,465.4,274.9C465.4,274.9,465.4,274.9,465.4,274.9z"/>
<path class="st2" d="M448.2,270.5L448.2,270.5c1.2,0,2.2,1,2.2,2.1v0c0,1.2-1,2.1-2.2,2.1h0c-1.2,0-2.2-1-2.2-2.1v0
	C446,271.5,447,270.5,448.2,270.5z"/>
<path class="st2" d="M430.9,270.5L430.9,270.5c1.2,0,2.2,1,2.2,2.1v0c0,1.2-1,2.1-2.2,2.1h0c-1.2,0-2.2-1-2.2-2.1v0
	C428.8,271.5,429.7,270.5,430.9,270.5z"/>
<path class="st2" d="M413.7,270.5L413.7,270.5c1.2,0,2.2,1,2.2,2.1v0c0,1.2-1,2.1-2.2,2.1h0c-1.2,0-2.2-1-2.2-2.1v0
	C411.5,271.5,412.5,270.5,413.7,270.5z"/>
<path class="st2" d="M396.5,270.5L396.5,270.5c1.2,0,2.2,1,2.2,2.1v0c0,1.2-1,2.1-2.2,2.1h0c-1.2,0-2.2-1-2.2-2.1v0
	C394.3,271.5,395.3,270.5,396.5,270.5z"/>
<path class="st2" d="M379.2,270.5L379.2,270.5c1.2,0,2.2,1,2.2,2.1v0c0,1.2-1,2.1-2.2,2.1h0c-1.2,0-2.2-1-2.2-2.1v0
	C377.1,271.5,378,270.5,379.2,270.5z"/>
<path class="st2" d="M362,270.5L362,270.5c1.2,0,2.2,1,2.2,2.1v0c0,1.2-1,2.1-2.2,2.1h0c-1.2,0-2.2-1-2.2-2.1v0
	C359.8,271.5,360.8,270.5,362,270.5z"/>
<path class="st2" d="M344.8,270.5L344.8,270.5c1.2,0,2.2,1,2.2,2.1v0c0,1.2-1,2.1-2.2,2.1h0c-1.2,0-2.2-1-2.2-2.1v0
	C342.6,271.5,343.6,270.5,344.8,270.5z"/>
<path class="st2" d="M327.5,270.5L327.5,270.5c1.2,0,2.2,1,2.2,2.1v0c0,1.2-1,2.1-2.2,2.1h0c-1.2,0-2.2-1-2.2-2.1v0
	C325.4,271.5,326.3,270.5,327.5,270.5z"/>
<path class="st2" d="M310.3,270.5L310.3,270.5c1.2,0,2.2,1,2.2,2.1v0c0,1.2-1,2.1-2.2,2.1h0c-1.2,0-2.2-1-2.2-2.1v0
	C308.1,271.5,309.1,270.5,310.3,270.5z"/>
<path class="st2" d="M293.1,270.5L293.1,270.5c1.2,0,2.2,1,2.2,2.1v0c0,1.2-1,2.1-2.2,2.1h0c-1.2,0-2.2-1-2.2-2.1v0
	C290.9,271.5,291.9,270.5,293.1,270.5z"/>
<path class="st2" d="M275.8,270.5L275.8,270.5c1.2,0,2.2,1,2.2,2.1v0c0,1.2-1,2.1-2.2,2.1h0c-1.2,0-2.2-1-2.2-2.1v0
	C273.7,271.5,274.6,270.5,275.8,270.5z"/>
<path class="st2" d="M258.6,270.5L258.6,270.5c1.2,0,2.2,1,2.2,2.1v0c0,1.2-1,2.1-2.2,2.1h0c-1.2,0-2.2-1-2.2-2.1v0
	C256.4,271.5,257.4,270.5,258.6,270.5z"/>
<path class="st2" d="M241.3,270.5L241.3,270.5c1.2,0,2.2,1,2.2,2.1v0c0,1.2-1,2.1-2.2,2.1h0c-1.2,0-2.2-1-2.2-2.1v0
	C239.2,271.5,240.2,270.5,241.3,270.5z"/>
<path class="st2" d="M224.1,270.5L224.1,270.5c1.2,0,2.2,1,2.2,2.1v0c0,1.2-1,2.1-2.2,2.1h0c-1.2,0-2.2-1-2.2-2.1v0
	C222,271.5,222.9,270.5,224.1,270.5z"/>
<path class="st2" d="M206.9,270.5L206.9,270.5c1.2,0,2.2,1,2.2,2.1v0c0,1.2-1,2.1-2.2,2.1h0c-1.2,0-2.2-1-2.2-2.1v0
	C204.7,271.5,205.7,270.5,206.9,270.5z"/>
<path class="st2" d="M189.6,270.5L189.6,270.5c1.2,0,2.2,1,2.2,2.1v0c0,1.2-1,2.1-2.2,2.1h0c-1.2,0-2.2-1-2.2-2.1v0
	C187.5,271.5,188.5,270.5,189.6,270.5z"/>
<path class="st2" d="M172.4,270.5L172.4,270.5c1.2,0,2.2,1,2.2,2.1v0c0,1.2-1,2.1-2.1,2.1h0c-1.2,0-2.1-1-2.1-2.1v0
	C170.2,271.5,171.2,270.5,172.4,270.5z"/>
<path class="st2" d="M155.2,270.5L155.2,270.5c1.2,0,2.2,1,2.2,2.1v0c0,1.2-1,2.1-2.1,2.1h0c-1.2,0-2.1-1-2.1-2.1v0
	C153,271.5,154,270.5,155.2,270.5z"/>
<path class="st2" d="M137.9,270.5L137.9,270.5c1.2,0,2.2,1,2.2,2.1v0c0,1.2-1,2.1-2.1,2.1h0c-1.2,0-2.1-1-2.1-2.1v0
	C135.8,271.5,136.7,270.5,137.9,270.5z"/>
<path class="st2" d="M120.7,270.5L120.7,270.5c1.2,0,2.2,1,2.2,2.1v0c0,1.2-1,2.1-2.1,2.1h0c-1.2,0-2.1-1-2.1-2.1v0
	C118.6,271.5,119.5,270.5,120.7,270.5z"/>
<path class="st2" d="M103.5,270.5L103.5,270.5c1.2,0,2.2,1,2.2,2.1v0c0,1.2-1,2.1-2.1,2.1h0c-1.2,0-2.1-1-2.1-2.1v0
	C101.3,271.5,102.3,270.5,103.5,270.5z"/>
<path class="st2" d="M86.2,270.5L86.2,270.5c1.2,0,2.2,1,2.2,2.1v0c0,1.2-1,2.1-2.1,2.1h0c-1.2,0-2.1-1-2.1-2.1v0
	C84.1,271.5,85,270.5,86.2,270.5z"/>
<path class="st2" d="M69,270.5L69,270.5c1.2,0,2.2,1,2.2,2.1v0c0,1.2-1,2.1-2.1,2.1h0c-1.2,0-2.1-1-2.1-2.1v0
	C66.8,271.5,67.8,270.5,69,270.5z"/>
<path class="st2" d="M51.8,270.5L51.8,270.5c1.2,0,2.2,1,2.2,2.1v0c0,1.2-1,2.1-2.1,2.1h0c-1.2,0-2.1-1-2.1-2.1v0
	C49.6,271.5,50.6,270.5,51.8,270.5z"/>
<path class="st2" d="M35.7,269.1L35.7,269.1c1.2,0,2.2,1,2.2,2.1v0c0,1.2-1,2.1-2.1,2.1h0c-1.2,0-2.1-1-2.1-2.1v0
	C33.6,270.1,34.5,269.1,35.7,269.1z"/>
<path class="st2" d="M474.1,259.2L474.1,259.2c1.2,0,2.2,1,2.2,2.1v0c0,1.2-1,2.1-2.2,2.1h0c-1.2,0-2.2-1-2.2-2.1v0
	C472,260.1,472.9,259.2,474.1,259.2z"/>
<path class="st2" d="M30.3,254.7L30.3,254.7c1.2,0,2.2,1,2.2,2.1v0c0,1.2-1,2.1-2.1,2.1h0c-1.2,0-2.1-1-2.1-2.1v0
	C28.2,255.6,29.2,254.7,30.3,254.7z"/>
<path class="st2" d="M474.1,241.9L474.1,241.9c1.2,0,2.2,1,2.2,2.1v0c0,1.2-1,2.1-2.2,2.1h0c-1.2,0-2.2-1-2.2-2.1v0
	C472,242.9,472.9,241.9,474.1,241.9z"/>
<path class="st2" d="M30.3,237.4L30.3,237.4c1.2,0,2.2,1,2.2,2.1v0c0,1.2-1,2.1-2.1,2.1h0c-1.2,0-2.1-1-2.1-2.1v0
	C28.2,238.4,29.2,237.4,30.3,237.4z"/>
<path class="st2" d="M474.1,224.7L474.1,224.7c1.2,0,2.2,1,2.2,2.1v0c0,1.2-1,2.1-2.2,2.1h0c-1.2,0-2.2-1-2.2-2.1v0
	C472,225.7,472.9,224.7,474.1,224.7z"/>
<path class="st2" d="M30.3,220.2L30.3,220.2c1.2,0,2.2,1,2.2,2.1v0c0,1.2-1,2.1-2.1,2.1h0c-1.2,0-2.1-1-2.1-2.1v0
	C28.2,221.2,29.2,220.2,30.3,220.2z"/>
<path class="st2" d="M474.1,207.5L474.1,207.5c1.2,0,2.2,1,2.2,2.1v0c0,1.2-1,2.1-2.2,2.1h0c-1.2,0-2.2-1-2.2-2.1v0
	C472,208.4,472.9,207.5,474.1,207.5z"/>
<path class="st2" d="M30.3,203L30.3,203c1.2,0,2.2,1,2.2,2.1v0c0,1.2-1,2.1-2.1,2.1h0c-1.2,0-2.1-1-2.1-2.1v0
	C28.2,203.9,29.2,203,30.3,203z"/>
<path class="st2" d="M474.1,190.2L474.1,190.2c1.2,0,2.2,1,2.2,2.1v0c0,1.2-1,2.1-2.2,2.1h0c-1.2,0-2.2-1-2.2-2.1v0
	C472,191.2,472.9,190.2,474.1,190.2z"/>
<path class="st2" d="M30.3,185.7L30.3,185.7c1.2,0,2.2,1,2.2,2.1v0c0,1.2-1,2.1-2.1,2.1h0c-1.2,0-2.1-1-2.1-2.1v0
	C28.2,186.7,29.2,185.7,30.3,185.7z"/>
<path class="st2" d="M474.1,173L474.1,173c1.2,0,2.2,1,2.2,2.1v0c0,1.2-1,2.1-2.2,2.1h0c-1.2,0-2.2-1-2.2-2.1v0
	C472,174,472.9,173,474.1,173z"/>
<path class="st2" d="M30.3,168.5L30.3,168.5c1.2,0,2.2,1,2.2,2.1v0c0,1.2-1,2.1-2.1,2.1h0c-1.2,0-2.1-1-2.1-2.1v0
	C28.2,169.5,29.2,168.5,30.3,168.5z"/>
<path class="st2" d="M474.1,155.8L474.1,155.8c1.2,0,2.2,1,2.2,2.1v0c0,1.2-1,2.1-2.2,2.1h0c-1.2,0-2.2-1-2.2-2.1v0
	C472,156.7,472.9,155.8,474.1,155.8z"/>
<path class="st2" d="M30.3,151.3L30.3,151.3c1.2,0,2.2,1,2.2,2.1v0c0,1.2-1,2.1-2.1,2.1h0c-1.2,0-2.1-1-2.1-2.1v0
	C28.2,152.2,29.2,151.3,30.3,151.3z"/>
<path class="st2" d="M474.1,138.5L474.1,138.5c1.2,0,2.2,1,2.2,2.1v0c0,1.2-1,2.1-2.2,2.1h0c-1.2,0-2.2-1-2.2-2.1v0
	C472,139.5,472.9,138.5,474.1,138.5z"/>
<path class="st2" d="M30.3,134L30.3,134c1.2,0,2.2,1,2.2,2.1v0c0,1.2-1,2.1-2.1,2.1h0c-1.2,0-2.1-1-2.1-2.1v0
	C28.2,135,29.2,134,30.3,134z"/>
<path class="st2" d="M474.1,121.3L474.1,121.3c1.2,0,2.2,1,2.2,2.1v0c0,1.2-1,2.1-2.2,2.1h0c-1.2,0-2.2-1-2.2-2.1v0
	C472,122.3,472.9,121.3,474.1,121.3z"/>
<path class="st2" d="M30.3,116.8L30.3,116.8c1.2,0,2.2,1,2.2,2.1v0c0,1.2-1,2.1-2.1,2.1h0c-1.2,0-2.1-1-2.1-2.1v0
	C28.2,117.8,29.2,116.8,30.3,116.8z"/>
<path class="st2" d="M474.1,104.1L474.1,104.1c1.2,0,2.2,1,2.2,2.1v0c0,1.2-1,2.1-2.2,2.1h0c-1.2,0-2.2-1-2.2-2.1v0
	C472,105,472.9,104.1,474.1,104.1z"/>
<path class="st2" d="M30.3,99.6L30.3,99.6c1.2,0,2.2,1,2.2,2.1v0c0,1.2-1,2.1-2.1,2.1h0c-1.2,0-2.1-1-2.1-2.1v0
	C28.2,100.5,29.2,99.6,30.3,99.6z"/>
<path class="st2" d="M474.1,86.8L474.1,86.8c1.2,0,2.2,1,2.2,2.1v0c0,1.2-1,2.1-2.2,2.1h0c-1.2,0-2.2-1-2.2-2.1v0
	C472,87.8,472.9,86.8,474.1,86.8z"/>
<path class="st2" d="M30.3,82.3L30.3,82.3c1.2,0,2.2,1,2.2,2.1v0c0,1.2-1,2.1-2.1,2.1h0c-1.2,0-2.1-1-2.1-2.1v0
	C28.2,83.3,29.2,82.3,30.3,82.3z"/>
<path class="st2" d="M474.1,69.6L474.1,69.6c1.2,0,2.2,1,2.2,2.1v0c0,1.2-1,2.2-2.2,2.2h0c-1.2,0-2.2-1-2.2-2.2v0
	C472,70.5,472.9,69.6,474.1,69.6z"/>
<path class="st2" d="M30.3,65.1L30.3,65.1c1.2,0,2.2,1,2.2,2.2v0c0,1.2-1,2.1-2.1,2.1h0c-1.2,0-2.1-1-2.1-2.1v0
	C28.2,66.1,29.2,65.1,30.3,65.1z"/>
<path class="st2" d="M474.1,52.4L474.1,52.4c1.2,0,2.2,1,2.2,2.2v0c0,1.2-1,2.2-2.2,2.2h0c-1.2,0-2.2-1-2.2-2.2v0
	C472,53.3,472.9,52.4,474.1,52.4z"/>
<path class="st2" d="M30.3,47.9L30.3,47.9c1.2,0,2.2,1,2.2,2.2v0c0,1.2-1,2.2-2.1,2.2h0c-1.2,0-2.1-1-2.1-2.2v0
	C28.2,48.8,29.2,47.9,30.3,47.9z"/>
<path class="st2" d="M32.5,32L32.5,32c1.2,0,2.2,1,2.2,2.2v0c0,1.2-1,2.2-2.1,2.2h0c-1.2,0-2.1-1-2.1-2.2v0
	C30.4,32.9,31.3,32,32.5,32z"/>
<path class="st2" d="M461.3,27.9L461.3,27.9c1.2,0,2.2,1,2.2,2.2v0c0,1.2-1,2.2-2.2,2.2h0c-1.2,0-2.2-1-2.2-2.2v0
	C459.2,28.8,460.1,27.9,461.3,27.9z"/>
<path class="st2" d="M444.1,27.9L444.1,27.9c1.2,0,2.2,1,2.2,2.2v0c0,1.2-1,2.2-2.2,2.2h0c-1.2,0-2.2-1-2.2-2.2v0
	C441.9,28.8,442.9,27.9,444.1,27.9z"/>
<path class="st2" d="M426.8,27.9L426.8,27.9c1.2,0,2.2,1,2.2,2.2v0c0,1.2-1,2.2-2.2,2.2h0c-1.2,0-2.2-1-2.2-2.2v0
	C424.7,28.8,425.7,27.9,426.8,27.9z"/>
<path class="st2" d="M409.6,27.9L409.6,27.9c1.2,0,2.2,1,2.2,2.2v0c0,1.2-1,2.2-2.2,2.2h0c-1.2,0-2.2-1-2.2-2.2v0
	C407.5,28.8,408.4,27.9,409.6,27.9z"/>
<path class="st2" d="M392.4,27.9L392.4,27.9c1.2,0,2.2,1,2.2,2.2v0c0,1.2-1,2.2-2.2,2.2h0c-1.2,0-2.2-1-2.2-2.2v0
	C390.2,28.8,391.2,27.9,392.4,27.9z"/>
<path class="st2" d="M375.1,27.9L375.1,27.9c1.2,0,2.2,1,2.2,2.2v0c0,1.2-1,2.2-2.2,2.2h0c-1.2,0-2.2-1-2.2-2.2v0
	C373,28.8,374,27.9,375.1,27.9z"/>
<path class="st2" d="M357.9,27.9L357.9,27.9c1.2,0,2.2,1,2.2,2.2v0c0,1.2-1,2.2-2.2,2.2h0c-1.2,0-2.2-1-2.2-2.2v0
	C355.8,28.8,356.7,27.9,357.9,27.9z"/>
<path class="st2" d="M340.7,27.9L340.7,27.9c1.2,0,2.2,1,2.2,2.2v0c0,1.2-1,2.2-2.2,2.2h0c-1.2,0-2.2-1-2.2-2.2v0
	C338.5,28.8,339.5,27.9,340.7,27.9z"/>
<path class="st2" d="M323.4,27.9L323.4,27.9c1.2,0,2.2,1,2.2,2.2v0c0,1.2-1,2.2-2.2,2.2h0c-1.2,0-2.2-1-2.2-2.2v0
	C321.3,28.8,322.2,27.9,323.4,27.9z"/>
<path class="st2" d="M306.2,27.9L306.2,27.9c1.2,0,2.2,1,2.2,2.2v0c0,1.2-1,2.2-2.2,2.2h0c-1.2,0-2.2-1-2.2-2.2v0
	C304,28.8,305,27.9,306.2,27.9z"/>
<path class="st2" d="M289,27.9L289,27.9c1.2,0,2.2,1,2.2,2.2v0c0,1.2-1,2.2-2.2,2.2h0c-1.2,0-2.2-1-2.2-2.2v0
	C286.8,28.8,287.8,27.9,289,27.9z"/>
<path class="st2" d="M271.7,27.9L271.7,27.9c1.2,0,2.2,1,2.2,2.2v0c0,1.2-1,2.2-2.2,2.2h0c-1.2,0-2.2-1-2.2-2.2v0
	C269.6,28.8,270.5,27.9,271.7,27.9z"/>
<path class="st2" d="M254.5,27.9L254.5,27.9c1.2,0,2.2,1,2.2,2.2v0c0,1.2-1,2.2-2.2,2.2h0c-1.2,0-2.2-1-2.2-2.2v0
	C252.3,28.8,253.3,27.9,254.5,27.9z"/>
<path class="st2" d="M237.3,27.9L237.3,27.9c1.2,0,2.2,1,2.2,2.2v0c0,1.2-1,2.2-2.2,2.2h0c-1.2,0-2.2-1-2.2-2.2v0
	C235.1,28.8,236.1,27.9,237.3,27.9z"/>
<path class="st2" d="M220,27.9L220,27.9c1.2,0,2.2,1,2.2,2.2v0c0,1.2-1,2.2-2.2,2.2h0c-1.2,0-2.2-1-2.2-2.2v0
	C217.9,28.8,218.8,27.9,220,27.9z"/>
<path class="st2" d="M202.8,27.9L202.8,27.9c1.2,0,2.2,1,2.2,2.2v0c0,1.2-1,2.2-2.2,2.2h0c-1.2,0-2.2-1-2.2-2.2v0
	C200.6,28.8,201.6,27.9,202.8,27.9z"/>
<path class="st2" d="M185.6,27.9L185.6,27.9c1.2,0,2.2,1,2.2,2.2v0c0,1.2-1,2.2-2.2,2.2h0c-1.2,0-2.2-1-2.2-2.2v0
	C183.4,28.8,184.4,27.9,185.6,27.9z"/>
<path class="st2" d="M168.3,27.9L168.3,27.9c1.2,0,2.2,1,2.2,2.2v0c0,1.2-1,2.2-2.1,2.2h0c-1.2,0-2.1-1-2.1-2.2v0
	C166.2,28.8,167.1,27.9,168.3,27.9z"/>
<path class="st2" d="M151.1,27.9L151.1,27.9c1.2,0,2.2,1,2.2,2.2v0c0,1.2-1,2.2-2.1,2.2h0c-1.2,0-2.1-1-2.1-2.2v0
	C148.9,28.8,149.9,27.9,151.1,27.9z"/>
<path class="st2" d="M133.8,27.9L133.8,27.9c1.2,0,2.2,1,2.2,2.2v0c0,1.2-1,2.2-2.1,2.2h0c-1.2,0-2.1-1-2.1-2.2v0
	C131.7,28.8,132.7,27.9,133.8,27.9z"/>
<path class="st2" d="M116.6,27.9L116.6,27.9c1.2,0,2.2,1,2.2,2.2v0c0,1.2-1,2.2-2.1,2.2h0c-1.2,0-2.1-1-2.1-2.2v0
	C114.5,28.8,115.4,27.9,116.6,27.9z"/>
<path class="st2" d="M99.4,27.9L99.4,27.9c1.2,0,2.2,1,2.2,2.2v0c0,1.2-1,2.2-2.1,2.2h0c-1.2,0-2.1-1-2.1-2.2v0
	C97.2,28.8,98.2,27.9,99.4,27.9z"/>
<path class="st2" d="M82.1,27.9L82.1,27.9c1.2,0,2.2,1,2.2,2.2v0c0,1.2-1,2.2-2.1,2.2h0c-1.2,0-2.1-1-2.1-2.2v0
	C80,28.8,81,27.9,82.1,27.9z"/>
<path class="st2" d="M64.9,27.9L64.9,27.9c1.2,0,2.2,1,2.2,2.2v0c0,1.2-1,2.2-2.1,2.2h0c-1.2,0-2.1-1-2.1-2.2v0
	C62.8,28.8,63.7,27.9,64.9,27.9z"/>
<path class="st2" d="M47.7,27.9L47.7,27.9c1.2,0,2.2,1,2.2,2.2v0c0,1.2-1,2.2-2.1,2.2h0c-1.2,0-2.1-1-2.1-2.2v0
	C45.5,28.8,46.5,27.9,47.7,27.9z"/>
<path class="st2" d="M472.4,37.1L472.4,37.1c1.2,0,2.2,1,2.2,2.2v0c0,1.2-1,2.2-2.2,2.2h0c-1.2,0-2.2-1-2.2-2.2v0
	C470.2,38,471.2,37.1,472.4,37.1z"/>
</svg>
